%TF.GenerationSoftware,KiCad,Pcbnew,10.0.6-1.fc44app2*%
%TF.CreationDate,2026-09-09T19:51:05+05:00*%
%TF.ProjectId,dazzy-alaram,64617a7a-792d-4616-9c61-72616d2e6b69,rev?*%
%TF.SameCoordinates,Original*%
%TF.FileFunction,Soldermask,Top*%
%TF.FilePolarity,Negative*%
%FSLAX46Y46*%
G04 Gerber Fmt 4.6, Leading zero omitted, Abs format (unit mm)*
G04 Created by KiCad (PCBNEW 10.0.6-1.fc44app2) date 2026-09-09 19:51:05*
%MOMM*%
%LPD*%
G01*
G04 APERTURE LIST*
G04 Aperture macros list*
%AMRoundRect*
0 Rectangle with rounded corners*
0 $1 Rounding radius*
0 $2 $3 $4 $5 $6 $7 $8 $9 X,Y pos of 4 corners*
0 Add a 4 corners polygon primitive as box body*
4,1,4,$2,$3,$4,$5,$6,$7,$8,$9,$2,$3,0*
0 Add four circle primitives for the rounded corners*
1,1,$1+$1,$2,$3*
1,1,$1+$1,$4,$5*
1,1,$1+$1,$6,$7*
1,1,$1+$1,$8,$9*
0 Add four rect primitives between the rounded corners*
20,1,$1+$1,$2,$3,$4,$5,0*
20,1,$1+$1,$4,$5,$6,$7,0*
20,1,$1+$1,$6,$7,$8,$9,0*
20,1,$1+$1,$8,$9,$2,$3,0*%
G04 Aperture macros list end*
%ADD10C,2.500000*%
%ADD11R,2.000000X2.000000*%
%ADD12C,2.000000*%
%ADD13R,1.700000X1.700000*%
%ADD14C,1.700000*%
%ADD15RoundRect,0.500000X-1.000000X-0.500000X1.000000X-0.500000X1.000000X0.500000X-1.000000X0.500000X0*%
%ADD16RoundRect,0.250000X-1.500000X-1.500000X1.500000X-1.500000X1.500000X1.500000X-1.500000X1.500000X0*%
%ADD17RoundRect,0.250000X-0.900000X-0.400000X0.900000X-0.400000X0.900000X0.400000X-0.900000X0.400000X0*%
%ADD18C,1.300000*%
G04 APERTURE END LIST*
D10*
%TO.C,H4*%
X157022800Y-56083200D03*
%TD*%
D11*
%TO.C,BZ2*%
X234723400Y-61316342D03*
D12*
X242323400Y-61316342D03*
%TD*%
%TO.C,SW1*%
X177118000Y-111266942D03*
X177118000Y-104766942D03*
X181618000Y-111266942D03*
X181618000Y-104766942D03*
%TD*%
D13*
%TO.C,J1*%
X237198000Y-106266942D03*
D14*
X234658000Y-106266942D03*
X232118000Y-106266942D03*
X229578000Y-106266942D03*
X227038000Y-106266942D03*
X224498000Y-106266942D03*
X221958000Y-106266942D03*
X219418000Y-106266942D03*
%TD*%
D10*
%TO.C,H1*%
X157022800Y-117449600D03*
%TD*%
%TO.C,H3*%
X31575000Y-2775000D03*
%TD*%
%TO.C,H1*%
X256692400Y-118211600D03*
%TD*%
D12*
%TO.C,SW3*%
X177118000Y-82979200D03*
X177118000Y-76479200D03*
X181618000Y-82979200D03*
X181618000Y-76479200D03*
%TD*%
D15*
%TO.C,U2*%
X207518000Y-67259200D03*
X207518000Y-69799200D03*
X207518000Y-72339200D03*
X207518000Y-74879200D03*
X207518000Y-77419200D03*
X207518000Y-79959200D03*
X207518000Y-82499200D03*
X224518000Y-82499200D03*
X224518000Y-79959200D03*
X224518000Y-77419200D03*
X224518000Y-74879200D03*
X224518000Y-72339200D03*
X224518000Y-69799200D03*
X224518000Y-67259200D03*
D16*
X218118000Y-75479200D03*
D17*
X211518000Y-74479200D03*
X211518000Y-72579200D03*
D18*
X214748000Y-66259200D03*
X214748000Y-68839200D03*
X214748000Y-71379200D03*
X217288000Y-71379200D03*
X217288000Y-68839200D03*
X217288000Y-66259200D03*
%TD*%
D12*
%TO.C,SW2*%
X177618000Y-96479200D03*
X177618000Y-89979200D03*
X182118000Y-96479200D03*
X182118000Y-89979200D03*
%TD*%
D10*
%TO.C,H2*%
X255625600Y-58166000D03*
%TD*%
D12*
%TO.C,SW4*%
X177118000Y-67979200D03*
X177118000Y-61479200D03*
X181618000Y-67979200D03*
X181618000Y-61479200D03*
%TD*%
M02*
