%TF.GenerationSoftware,KiCad,Pcbnew,10.0.6-1.fc44app2*%
%TF.CreationDate,2026-09-09T19:51:04+05:00*%
%TF.ProjectId,dazzy-alaram,64617a7a-792d-4616-9c61-72616d2e6b69,rev?*%
%TF.SameCoordinates,Original*%
%TF.FileFunction,Legend,Top*%
%TF.FilePolarity,Positive*%
%FSLAX46Y46*%
G04 Gerber Fmt 4.6, Leading zero omitted, Abs format (unit mm)*
G04 Created by KiCad (PCBNEW 10.0.6-1.fc44app2) date 2026-09-09 19:51:04*
%MOMM*%
%LPD*%
G01*
G04 APERTURE LIST*
%ADD10C,0.150000*%
%ADD11C,0.120000*%
G04 APERTURE END LIST*
D10*
X156260895Y-53088019D02*
X156260895Y-52088019D01*
X156260895Y-52564209D02*
X156832323Y-52564209D01*
X156832323Y-53088019D02*
X156832323Y-52088019D01*
X157737085Y-52421352D02*
X157737085Y-53088019D01*
X157498990Y-52040400D02*
X157260895Y-52754685D01*
X157260895Y-52754685D02*
X157879942Y-52754685D01*
X237642447Y-54047351D02*
X237785304Y-54094970D01*
X237785304Y-54094970D02*
X237832923Y-54142589D01*
X237832923Y-54142589D02*
X237880542Y-54237827D01*
X237880542Y-54237827D02*
X237880542Y-54380684D01*
X237880542Y-54380684D02*
X237832923Y-54475922D01*
X237832923Y-54475922D02*
X237785304Y-54523542D01*
X237785304Y-54523542D02*
X237690066Y-54571161D01*
X237690066Y-54571161D02*
X237309114Y-54571161D01*
X237309114Y-54571161D02*
X237309114Y-53571161D01*
X237309114Y-53571161D02*
X237642447Y-53571161D01*
X237642447Y-53571161D02*
X237737685Y-53618780D01*
X237737685Y-53618780D02*
X237785304Y-53666399D01*
X237785304Y-53666399D02*
X237832923Y-53761637D01*
X237832923Y-53761637D02*
X237832923Y-53856875D01*
X237832923Y-53856875D02*
X237785304Y-53952113D01*
X237785304Y-53952113D02*
X237737685Y-53999732D01*
X237737685Y-53999732D02*
X237642447Y-54047351D01*
X237642447Y-54047351D02*
X237309114Y-54047351D01*
X238213876Y-53571161D02*
X238880542Y-53571161D01*
X238880542Y-53571161D02*
X238213876Y-54571161D01*
X238213876Y-54571161D02*
X238880542Y-54571161D01*
X239213876Y-53666399D02*
X239261495Y-53618780D01*
X239261495Y-53618780D02*
X239356733Y-53571161D01*
X239356733Y-53571161D02*
X239594828Y-53571161D01*
X239594828Y-53571161D02*
X239690066Y-53618780D01*
X239690066Y-53618780D02*
X239737685Y-53666399D01*
X239737685Y-53666399D02*
X239785304Y-53761637D01*
X239785304Y-53761637D02*
X239785304Y-53856875D01*
X239785304Y-53856875D02*
X239737685Y-53999732D01*
X239737685Y-53999732D02*
X239166257Y-54571161D01*
X239166257Y-54571161D02*
X239785304Y-54571161D01*
X234332448Y-58850208D02*
X235094353Y-58850208D01*
X234713400Y-59231161D02*
X234713400Y-58469256D01*
X239032819Y-106600275D02*
X239747104Y-106600275D01*
X239747104Y-106600275D02*
X239889961Y-106647894D01*
X239889961Y-106647894D02*
X239985200Y-106743132D01*
X239985200Y-106743132D02*
X240032819Y-106885989D01*
X240032819Y-106885989D02*
X240032819Y-106981227D01*
X240032819Y-105600275D02*
X240032819Y-106171703D01*
X240032819Y-105885989D02*
X239032819Y-105885989D01*
X239032819Y-105885989D02*
X239175676Y-105981227D01*
X239175676Y-105981227D02*
X239270914Y-106076465D01*
X239270914Y-106076465D02*
X239318533Y-106171703D01*
X156260895Y-114454419D02*
X156260895Y-113454419D01*
X156260895Y-113930609D02*
X156832323Y-113930609D01*
X156832323Y-114454419D02*
X156832323Y-113454419D01*
X157832323Y-114454419D02*
X157260895Y-114454419D01*
X157546609Y-114454419D02*
X157546609Y-113454419D01*
X157546609Y-113454419D02*
X157451371Y-113597276D01*
X157451371Y-113597276D02*
X157356133Y-113692514D01*
X157356133Y-113692514D02*
X157260895Y-113740133D01*
X30813095Y220180D02*
X30813095Y1220180D01*
X30813095Y743990D02*
X31384523Y743990D01*
X31384523Y220180D02*
X31384523Y1220180D01*
X31765476Y1220180D02*
X32384523Y1220180D01*
X32384523Y1220180D02*
X32051190Y839228D01*
X32051190Y839228D02*
X32194047Y839228D01*
X32194047Y839228D02*
X32289285Y791609D01*
X32289285Y791609D02*
X32336904Y743990D01*
X32336904Y743990D02*
X32384523Y648752D01*
X32384523Y648752D02*
X32384523Y410657D01*
X32384523Y410657D02*
X32336904Y315419D01*
X32336904Y315419D02*
X32289285Y267800D01*
X32289285Y267800D02*
X32194047Y220180D01*
X32194047Y220180D02*
X31908333Y220180D01*
X31908333Y220180D02*
X31813095Y267800D01*
X31813095Y267800D02*
X31765476Y315419D01*
X255930495Y-115216419D02*
X255930495Y-114216419D01*
X255930495Y-114692609D02*
X256501923Y-114692609D01*
X256501923Y-115216419D02*
X256501923Y-114216419D01*
X257501923Y-115216419D02*
X256930495Y-115216419D01*
X257216209Y-115216419D02*
X257216209Y-114216419D01*
X257216209Y-114216419D02*
X257120971Y-114359276D01*
X257120971Y-114359276D02*
X257025733Y-114454514D01*
X257025733Y-114454514D02*
X256930495Y-114502133D01*
X175525200Y-81062532D02*
X175572819Y-80919675D01*
X175572819Y-80919675D02*
X175572819Y-80681580D01*
X175572819Y-80681580D02*
X175525200Y-80586342D01*
X175525200Y-80586342D02*
X175477580Y-80538723D01*
X175477580Y-80538723D02*
X175382342Y-80491104D01*
X175382342Y-80491104D02*
X175287104Y-80491104D01*
X175287104Y-80491104D02*
X175191866Y-80538723D01*
X175191866Y-80538723D02*
X175144247Y-80586342D01*
X175144247Y-80586342D02*
X175096628Y-80681580D01*
X175096628Y-80681580D02*
X175049009Y-80872056D01*
X175049009Y-80872056D02*
X175001390Y-80967294D01*
X175001390Y-80967294D02*
X174953771Y-81014913D01*
X174953771Y-81014913D02*
X174858533Y-81062532D01*
X174858533Y-81062532D02*
X174763295Y-81062532D01*
X174763295Y-81062532D02*
X174668057Y-81014913D01*
X174668057Y-81014913D02*
X174620438Y-80967294D01*
X174620438Y-80967294D02*
X174572819Y-80872056D01*
X174572819Y-80872056D02*
X174572819Y-80633961D01*
X174572819Y-80633961D02*
X174620438Y-80491104D01*
X174572819Y-80157770D02*
X175572819Y-79919675D01*
X175572819Y-79919675D02*
X174858533Y-79729199D01*
X174858533Y-79729199D02*
X175572819Y-79538723D01*
X175572819Y-79538723D02*
X174572819Y-79300628D01*
X174572819Y-79014913D02*
X174572819Y-78395866D01*
X174572819Y-78395866D02*
X174953771Y-78729199D01*
X174953771Y-78729199D02*
X174953771Y-78586342D01*
X174953771Y-78586342D02*
X175001390Y-78491104D01*
X175001390Y-78491104D02*
X175049009Y-78443485D01*
X175049009Y-78443485D02*
X175144247Y-78395866D01*
X175144247Y-78395866D02*
X175382342Y-78395866D01*
X175382342Y-78395866D02*
X175477580Y-78443485D01*
X175477580Y-78443485D02*
X175525200Y-78491104D01*
X175525200Y-78491104D02*
X175572819Y-78586342D01*
X175572819Y-78586342D02*
X175572819Y-78872056D01*
X175572819Y-78872056D02*
X175525200Y-78967294D01*
X175525200Y-78967294D02*
X175477580Y-79014913D01*
X222256095Y-62334019D02*
X222256095Y-63143542D01*
X222256095Y-63143542D02*
X222303714Y-63238780D01*
X222303714Y-63238780D02*
X222351333Y-63286400D01*
X222351333Y-63286400D02*
X222446571Y-63334019D01*
X222446571Y-63334019D02*
X222637047Y-63334019D01*
X222637047Y-63334019D02*
X222732285Y-63286400D01*
X222732285Y-63286400D02*
X222779904Y-63238780D01*
X222779904Y-63238780D02*
X222827523Y-63143542D01*
X222827523Y-63143542D02*
X222827523Y-62334019D01*
X223256095Y-62429257D02*
X223303714Y-62381638D01*
X223303714Y-62381638D02*
X223398952Y-62334019D01*
X223398952Y-62334019D02*
X223637047Y-62334019D01*
X223637047Y-62334019D02*
X223732285Y-62381638D01*
X223732285Y-62381638D02*
X223779904Y-62429257D01*
X223779904Y-62429257D02*
X223827523Y-62524495D01*
X223827523Y-62524495D02*
X223827523Y-62619733D01*
X223827523Y-62619733D02*
X223779904Y-62762590D01*
X223779904Y-62762590D02*
X223208476Y-63334019D01*
X223208476Y-63334019D02*
X223827523Y-63334019D01*
X176025200Y-94562532D02*
X176072819Y-94419675D01*
X176072819Y-94419675D02*
X176072819Y-94181580D01*
X176072819Y-94181580D02*
X176025200Y-94086342D01*
X176025200Y-94086342D02*
X175977580Y-94038723D01*
X175977580Y-94038723D02*
X175882342Y-93991104D01*
X175882342Y-93991104D02*
X175787104Y-93991104D01*
X175787104Y-93991104D02*
X175691866Y-94038723D01*
X175691866Y-94038723D02*
X175644247Y-94086342D01*
X175644247Y-94086342D02*
X175596628Y-94181580D01*
X175596628Y-94181580D02*
X175549009Y-94372056D01*
X175549009Y-94372056D02*
X175501390Y-94467294D01*
X175501390Y-94467294D02*
X175453771Y-94514913D01*
X175453771Y-94514913D02*
X175358533Y-94562532D01*
X175358533Y-94562532D02*
X175263295Y-94562532D01*
X175263295Y-94562532D02*
X175168057Y-94514913D01*
X175168057Y-94514913D02*
X175120438Y-94467294D01*
X175120438Y-94467294D02*
X175072819Y-94372056D01*
X175072819Y-94372056D02*
X175072819Y-94133961D01*
X175072819Y-94133961D02*
X175120438Y-93991104D01*
X175072819Y-93657770D02*
X176072819Y-93419675D01*
X176072819Y-93419675D02*
X175358533Y-93229199D01*
X175358533Y-93229199D02*
X176072819Y-93038723D01*
X176072819Y-93038723D02*
X175072819Y-92800628D01*
X175168057Y-92467294D02*
X175120438Y-92419675D01*
X175120438Y-92419675D02*
X175072819Y-92324437D01*
X175072819Y-92324437D02*
X175072819Y-92086342D01*
X175072819Y-92086342D02*
X175120438Y-91991104D01*
X175120438Y-91991104D02*
X175168057Y-91943485D01*
X175168057Y-91943485D02*
X175263295Y-91895866D01*
X175263295Y-91895866D02*
X175358533Y-91895866D01*
X175358533Y-91895866D02*
X175501390Y-91943485D01*
X175501390Y-91943485D02*
X176072819Y-92514913D01*
X176072819Y-92514913D02*
X176072819Y-91895866D01*
X254863695Y-55170819D02*
X254863695Y-54170819D01*
X254863695Y-54647009D02*
X255435123Y-54647009D01*
X255435123Y-55170819D02*
X255435123Y-54170819D01*
X255863695Y-54266057D02*
X255911314Y-54218438D01*
X255911314Y-54218438D02*
X256006552Y-54170819D01*
X256006552Y-54170819D02*
X256244647Y-54170819D01*
X256244647Y-54170819D02*
X256339885Y-54218438D01*
X256339885Y-54218438D02*
X256387504Y-54266057D01*
X256387504Y-54266057D02*
X256435123Y-54361295D01*
X256435123Y-54361295D02*
X256435123Y-54456533D01*
X256435123Y-54456533D02*
X256387504Y-54599390D01*
X256387504Y-54599390D02*
X255816076Y-55170819D01*
X255816076Y-55170819D02*
X256435123Y-55170819D01*
X175525200Y-66062532D02*
X175572819Y-65919675D01*
X175572819Y-65919675D02*
X175572819Y-65681580D01*
X175572819Y-65681580D02*
X175525200Y-65586342D01*
X175525200Y-65586342D02*
X175477580Y-65538723D01*
X175477580Y-65538723D02*
X175382342Y-65491104D01*
X175382342Y-65491104D02*
X175287104Y-65491104D01*
X175287104Y-65491104D02*
X175191866Y-65538723D01*
X175191866Y-65538723D02*
X175144247Y-65586342D01*
X175144247Y-65586342D02*
X175096628Y-65681580D01*
X175096628Y-65681580D02*
X175049009Y-65872056D01*
X175049009Y-65872056D02*
X175001390Y-65967294D01*
X175001390Y-65967294D02*
X174953771Y-66014913D01*
X174953771Y-66014913D02*
X174858533Y-66062532D01*
X174858533Y-66062532D02*
X174763295Y-66062532D01*
X174763295Y-66062532D02*
X174668057Y-66014913D01*
X174668057Y-66014913D02*
X174620438Y-65967294D01*
X174620438Y-65967294D02*
X174572819Y-65872056D01*
X174572819Y-65872056D02*
X174572819Y-65633961D01*
X174572819Y-65633961D02*
X174620438Y-65491104D01*
X174572819Y-65157770D02*
X175572819Y-64919675D01*
X175572819Y-64919675D02*
X174858533Y-64729199D01*
X174858533Y-64729199D02*
X175572819Y-64538723D01*
X175572819Y-64538723D02*
X174572819Y-64300628D01*
X174906152Y-63491104D02*
X175572819Y-63491104D01*
X174525200Y-63729199D02*
X175239485Y-63967294D01*
X175239485Y-63967294D02*
X175239485Y-63348247D01*
%TO.C,BZ2*%
D11*
X244623400Y-61316342D02*
G75*
G02*
X232423400Y-61316342I-6100000J0D01*
G01*
X232423400Y-61316342D02*
G75*
G02*
X244623400Y-61316342I6100000J0D01*
G01*
%TO.C,SW1*%
X176118000Y-105766942D02*
X176118000Y-110266942D01*
X178618000Y-111516942D02*
X180118000Y-111516942D01*
X180118000Y-104516942D02*
X178618000Y-104516942D01*
X182618000Y-110266942D02*
X182618000Y-105766942D01*
%TO.C,J1*%
X218038000Y-104886942D02*
X218038000Y-107646942D01*
X235928000Y-104886942D02*
X218038000Y-104886942D01*
X235928000Y-104886942D02*
X235928000Y-107646942D01*
X235928000Y-107646942D02*
X218038000Y-107646942D01*
X237198000Y-104886942D02*
X238578000Y-104886942D01*
X238578000Y-104886942D02*
X238578000Y-106266942D01*
%TO.C,SW3*%
X176118000Y-77479200D02*
X176118000Y-81979200D01*
X178618000Y-83229200D02*
X180118000Y-83229200D01*
X180118000Y-76229200D02*
X178618000Y-76229200D01*
X182618000Y-81979200D02*
X182618000Y-77479200D01*
%TO.C,U2*%
X209318000Y-85379200D02*
X222718000Y-85379200D01*
X212018000Y-63179200D02*
X220018000Y-63179200D01*
X212018000Y-64379200D02*
X209418000Y-64379200D01*
X212018000Y-64379200D02*
X212018000Y-63179200D01*
X220018000Y-63179200D02*
X220018000Y-64379200D01*
X222618000Y-64379200D02*
X220018000Y-64379200D01*
X207205108Y-65874520D02*
G75*
G02*
X209417532Y-64379201I2135279J-774913D01*
G01*
X209318000Y-85379200D02*
G75*
G02*
X207218000Y-83879200I74105J2323747D01*
G01*
X222618000Y-64379201D02*
G75*
G02*
X224822030Y-65877738I64720J-2274909D01*
G01*
X224818000Y-83879200D02*
G75*
G02*
X222718000Y-85379203I-2174110J823750D01*
G01*
%TO.C,SW2*%
X176618000Y-90979200D02*
X176618000Y-95479200D01*
X179118000Y-96729200D02*
X180618000Y-96729200D01*
X180618000Y-89729200D02*
X179118000Y-89729200D01*
X183118000Y-95479200D02*
X183118000Y-90979200D01*
%TO.C,SW4*%
X176118000Y-62479200D02*
X176118000Y-66979200D01*
X178618000Y-68229200D02*
X180118000Y-68229200D01*
X180118000Y-61229200D02*
X178618000Y-61229200D01*
X182618000Y-66979200D02*
X182618000Y-62479200D01*
%TD*%
M02*
