ISO-10303-21;
HEADER;
/* Generated by software containing ST-Developer
 * from STEP Tools, Inc. (www.steptools.com) 
 */
/* OPTION: using custom renumber hook */

FILE_DESCRIPTION(
/* description */ ('STEP AP242 Edition 2',
'CAx-IF Rec.Pracs.---Representation and Presentation of Product Manufa
cturing Information (PMI)---4.0---2014-10-13',
'CAx-IF Rec.Pracs.---3D Tessellated Geometry---0.4---2014-09-14','2;1',
'CAx-IF Rec.Pracs.---User Defined Attributes---1.5---2016-08-15'),
/* implementation_level */ '2;1');

FILE_NAME(
/* name */ 'Part Studio 1 - Part 1',
/* time_stamp */ '2026-09-09T15:38:00Z',
/* author */ (''),
/* organization */ (''),
/* preprocessor_version */ 'ST-DEVELOPER v20',
/* originating_system */ 'ONSHAPE BY PTC INC, 1.220',
/* authorisation */ '  ');

FILE_SCHEMA (('AP242_MANAGED_MODEL_BASED_3D_ENGINEERING_MIM_LF { 1 0 10303 442 3 1 4 }'));
ENDSEC;

DATA;
#10=SHAPE_REPRESENTATION_RELATIONSHIP('','',#457,#11);
#11=ADVANCED_BREP_SHAPE_REPRESENTATION('',(#455),#783);
#12=SPHERICAL_SURFACE('',#481,0.003);
#13=SPHERICAL_SURFACE('',#483,0.003);
#14=SPHERICAL_SURFACE('',#485,0.003);
#15=SPHERICAL_SURFACE('',#487,0.003);
#16=CYLINDRICAL_SURFACE('',#469,0.003);
#17=CYLINDRICAL_SURFACE('',#472,0.003);
#18=CYLINDRICAL_SURFACE('',#475,0.003);
#19=CYLINDRICAL_SURFACE('',#478,0.003);
#20=CYLINDRICAL_SURFACE('',#489,0.003);
#21=CYLINDRICAL_SURFACE('',#490,0.003);
#22=CYLINDRICAL_SURFACE('',#492,0.003);
#23=CYLINDRICAL_SURFACE('',#494,0.003);
#24=CYLINDRICAL_SURFACE('',#502,0.002);
#25=CYLINDRICAL_SURFACE('',#505,0.002);
#26=CYLINDRICAL_SURFACE('',#508,0.002);
#27=CYLINDRICAL_SURFACE('',#511,0.002);
#28=LINE('',#668,#60);
#29=LINE('',#671,#61);
#30=LINE('',#673,#62);
#31=LINE('',#675,#63);
#32=LINE('',#679,#64);
#33=LINE('',#683,#65);
#34=LINE('',#687,#66);
#35=LINE('',#691,#67);
#36=LINE('',#693,#68);
#37=LINE('',#696,#69);
#38=LINE('',#698,#70);
#39=LINE('',#700,#71);
#40=LINE('',#704,#72);
#41=LINE('',#710,#73);
#42=LINE('',#716,#74);
#43=LINE('',#724,#75);
#44=LINE('',#734,#76);
#45=LINE('',#735,#77);
#46=LINE('',#737,#78);
#47=LINE('',#738,#79);
#48=LINE('',#741,#80);
#49=LINE('',#742,#81);
#50=LINE('',#745,#82);
#51=LINE('',#746,#83);
#52=LINE('',#750,#84);
#53=LINE('',#753,#85);
#54=LINE('',#755,#86);
#55=LINE('',#757,#87);
#56=LINE('',#759,#88);
#57=LINE('',#760,#89);
#58=LINE('',#762,#90);
#59=LINE('',#764,#91);
#60=VECTOR('',#526,1.);
#61=VECTOR('',#527,1.);
#62=VECTOR('',#528,1.);
#63=VECTOR('',#529,1.);
#64=VECTOR('',#532,1.);
#65=VECTOR('',#535,1.);
#66=VECTOR('',#538,1.);
#67=VECTOR('',#541,1.);
#68=VECTOR('',#544,1.);
#69=VECTOR('',#545,1.);
#70=VECTOR('',#546,1.);
#71=VECTOR('',#547,1.);
#72=VECTOR('',#552,1.);
#73=VECTOR('',#559,1.);
#74=VECTOR('',#566,1.);
#75=VECTOR('',#575,1.);
#76=VECTOR('',#594,1.);
#77=VECTOR('',#595,1.);
#78=VECTOR('',#598,1.);
#79=VECTOR('',#599,1.);
#80=VECTOR('',#604,1.);
#81=VECTOR('',#605,1.);
#82=VECTOR('',#610,1.);
#83=VECTOR('',#611,1.);
#84=VECTOR('',#618,1.);
#85=VECTOR('',#619,1.);
#86=VECTOR('',#620,1.);
#87=VECTOR('',#621,1.);
#88=VECTOR('',#624,1.);
#89=VECTOR('',#625,1.);
#90=VECTOR('',#628,1.);
#91=VECTOR('',#631,1.);
#92=ORIENTED_EDGE('',*,*,#204,.F.);
#93=ORIENTED_EDGE('',*,*,#205,.F.);
#94=ORIENTED_EDGE('',*,*,#206,.F.);
#95=ORIENTED_EDGE('',*,*,#207,.F.);
#96=ORIENTED_EDGE('',*,*,#208,.F.);
#97=ORIENTED_EDGE('',*,*,#209,.T.);
#98=ORIENTED_EDGE('',*,*,#210,.T.);
#99=ORIENTED_EDGE('',*,*,#211,.F.);
#100=ORIENTED_EDGE('',*,*,#212,.F.);
#101=ORIENTED_EDGE('',*,*,#213,.T.);
#102=ORIENTED_EDGE('',*,*,#214,.F.);
#103=ORIENTED_EDGE('',*,*,#215,.F.);
#104=ORIENTED_EDGE('',*,*,#216,.F.);
#105=ORIENTED_EDGE('',*,*,#217,.F.);
#106=ORIENTED_EDGE('',*,*,#218,.F.);
#107=ORIENTED_EDGE('',*,*,#219,.T.);
#108=ORIENTED_EDGE('',*,*,#220,.T.);
#109=ORIENTED_EDGE('',*,*,#221,.T.);
#110=ORIENTED_EDGE('',*,*,#222,.T.);
#111=ORIENTED_EDGE('',*,*,#223,.T.);
#112=ORIENTED_EDGE('',*,*,#224,.T.);
#113=ORIENTED_EDGE('',*,*,#225,.F.);
#114=ORIENTED_EDGE('',*,*,#226,.T.);
#115=ORIENTED_EDGE('',*,*,#221,.F.);
#116=ORIENTED_EDGE('',*,*,#227,.T.);
#117=ORIENTED_EDGE('',*,*,#228,.F.);
#118=ORIENTED_EDGE('',*,*,#229,.F.);
#119=ORIENTED_EDGE('',*,*,#220,.F.);
#120=ORIENTED_EDGE('',*,*,#230,.F.);
#121=ORIENTED_EDGE('',*,*,#231,.F.);
#122=ORIENTED_EDGE('',*,*,#232,.F.);
#123=ORIENTED_EDGE('',*,*,#223,.F.);
#124=ORIENTED_EDGE('',*,*,#233,.T.);
#125=ORIENTED_EDGE('',*,*,#222,.F.);
#126=ORIENTED_EDGE('',*,*,#234,.F.);
#127=ORIENTED_EDGE('',*,*,#235,.F.);
#128=ORIENTED_EDGE('',*,*,#232,.T.);
#129=ORIENTED_EDGE('',*,*,#236,.T.);
#130=ORIENTED_EDGE('',*,*,#227,.F.);
#131=ORIENTED_EDGE('',*,*,#237,.T.);
#132=ORIENTED_EDGE('',*,*,#230,.T.);
#133=ORIENTED_EDGE('',*,*,#233,.F.);
#134=ORIENTED_EDGE('',*,*,#229,.T.);
#135=ORIENTED_EDGE('',*,*,#238,.T.);
#136=ORIENTED_EDGE('',*,*,#224,.F.);
#137=ORIENTED_EDGE('',*,*,#239,.T.);
#138=ORIENTED_EDGE('',*,*,#234,.T.);
#139=ORIENTED_EDGE('',*,*,#226,.F.);
#140=ORIENTED_EDGE('',*,*,#240,.F.);
#141=ORIENTED_EDGE('',*,*,#214,.T.);
#142=ORIENTED_EDGE('',*,*,#241,.F.);
#143=ORIENTED_EDGE('',*,*,#237,.F.);
#144=ORIENTED_EDGE('',*,*,#242,.F.);
#145=ORIENTED_EDGE('',*,*,#216,.T.);
#146=ORIENTED_EDGE('',*,*,#243,.F.);
#147=ORIENTED_EDGE('',*,*,#239,.F.);
#148=ORIENTED_EDGE('',*,*,#243,.T.);
#149=ORIENTED_EDGE('',*,*,#215,.T.);
#150=ORIENTED_EDGE('',*,*,#240,.T.);
#151=ORIENTED_EDGE('',*,*,#235,.T.);
#152=ORIENTED_EDGE('',*,*,#244,.F.);
#153=ORIENTED_EDGE('',*,*,#212,.T.);
#154=ORIENTED_EDGE('',*,*,#245,.F.);
#155=ORIENTED_EDGE('',*,*,#236,.F.);
#156=ORIENTED_EDGE('',*,*,#213,.F.);
#157=ORIENTED_EDGE('',*,*,#244,.T.);
#158=ORIENTED_EDGE('',*,*,#231,.T.);
#159=ORIENTED_EDGE('',*,*,#241,.T.);
#160=ORIENTED_EDGE('',*,*,#246,.F.);
#161=ORIENTED_EDGE('',*,*,#218,.T.);
#162=ORIENTED_EDGE('',*,*,#247,.F.);
#163=ORIENTED_EDGE('',*,*,#238,.F.);
#164=ORIENTED_EDGE('',*,*,#219,.F.);
#165=ORIENTED_EDGE('',*,*,#246,.T.);
#166=ORIENTED_EDGE('',*,*,#228,.T.);
#167=ORIENTED_EDGE('',*,*,#245,.T.);
#168=ORIENTED_EDGE('',*,*,#247,.T.);
#169=ORIENTED_EDGE('',*,*,#217,.T.);
#170=ORIENTED_EDGE('',*,*,#242,.T.);
#171=ORIENTED_EDGE('',*,*,#225,.T.);
#172=ORIENTED_EDGE('',*,*,#248,.T.);
#173=ORIENTED_EDGE('',*,*,#249,.T.);
#174=ORIENTED_EDGE('',*,*,#250,.F.);
#175=ORIENTED_EDGE('',*,*,#251,.T.);
#176=ORIENTED_EDGE('',*,*,#252,.F.);
#177=ORIENTED_EDGE('',*,*,#250,.T.);
#178=ORIENTED_EDGE('',*,*,#253,.T.);
#179=ORIENTED_EDGE('',*,*,#210,.F.);
#180=ORIENTED_EDGE('',*,*,#211,.T.);
#181=ORIENTED_EDGE('',*,*,#253,.F.);
#182=ORIENTED_EDGE('',*,*,#249,.F.);
#183=ORIENTED_EDGE('',*,*,#254,.T.);
#184=ORIENTED_EDGE('',*,*,#208,.T.);
#185=ORIENTED_EDGE('',*,*,#254,.F.);
#186=ORIENTED_EDGE('',*,*,#248,.F.);
#187=ORIENTED_EDGE('',*,*,#255,.T.);
#188=ORIENTED_EDGE('',*,*,#255,.F.);
#189=ORIENTED_EDGE('',*,*,#251,.F.);
#190=ORIENTED_EDGE('',*,*,#252,.T.);
#191=ORIENTED_EDGE('',*,*,#209,.F.);
#192=ORIENTED_EDGE('',*,*,#256,.F.);
#193=ORIENTED_EDGE('',*,*,#207,.T.);
#194=ORIENTED_EDGE('',*,*,#256,.T.);
#195=ORIENTED_EDGE('',*,*,#257,.F.);
#196=ORIENTED_EDGE('',*,*,#206,.T.);
#197=ORIENTED_EDGE('',*,*,#257,.T.);
#198=ORIENTED_EDGE('',*,*,#258,.F.);
#199=ORIENTED_EDGE('',*,*,#205,.T.);
#200=ORIENTED_EDGE('',*,*,#258,.T.);
#201=ORIENTED_EDGE('',*,*,#259,.F.);
#202=ORIENTED_EDGE('',*,*,#204,.T.);
#203=ORIENTED_EDGE('',*,*,#259,.T.);
#204=EDGE_CURVE('',#260,#260,#296,.T.);
#205=EDGE_CURVE('',#261,#261,#297,.T.);
#206=EDGE_CURVE('',#262,#262,#298,.T.);
#207=EDGE_CURVE('',#263,#263,#299,.T.);
#208=EDGE_CURVE('',#264,#265,#28,.T.);
#209=EDGE_CURVE('',#264,#266,#29,.T.);
#210=EDGE_CURVE('',#266,#267,#30,.T.);
#211=EDGE_CURVE('',#265,#267,#31,.T.);
#212=EDGE_CURVE('',#268,#269,#300,.F.);
#213=EDGE_CURVE('',#268,#270,#32,.T.);
#214=EDGE_CURVE('',#271,#270,#301,.F.);
#215=EDGE_CURVE('',#272,#271,#33,.T.);
#216=EDGE_CURVE('',#273,#272,#302,.F.);
#217=EDGE_CURVE('',#274,#273,#34,.T.);
#218=EDGE_CURVE('',#275,#274,#303,.F.);
#219=EDGE_CURVE('',#275,#269,#35,.T.);
#220=EDGE_CURVE('',#276,#277,#36,.F.);
#221=EDGE_CURVE('',#277,#278,#37,.T.);
#222=EDGE_CURVE('',#278,#279,#38,.T.);
#223=EDGE_CURVE('',#279,#276,#39,.F.);
#224=EDGE_CURVE('',#277,#280,#304,.F.);
#225=EDGE_CURVE('',#281,#280,#40,.F.);
#226=EDGE_CURVE('',#281,#278,#305,.F.);
#227=EDGE_CURVE('',#276,#282,#306,.F.);
#228=EDGE_CURVE('',#283,#282,#41,.T.);
#229=EDGE_CURVE('',#277,#283,#307,.T.);
#230=EDGE_CURVE('',#284,#279,#308,.T.);
#231=EDGE_CURVE('',#285,#284,#42,.T.);
#232=EDGE_CURVE('',#276,#285,#309,.T.);
#233=EDGE_CURVE('',#286,#279,#310,.F.);
#234=EDGE_CURVE('',#287,#278,#311,.T.);
#235=EDGE_CURVE('',#286,#287,#43,.F.);
#236=EDGE_CURVE('',#285,#282,#312,.T.);
#237=EDGE_CURVE('',#286,#284,#313,.T.);
#238=EDGE_CURVE('',#283,#280,#314,.T.);
#239=EDGE_CURVE('',#281,#287,#315,.T.);
#240=EDGE_CURVE('',#271,#286,#44,.T.);
#241=EDGE_CURVE('',#284,#270,#45,.F.);
#242=EDGE_CURVE('',#273,#281,#46,.T.);
#243=EDGE_CURVE('',#287,#272,#47,.F.);
#244=EDGE_CURVE('',#268,#285,#48,.T.);
#245=EDGE_CURVE('',#282,#269,#49,.F.);
#246=EDGE_CURVE('',#275,#283,#50,.T.);
#247=EDGE_CURVE('',#280,#274,#51,.F.);
#248=EDGE_CURVE('',#288,#289,#52,.T.);
#249=EDGE_CURVE('',#289,#290,#53,.T.);
#250=EDGE_CURVE('',#291,#290,#54,.T.);
#251=EDGE_CURVE('',#291,#288,#55,.T.);
#252=EDGE_CURVE('',#291,#266,#56,.T.);
#253=EDGE_CURVE('',#290,#267,#57,.T.);
#254=EDGE_CURVE('',#289,#265,#58,.T.);
#255=EDGE_CURVE('',#288,#264,#59,.T.);
#256=EDGE_CURVE('',#292,#292,#316,.T.);
#257=EDGE_CURVE('',#293,#293,#317,.T.);
#258=EDGE_CURVE('',#294,#294,#318,.T.);
#259=EDGE_CURVE('',#295,#295,#319,.T.);
#260=VERTEX_POINT('',#661);
#261=VERTEX_POINT('',#663);
#262=VERTEX_POINT('',#665);
#263=VERTEX_POINT('',#667);
#264=VERTEX_POINT('',#669);
#265=VERTEX_POINT('',#670);
#266=VERTEX_POINT('',#672);
#267=VERTEX_POINT('',#674);
#268=VERTEX_POINT('',#677);
#269=VERTEX_POINT('',#678);
#270=VERTEX_POINT('',#680);
#271=VERTEX_POINT('',#682);
#272=VERTEX_POINT('',#684);
#273=VERTEX_POINT('',#686);
#274=VERTEX_POINT('',#688);
#275=VERTEX_POINT('',#690);
#276=VERTEX_POINT('',#694);
#277=VERTEX_POINT('',#695);
#278=VERTEX_POINT('',#697);
#279=VERTEX_POINT('',#699);
#280=VERTEX_POINT('',#703);
#281=VERTEX_POINT('',#705);
#282=VERTEX_POINT('',#709);
#283=VERTEX_POINT('',#711);
#284=VERTEX_POINT('',#715);
#285=VERTEX_POINT('',#717);
#286=VERTEX_POINT('',#721);
#287=VERTEX_POINT('',#723);
#288=VERTEX_POINT('',#751);
#289=VERTEX_POINT('',#752);
#290=VERTEX_POINT('',#754);
#291=VERTEX_POINT('',#756);
#292=VERTEX_POINT('',#768);
#293=VERTEX_POINT('',#772);
#294=VERTEX_POINT('',#776);
#295=VERTEX_POINT('',#780);
#296=CIRCLE('',#460,0.002);
#297=CIRCLE('',#461,0.002);
#298=CIRCLE('',#462,0.002);
#299=CIRCLE('',#463,0.002);
#300=CIRCLE('',#464,0.003);
#301=CIRCLE('',#465,0.003);
#302=CIRCLE('',#466,0.003);
#303=CIRCLE('',#467,0.003);
#304=CIRCLE('',#470,0.003);
#305=CIRCLE('',#471,0.003);
#306=CIRCLE('',#473,0.003);
#307=CIRCLE('',#474,0.003);
#308=CIRCLE('',#476,0.003);
#309=CIRCLE('',#477,0.003);
#310=CIRCLE('',#479,0.003);
#311=CIRCLE('',#480,0.003);
#312=CIRCLE('',#482,0.003);
#313=CIRCLE('',#484,0.003);
#314=CIRCLE('',#486,0.003);
#315=CIRCLE('',#488,0.003);
#316=CIRCLE('',#503,0.002);
#317=CIRCLE('',#506,0.002);
#318=CIRCLE('',#509,0.002);
#319=CIRCLE('',#512,0.002);
#320=EDGE_LOOP('',(#92));
#321=EDGE_LOOP('',(#93));
#322=EDGE_LOOP('',(#94));
#323=EDGE_LOOP('',(#95));
#324=EDGE_LOOP('',(#96,#97,#98,#99));
#325=EDGE_LOOP('',(#100,#101,#102,#103,#104,#105,#106,#107));
#326=EDGE_LOOP('',(#108,#109,#110,#111));
#327=EDGE_LOOP('',(#112,#113,#114,#115));
#328=EDGE_LOOP('',(#116,#117,#118,#119));
#329=EDGE_LOOP('',(#120,#121,#122,#123));
#330=EDGE_LOOP('',(#124,#125,#126,#127));
#331=EDGE_LOOP('',(#128,#129,#130));
#332=EDGE_LOOP('',(#131,#132,#133));
#333=EDGE_LOOP('',(#134,#135,#136));
#334=EDGE_LOOP('',(#137,#138,#139));
#335=EDGE_LOOP('',(#140,#141,#142,#143));
#336=EDGE_LOOP('',(#144,#145,#146,#147));
#337=EDGE_LOOP('',(#148,#149,#150,#151));
#338=EDGE_LOOP('',(#152,#153,#154,#155));
#339=EDGE_LOOP('',(#156,#157,#158,#159));
#340=EDGE_LOOP('',(#160,#161,#162,#163));
#341=EDGE_LOOP('',(#164,#165,#166,#167));
#342=EDGE_LOOP('',(#168,#169,#170,#171));
#343=EDGE_LOOP('',(#172,#173,#174,#175));
#344=EDGE_LOOP('',(#176,#177,#178,#179));
#345=EDGE_LOOP('',(#180,#181,#182,#183));
#346=EDGE_LOOP('',(#184,#185,#186,#187));
#347=EDGE_LOOP('',(#188,#189,#190,#191));
#348=EDGE_LOOP('',(#192));
#349=EDGE_LOOP('',(#193));
#350=EDGE_LOOP('',(#194));
#351=EDGE_LOOP('',(#195));
#352=EDGE_LOOP('',(#196));
#353=EDGE_LOOP('',(#197));
#354=EDGE_LOOP('',(#198));
#355=EDGE_LOOP('',(#199));
#356=EDGE_LOOP('',(#200));
#357=EDGE_LOOP('',(#201));
#358=EDGE_LOOP('',(#202));
#359=EDGE_LOOP('',(#203));
#360=FACE_BOUND('',#320,.T.);
#361=FACE_BOUND('',#321,.T.);
#362=FACE_BOUND('',#322,.T.);
#363=FACE_BOUND('',#323,.T.);
#364=FACE_BOUND('',#324,.T.);
#365=FACE_BOUND('',#325,.T.);
#366=FACE_BOUND('',#326,.T.);
#367=FACE_BOUND('',#327,.T.);
#368=FACE_BOUND('',#328,.T.);
#369=FACE_BOUND('',#329,.T.);
#370=FACE_BOUND('',#330,.T.);
#371=FACE_BOUND('',#331,.T.);
#372=FACE_BOUND('',#332,.T.);
#373=FACE_BOUND('',#333,.T.);
#374=FACE_BOUND('',#334,.T.);
#375=FACE_BOUND('',#335,.T.);
#376=FACE_BOUND('',#336,.T.);
#377=FACE_BOUND('',#337,.T.);
#378=FACE_BOUND('',#338,.T.);
#379=FACE_BOUND('',#339,.T.);
#380=FACE_BOUND('',#340,.T.);
#381=FACE_BOUND('',#341,.T.);
#382=FACE_BOUND('',#342,.T.);
#383=FACE_BOUND('',#343,.T.);
#384=FACE_BOUND('',#344,.T.);
#385=FACE_BOUND('',#345,.T.);
#386=FACE_BOUND('',#346,.T.);
#387=FACE_BOUND('',#347,.T.);
#388=FACE_BOUND('',#348,.T.);
#389=FACE_BOUND('',#349,.T.);
#390=FACE_BOUND('',#350,.T.);
#391=FACE_BOUND('',#351,.T.);
#392=FACE_BOUND('',#352,.T.);
#393=FACE_BOUND('',#353,.T.);
#394=FACE_BOUND('',#354,.T.);
#395=FACE_BOUND('',#355,.T.);
#396=FACE_BOUND('',#356,.T.);
#397=FACE_BOUND('',#357,.T.);
#398=FACE_BOUND('',#358,.T.);
#399=FACE_BOUND('',#359,.T.);
#400=PLANE('',#459);
#401=PLANE('',#468);
#402=PLANE('',#491);
#403=PLANE('',#493);
#404=PLANE('',#495);
#405=PLANE('',#496);
#406=PLANE('',#497);
#407=PLANE('',#498);
#408=PLANE('',#499);
#409=PLANE('',#500);
#410=PLANE('',#501);
#411=PLANE('',#504);
#412=PLANE('',#507);
#413=PLANE('',#510);
#414=PLANE('',#513);
#415=ADVANCED_FACE('',(#360,#361,#362,#363,#364,#365),#400,.T.);
#416=ADVANCED_FACE('',(#366),#401,.F.);
#417=ADVANCED_FACE('',(#367),#16,.T.);
#418=ADVANCED_FACE('',(#368),#17,.T.);
#419=ADVANCED_FACE('',(#369),#18,.T.);
#420=ADVANCED_FACE('',(#370),#19,.T.);
#421=ADVANCED_FACE('',(#371),#12,.T.);
#422=ADVANCED_FACE('',(#372),#13,.T.);
#423=ADVANCED_FACE('',(#373),#14,.T.);
#424=ADVANCED_FACE('',(#374),#15,.T.);
#425=ADVANCED_FACE('',(#375),#20,.T.);
#426=ADVANCED_FACE('',(#376),#21,.T.);
#427=ADVANCED_FACE('',(#377),#402,.T.);
#428=ADVANCED_FACE('',(#378),#22,.T.);
#429=ADVANCED_FACE('',(#379),#403,.F.);
#430=ADVANCED_FACE('',(#380),#23,.T.);
#431=ADVANCED_FACE('',(#381),#404,.F.);
#432=ADVANCED_FACE('',(#382),#405,.T.);
#433=ADVANCED_FACE('',(#383),#406,.T.);
#434=ADVANCED_FACE('',(#384),#407,.F.);
#435=ADVANCED_FACE('',(#385),#408,.T.);
#436=ADVANCED_FACE('',(#386),#409,.T.);
#437=ADVANCED_FACE('',(#387),#410,.F.);
#438=ADVANCED_FACE('',(#388,#389),#24,.F.);
#439=ADVANCED_FACE('',(#390),#411,.T.);
#440=ADVANCED_FACE('',(#391,#392),#25,.F.);
#441=ADVANCED_FACE('',(#393),#412,.T.);
#442=ADVANCED_FACE('',(#394,#395),#26,.F.);
#443=ADVANCED_FACE('',(#396),#413,.T.);
#444=ADVANCED_FACE('',(#397,#398),#27,.F.);
#445=ADVANCED_FACE('',(#399),#414,.T.);
#446=CLOSED_SHELL('',(#415,#416,#417,#418,#419,#420,#421,#422,#423,#424,
#425,#426,#427,#428,#429,#430,#431,#432,#433,#434,#435,#436,#437,#438,#439,
#440,#441,#442,#443,#444,#445));
#447=STYLED_ITEM('',(#448),#455);
#448=PRESENTATION_STYLE_ASSIGNMENT((#449));
#449=SURFACE_STYLE_USAGE(.BOTH.,#450);
#450=SURFACE_SIDE_STYLE('',(#451));
#451=SURFACE_STYLE_FILL_AREA(#452);
#452=FILL_AREA_STYLE('',(#453));
#453=FILL_AREA_STYLE_COLOUR('',#454);
#454=COLOUR_RGB('',0.768627450980392,0.886274509803922,0.952941176470588);
#455=MANIFOLD_SOLID_BREP('Part 1',#446);
#456=SHAPE_DEFINITION_REPRESENTATION(#788,#457);
#457=SHAPE_REPRESENTATION('Part 1',(#458),#783);
#458=AXIS2_PLACEMENT_3D('',#658,#514,#515);
#459=AXIS2_PLACEMENT_3D('',#659,#516,#517);
#460=AXIS2_PLACEMENT_3D('',#660,#518,#519);
#461=AXIS2_PLACEMENT_3D('',#662,#520,#521);
#462=AXIS2_PLACEMENT_3D('',#664,#522,#523);
#463=AXIS2_PLACEMENT_3D('',#666,#524,#525);
#464=AXIS2_PLACEMENT_3D('',#676,#530,#531);
#465=AXIS2_PLACEMENT_3D('',#681,#533,#534);
#466=AXIS2_PLACEMENT_3D('',#685,#536,#537);
#467=AXIS2_PLACEMENT_3D('',#689,#539,#540);
#468=AXIS2_PLACEMENT_3D('',#692,#542,#543);
#469=AXIS2_PLACEMENT_3D('',#701,#548,#549);
#470=AXIS2_PLACEMENT_3D('',#702,#550,#551);
#471=AXIS2_PLACEMENT_3D('',#706,#553,#554);
#472=AXIS2_PLACEMENT_3D('',#707,#555,#556);
#473=AXIS2_PLACEMENT_3D('',#708,#557,#558);
#474=AXIS2_PLACEMENT_3D('',#712,#560,#561);
#475=AXIS2_PLACEMENT_3D('',#713,#562,#563);
#476=AXIS2_PLACEMENT_3D('',#714,#564,#565);
#477=AXIS2_PLACEMENT_3D('',#718,#567,#568);
#478=AXIS2_PLACEMENT_3D('',#719,#569,#570);
#479=AXIS2_PLACEMENT_3D('',#720,#571,#572);
#480=AXIS2_PLACEMENT_3D('',#722,#573,#574);
#481=AXIS2_PLACEMENT_3D('',#725,#576,#577);
#482=AXIS2_PLACEMENT_3D('',#726,#578,#579);
#483=AXIS2_PLACEMENT_3D('',#727,#580,#581);
#484=AXIS2_PLACEMENT_3D('',#728,#582,#583);
#485=AXIS2_PLACEMENT_3D('',#729,#584,#585);
#486=AXIS2_PLACEMENT_3D('',#730,#586,#587);
#487=AXIS2_PLACEMENT_3D('',#731,#588,#589);
#488=AXIS2_PLACEMENT_3D('',#732,#590,#591);
#489=AXIS2_PLACEMENT_3D('',#733,#592,#593);
#490=AXIS2_PLACEMENT_3D('',#736,#596,#597);
#491=AXIS2_PLACEMENT_3D('',#739,#600,#601);
#492=AXIS2_PLACEMENT_3D('',#740,#602,#603);
#493=AXIS2_PLACEMENT_3D('',#743,#606,#607);
#494=AXIS2_PLACEMENT_3D('',#744,#608,#609);
#495=AXIS2_PLACEMENT_3D('',#747,#612,#613);
#496=AXIS2_PLACEMENT_3D('',#748,#614,#615);
#497=AXIS2_PLACEMENT_3D('',#749,#616,#617);
#498=AXIS2_PLACEMENT_3D('',#758,#622,#623);
#499=AXIS2_PLACEMENT_3D('',#761,#626,#627);
#500=AXIS2_PLACEMENT_3D('',#763,#629,#630);
#501=AXIS2_PLACEMENT_3D('',#765,#632,#633);
#502=AXIS2_PLACEMENT_3D('',#766,#634,#635);
#503=AXIS2_PLACEMENT_3D('',#767,#636,#637);
#504=AXIS2_PLACEMENT_3D('',#769,#638,#639);
#505=AXIS2_PLACEMENT_3D('',#770,#640,#641);
#506=AXIS2_PLACEMENT_3D('',#771,#642,#643);
#507=AXIS2_PLACEMENT_3D('',#773,#644,#645);
#508=AXIS2_PLACEMENT_3D('',#774,#646,#647);
#509=AXIS2_PLACEMENT_3D('',#775,#648,#649);
#510=AXIS2_PLACEMENT_3D('',#777,#650,#651);
#511=AXIS2_PLACEMENT_3D('',#778,#652,#653);
#512=AXIS2_PLACEMENT_3D('',#779,#654,#655);
#513=AXIS2_PLACEMENT_3D('',#781,#656,#657);
#514=DIRECTION('',(0.,0.,1.));
#515=DIRECTION('',(1.,0.,0.));
#516=DIRECTION('',(0.,0.,1.));
#517=DIRECTION('',(1.,0.,0.));
#518=DIRECTION('',(0.,0.,1.));
#519=DIRECTION('',(1.,0.,0.));
#520=DIRECTION('',(0.,0.,1.));
#521=DIRECTION('',(1.,0.,0.));
#522=DIRECTION('',(0.,0.,1.));
#523=DIRECTION('',(1.,0.,0.));
#524=DIRECTION('',(0.,0.,1.));
#525=DIRECTION('',(1.,0.,0.));
#526=DIRECTION('',(0.,-1.,0.));
#527=DIRECTION('',(1.,0.,0.));
#528=DIRECTION('',(0.,-1.,0.));
#529=DIRECTION('',(1.,0.,0.));
#530=DIRECTION('',(0.,0.,1.));
#531=DIRECTION('',(1.,0.,0.));
#532=DIRECTION('',(1.,0.,0.));
#533=DIRECTION('',(0.,0.,1.));
#534=DIRECTION('',(1.,0.,0.));
#535=DIRECTION('',(0.,-1.,0.));
#536=DIRECTION('',(0.,0.,1.));
#537=DIRECTION('',(1.,0.,0.));
#538=DIRECTION('',(1.,0.,0.));
#539=DIRECTION('',(0.,0.,1.));
#540=DIRECTION('',(1.,0.,0.));
#541=DIRECTION('',(0.,-1.,0.));
#542=DIRECTION('',(0.,0.,1.));
#543=DIRECTION('',(1.,0.,0.));
#544=DIRECTION('',(0.,-1.,0.));
#545=DIRECTION('',(1.,0.,0.));
#546=DIRECTION('',(0.,-1.,0.));
#547=DIRECTION('',(1.,0.,0.));
#548=DIRECTION('',(-1.,0.,0.));
#549=DIRECTION('',(0.,0.,1.));
#550=DIRECTION('',(-1.,0.,0.));
#551=DIRECTION('',(0.,0.,1.));
#552=DIRECTION('',(1.,0.,0.));
#553=DIRECTION('',(1.,0.,0.));
#554=DIRECTION('',(0.,0.,-1.));
#555=DIRECTION('',(0.,-1.,0.));
#556=DIRECTION('',(0.,0.,-1.));
#557=DIRECTION('',(0.,-1.,0.));
#558=DIRECTION('',(0.,0.,-1.));
#559=DIRECTION('',(0.,-1.,0.));
#560=DIRECTION('',(-2.31296463463574E-15,1.,0.));
#561=DIRECTION('',(-1.,-2.31296463463574E-15,0.));
#562=DIRECTION('',(1.,0.,0.));
#563=DIRECTION('',(0.,0.,-1.));
#564=DIRECTION('',(1.,0.,0.));
#565=DIRECTION('',(0.,0.,-1.));
#566=DIRECTION('',(1.,0.,0.));
#567=DIRECTION('',(-1.,0.,0.));
#568=DIRECTION('',(0.,0.,1.));
#569=DIRECTION('',(0.,1.,0.));
#570=DIRECTION('',(0.,0.,1.));
#571=DIRECTION('',(2.31296463463574E-15,-1.,0.));
#572=DIRECTION('',(1.,2.31296463463574E-15,0.));
#573=DIRECTION('',(0.,1.,0.));
#574=DIRECTION('',(0.,0.,1.));
#575=DIRECTION('',(0.,-1.,0.));
#576=DIRECTION('',(0.,-1.,-1.15648231731787E-15));
#577=DIRECTION('',(0.,1.15648231731787E-15,-1.));
#578=DIRECTION('',(0.,0.,-1.));
#579=DIRECTION('',(-1.,0.,0.));
#580=DIRECTION('',(0.,-1.,-1.15648231731787E-15));
#581=DIRECTION('',(0.,1.15648231731787E-15,-1.));
#582=DIRECTION('',(0.,1.15648231731787E-15,-1.));
#583=DIRECTION('',(0.,1.,1.15648231731787E-15));
#584=DIRECTION('',(-1.,-2.31296463463574E-15,-1.15648231731787E-15));
#585=DIRECTION('',(2.31296463463574E-15,-1.,0.));
#586=DIRECTION('',(0.,1.15648231731787E-15,-1.));
#587=DIRECTION('',(0.,1.,1.15648231731787E-15));
#588=DIRECTION('',(1.,0.,0.));
#589=DIRECTION('',(0.,0.,-1.));
#590=DIRECTION('',(0.,0.,-1.));
#591=DIRECTION('',(-1.,0.,0.));
#592=DIRECTION('',(0.,0.,1.));
#593=DIRECTION('',(1.,0.,0.));
#594=DIRECTION('',(0.,0.,-1.));
#595=DIRECTION('',(0.,0.,-1.));
#596=DIRECTION('',(0.,0.,-1.));
#597=DIRECTION('',(-1.,0.,0.));
#598=DIRECTION('',(0.,0.,-1.));
#599=DIRECTION('',(0.,0.,-1.));
#600=DIRECTION('',(1.,0.,0.));
#601=DIRECTION('',(0.,0.,-1.));
#602=DIRECTION('',(0.,0.,-1.));
#603=DIRECTION('',(-1.,0.,0.));
#604=DIRECTION('',(0.,0.,-1.));
#605=DIRECTION('',(0.,0.,-1.));
#606=DIRECTION('',(0.,1.,0.));
#607=DIRECTION('',(0.,0.,1.));
#608=DIRECTION('',(0.,0.,1.));
#609=DIRECTION('',(1.,0.,0.));
#610=DIRECTION('',(0.,0.,-1.));
#611=DIRECTION('',(0.,0.,-1.));
#612=DIRECTION('',(1.,0.,0.));
#613=DIRECTION('',(0.,0.,-1.));
#614=DIRECTION('',(0.,1.,0.));
#615=DIRECTION('',(0.,0.,1.));
#616=DIRECTION('',(0.,0.,1.));
#617=DIRECTION('',(1.,0.,0.));
#618=DIRECTION('',(0.,-1.,0.));
#619=DIRECTION('',(1.,0.,0.));
#620=DIRECTION('',(0.,-1.,0.));
#621=DIRECTION('',(-1.,0.,0.));
#622=DIRECTION('',(1.,0.,0.));
#623=DIRECTION('',(0.,0.,-1.));
#624=DIRECTION('',(0.,0.,1.));
#625=DIRECTION('',(0.,0.,1.));
#626=DIRECTION('',(0.,1.,0.));
#627=DIRECTION('',(0.,0.,1.));
#628=DIRECTION('',(0.,0.,1.));
#629=DIRECTION('',(1.,0.,0.));
#630=DIRECTION('',(0.,0.,-1.));
#631=DIRECTION('',(0.,0.,1.));
#632=DIRECTION('',(0.,1.,0.));
#633=DIRECTION('',(0.,0.,1.));
#634=DIRECTION('',(0.,0.,1.));
#635=DIRECTION('',(1.,0.,0.));
#636=DIRECTION('',(0.,0.,1.));
#637=DIRECTION('',(1.,0.,0.));
#638=DIRECTION('',(0.,0.,1.));
#639=DIRECTION('',(1.,0.,0.));
#640=DIRECTION('',(0.,0.,1.));
#641=DIRECTION('',(1.,0.,0.));
#642=DIRECTION('',(0.,0.,1.));
#643=DIRECTION('',(1.,0.,0.));
#644=DIRECTION('',(0.,0.,1.));
#645=DIRECTION('',(1.,0.,0.));
#646=DIRECTION('',(0.,0.,1.));
#647=DIRECTION('',(1.,0.,0.));
#648=DIRECTION('',(0.,0.,1.));
#649=DIRECTION('',(1.,0.,0.));
#650=DIRECTION('',(0.,0.,1.));
#651=DIRECTION('',(1.,0.,0.));
#652=DIRECTION('',(0.,0.,1.));
#653=DIRECTION('',(1.,0.,0.));
#654=DIRECTION('',(0.,0.,1.));
#655=DIRECTION('',(1.,0.,0.));
#656=DIRECTION('',(0.,0.,1.));
#657=DIRECTION('',(1.,0.,0.));
#658=CARTESIAN_POINT('',(0.,0.,0.));
#659=CARTESIAN_POINT('',(0.,0.,0.));
#660=CARTESIAN_POINT('',(0.0565075222519403,-0.0348659362537915,0.));
#661=CARTESIAN_POINT('',(0.0585075222519403,-0.0348659362537915,0.));
#662=CARTESIAN_POINT('',(0.0565075222519403,0.0348659362537915,0.));
#663=CARTESIAN_POINT('',(0.0585075222519403,0.0348659362537915,0.));
#664=CARTESIAN_POINT('',(-0.0565075222519403,0.0348659362537915,0.));
#665=CARTESIAN_POINT('',(-0.0545075222519403,0.0348659362537915,0.));
#666=CARTESIAN_POINT('',(-0.0565075222519403,-0.0348659362537915,0.));
#667=CARTESIAN_POINT('',(-0.0545075222519403,-0.0348659362537915,0.));
#668=CARTESIAN_POINT('',(-0.0545075222519403,0.,0.));
#669=CARTESIAN_POINT('',(-0.0545075222519403,0.0328659362537915,0.));
#670=CARTESIAN_POINT('',(-0.0545075222519403,-0.0328659362537915,0.));
#671=CARTESIAN_POINT('',(0.,0.0328659362537915,0.));
#672=CARTESIAN_POINT('',(0.0545075222519403,0.0328659362537915,0.));
#673=CARTESIAN_POINT('',(0.0545075222519403,0.,0.));
#674=CARTESIAN_POINT('',(0.0545075222519403,-0.0328659362537915,0.));
#675=CARTESIAN_POINT('',(0.,-0.0328659362537915,0.));
#676=CARTESIAN_POINT('',(-0.0565075222519403,-0.0348659362537915,0.));
#677=CARTESIAN_POINT('',(-0.0565075222519403,-0.0378659362537914,0.));
#678=CARTESIAN_POINT('',(-0.0595075222519403,-0.0348659362537915,0.));
#679=CARTESIAN_POINT('',(0.,-0.0378659362537914,0.));
#680=CARTESIAN_POINT('',(0.0565075222519403,-0.0378659362537914,0.));
#681=CARTESIAN_POINT('',(0.0565075222519403,-0.0348659362537915,0.));
#682=CARTESIAN_POINT('',(0.0595075222519403,-0.0348659362537915,0.));
#683=CARTESIAN_POINT('',(0.0595075222519403,0.,0.));
#684=CARTESIAN_POINT('',(0.0595075222519403,0.0348659362537915,0.));
#685=CARTESIAN_POINT('',(0.0565075222519403,0.0348659362537915,0.));
#686=CARTESIAN_POINT('',(0.0565075222519403,0.0378659362537914,0.));
#687=CARTESIAN_POINT('',(0.,0.0378659362537914,0.));
#688=CARTESIAN_POINT('',(-0.0565075222519403,0.0378659362537914,0.));
#689=CARTESIAN_POINT('',(-0.0565075222519403,0.0348659362537915,0.));
#690=CARTESIAN_POINT('',(-0.0595075222519403,0.0348659362537915,0.));
#691=CARTESIAN_POINT('',(-0.0595075222519403,0.,0.));
#692=CARTESIAN_POINT('',(0.,0.,-0.01905));
#693=CARTESIAN_POINT('',(-0.0565075222519403,0.,-0.01905));
#694=CARTESIAN_POINT('',(-0.0565075222519403,-0.0348659362537915,-0.01905));
#695=CARTESIAN_POINT('',(-0.0565075222519403,0.0348659362537915,-0.01905));
#696=CARTESIAN_POINT('',(0.0595075222519403,0.0348659362537915,-0.01905));
#697=CARTESIAN_POINT('',(0.0565075222519403,0.0348659362537915,-0.01905));
#698=CARTESIAN_POINT('',(0.0565075222519403,-0.0378659362537914,-0.01905));
#699=CARTESIAN_POINT('',(0.0565075222519403,-0.0348659362537915,-0.01905));
#700=CARTESIAN_POINT('',(0.,-0.0348659362537915,-0.01905));
#701=CARTESIAN_POINT('',(0.,0.0348659362537915,-0.01605));
#702=CARTESIAN_POINT('',(-0.0565075222519403,0.0348659362537915,-0.01605));
#703=CARTESIAN_POINT('',(-0.0565075222519403,0.0378659362537914,-0.01605));
#704=CARTESIAN_POINT('',(-0.0595075222519403,0.0378659362537914,-0.01605));
#705=CARTESIAN_POINT('',(0.0565075222519403,0.0378659362537914,-0.01605));
#706=CARTESIAN_POINT('',(0.0565075222519403,0.0348659362537915,-0.01605));
#707=CARTESIAN_POINT('',(-0.0565075222519403,0.,-0.01605));
#708=CARTESIAN_POINT('',(-0.0565075222519403,-0.0348659362537915,-0.01605));
#709=CARTESIAN_POINT('',(-0.0595075222519403,-0.0348659362537915,-0.01605));
#710=CARTESIAN_POINT('',(-0.0595075222519403,0.,-0.01605));
#711=CARTESIAN_POINT('',(-0.0595075222519403,0.0348659362537915,-0.01605));
#712=CARTESIAN_POINT('',(-0.0565075222519403,0.0348659362537915,-0.01605));
#713=CARTESIAN_POINT('',(0.,-0.0348659362537915,-0.01605));
#714=CARTESIAN_POINT('',(0.0565075222519403,-0.0348659362537915,-0.01605));
#715=CARTESIAN_POINT('',(0.0565075222519403,-0.0378659362537914,-0.01605));
#716=CARTESIAN_POINT('',(0.,-0.0378659362537914,-0.01605));
#717=CARTESIAN_POINT('',(-0.0565075222519403,-0.0378659362537914,-0.01605));
#718=CARTESIAN_POINT('',(-0.0565075222519403,-0.0348659362537915,-0.01605));
#719=CARTESIAN_POINT('',(0.0565075222519403,0.,-0.01605));
#720=CARTESIAN_POINT('',(0.0565075222519403,-0.0348659362537915,-0.01605));
#721=CARTESIAN_POINT('',(0.0595075222519403,-0.0348659362537915,-0.01605));
#722=CARTESIAN_POINT('',(0.0565075222519403,0.0348659362537915,-0.01605));
#723=CARTESIAN_POINT('',(0.0595075222519403,0.0348659362537915,-0.01605));
#724=CARTESIAN_POINT('',(0.0595075222519403,0.0378659362537914,-0.01605));
#725=CARTESIAN_POINT('',(-0.0565075222519403,-0.0348659362537915,-0.01605));
#726=CARTESIAN_POINT('',(-0.0565075222519403,-0.0348659362537915,-0.01605));
#727=CARTESIAN_POINT('',(0.0565075222519403,-0.0348659362537915,-0.01605));
#728=CARTESIAN_POINT('',(0.0565075222519403,-0.0348659362537915,-0.01605));
#729=CARTESIAN_POINT('',(-0.0565075222519403,0.0348659362537915,-0.01605));
#730=CARTESIAN_POINT('',(-0.0565075222519403,0.0348659362537915,-0.01605));
#731=CARTESIAN_POINT('',(0.0565075222519403,0.0348659362537915,-0.01605));
#732=CARTESIAN_POINT('',(0.0565075222519403,0.0348659362537915,-0.01605));
#733=CARTESIAN_POINT('',(0.0565075222519403,-0.0348659362537915,0.01905));
#734=CARTESIAN_POINT('',(0.0595075222519403,-0.0348659362537915,-0.01905));
#735=CARTESIAN_POINT('',(0.0565075222519403,-0.0378659362537914,0.01905));
#736=CARTESIAN_POINT('',(0.0565075222519403,0.0348659362537915,0.01905));
#737=CARTESIAN_POINT('',(0.0565075222519403,0.0378659362537914,0.01905));
#738=CARTESIAN_POINT('',(0.0595075222519403,0.0348659362537915,0.01905));
#739=CARTESIAN_POINT('',(0.0595075222519403,0.,0.01905));
#740=CARTESIAN_POINT('',(-0.0565075222519403,-0.0348659362537915,0.01905));
#741=CARTESIAN_POINT('',(-0.0565075222519403,-0.0378659362537914,0.01905));
#742=CARTESIAN_POINT('',(-0.0595075222519403,-0.0348659362537915,0.01905));
#743=CARTESIAN_POINT('',(0.,-0.0378659362537914,0.01905));
#744=CARTESIAN_POINT('',(-0.0565075222519403,0.0348659362537915,0.01905));
#745=CARTESIAN_POINT('',(-0.0595075222519403,0.0348659362537915,-0.01905));
#746=CARTESIAN_POINT('',(-0.0565075222519403,0.0378659362537914,0.01905));
#747=CARTESIAN_POINT('',(-0.0595075222519403,0.,0.01905));
#748=CARTESIAN_POINT('',(0.,0.0378659362537914,0.01905));
#749=CARTESIAN_POINT('',(0.,0.,-0.01405));
#750=CARTESIAN_POINT('',(-0.0545075222519403,0.,-0.01405));
#751=CARTESIAN_POINT('',(-0.0545075222519403,0.0328659362537915,-0.01405));
#752=CARTESIAN_POINT('',(-0.0545075222519403,-0.0328659362537915,-0.01405));
#753=CARTESIAN_POINT('',(0.,-0.0328659362537915,-0.01405));
#754=CARTESIAN_POINT('',(0.0545075222519403,-0.0328659362537915,-0.01405));
#755=CARTESIAN_POINT('',(0.0545075222519403,0.,-0.01405));
#756=CARTESIAN_POINT('',(0.0545075222519403,0.0328659362537915,-0.01405));
#757=CARTESIAN_POINT('',(0.,0.0328659362537915,-0.01405));
#758=CARTESIAN_POINT('',(0.0545075222519403,0.,0.01905));
#759=CARTESIAN_POINT('',(0.0545075222519403,0.0328659362537915,0.01905));
#760=CARTESIAN_POINT('',(0.0545075222519403,-0.0328659362537915,0.01905));
#761=CARTESIAN_POINT('',(0.,-0.0328659362537915,0.01905));
#762=CARTESIAN_POINT('',(-0.0545075222519403,-0.0328659362537915,0.01905));
#763=CARTESIAN_POINT('',(-0.0545075222519403,0.,0.01905));
#764=CARTESIAN_POINT('',(-0.0545075222519403,0.0328659362537915,0.01905));
#765=CARTESIAN_POINT('',(0.,0.0328659362537915,0.01905));
#766=CARTESIAN_POINT('',(-0.0565075222519403,-0.0348659362537915,-0.006));
#767=CARTESIAN_POINT('',(-0.0565075222519403,-0.0348659362537915,-0.006));
#768=CARTESIAN_POINT('',(-0.0545075222519403,-0.0348659362537915,-0.006));
#769=CARTESIAN_POINT('',(0.,0.,-0.006));
#770=CARTESIAN_POINT('',(-0.0565075222519403,0.0348659362537915,-0.006));
#771=CARTESIAN_POINT('',(-0.0565075222519403,0.0348659362537915,-0.006));
#772=CARTESIAN_POINT('',(-0.0545075222519403,0.0348659362537915,-0.006));
#773=CARTESIAN_POINT('',(0.,0.,-0.006));
#774=CARTESIAN_POINT('',(0.0565075222519403,0.0348659362537915,-0.006));
#775=CARTESIAN_POINT('',(0.0565075222519403,0.0348659362537915,-0.006));
#776=CARTESIAN_POINT('',(0.0585075222519403,0.0348659362537915,-0.006));
#777=CARTESIAN_POINT('',(0.,0.,-0.006));
#778=CARTESIAN_POINT('',(0.0565075222519403,-0.0348659362537915,-0.006));
#779=CARTESIAN_POINT('',(0.0565075222519403,-0.0348659362537915,-0.006));
#780=CARTESIAN_POINT('',(0.0585075222519403,-0.0348659362537915,-0.006));
#781=CARTESIAN_POINT('',(0.,0.,-0.006));
#782=MECHANICAL_DESIGN_GEOMETRIC_PRESENTATION_REPRESENTATION('',(#447),
#783);
#783=(
GEOMETRIC_REPRESENTATION_CONTEXT(3)
GLOBAL_UNCERTAINTY_ASSIGNED_CONTEXT((#784))
GLOBAL_UNIT_ASSIGNED_CONTEXT((#787,#786,#785))
REPRESENTATION_CONTEXT('Part 1','TOP_LEVEL_ASSEMBLY_PART')
);
#784=UNCERTAINTY_MEASURE_WITH_UNIT(LENGTH_MEASURE(1.E-8),#787,
'DISTANCE_ACCURACY_VALUE','Maximum Tolerance applied to model');
#785=(
NAMED_UNIT(*)
SI_UNIT($,.STERADIAN.)
SOLID_ANGLE_UNIT()
);
#786=(
NAMED_UNIT(*)
PLANE_ANGLE_UNIT()
SI_UNIT($,.RADIAN.)
);
#787=(
LENGTH_UNIT()
NAMED_UNIT(*)
SI_UNIT($,.METRE.)
);
#788=PRODUCT_DEFINITION_SHAPE('','',#789);
#789=PRODUCT_DEFINITION('','',#791,#790);
#790=PRODUCT_DEFINITION_CONTEXT('',#797,'design');
#791=PRODUCT_DEFINITION_FORMATION_WITH_SPECIFIED_SOURCE('','',#793,
 .NOT_KNOWN.);
#792=PRODUCT_RELATED_PRODUCT_CATEGORY('','',(#793));
#793=PRODUCT('Part 1','Part 1','Part 1',(#795));
#794=PRODUCT_CATEGORY('','');
#795=PRODUCT_CONTEXT('',#797,'mechanical');
#796=APPLICATION_PROTOCOL_DEFINITION('international standard',
'ap242_managed_model_based_3d_engineering',2020,#797);
#797=APPLICATION_CONTEXT('managed model based 3d engineering');
ENDSEC;
END-ISO-10303-21;
