ISO-10303-21;
HEADER;
/* Generated by software containing ST-Developer
 * from STEP Tools, Inc. (www.steptools.com) 
 */
/* OPTION: using custom renumber hook */

FILE_DESCRIPTION(
/* description */ ('STEP AP242 Edition 2',
'CAx-IF Rec.Pracs.---Representation and Presentation of Product Manufa
cturing Information (PMI)---4.0---2014-10-13',
'CAx-IF Rec.Pracs.---3D Tessellated Geometry---0.4---2014-09-14','2;1',
'CAx-IF Rec.Pracs.---User Defined Attributes---1.5---2016-08-15'),
/* implementation_level */ '2;1');

FILE_NAME(
/* name */ 'Part Studio 1',
/* time_stamp */ '2026-09-28T16:21:59Z',
/* author */ (''),
/* organization */ (''),
/* preprocessor_version */ 'ST-DEVELOPER v20',
/* originating_system */ 'ONSHAPE BY PTC INC, 1.221',
/* authorisation */ '  ');

FILE_SCHEMA (('AP242_MANAGED_MODEL_BASED_3D_ENGINEERING_MIM_LF { 1 0 10303 442 3 1 4 }'));
ENDSEC;

DATA;
#10=SHAPE_REPRESENTATION_RELATIONSHIP('','',#622,#11);
#11=ADVANCED_BREP_SHAPE_REPRESENTATION('',(#620),#989);
#12=CYLINDRICAL_SURFACE('',#656,0.0035311165353451);
#13=CYLINDRICAL_SURFACE('',#657,0.00260663514193558);
#14=CYLINDRICAL_SURFACE('',#660,0.00289061814751844);
#15=CYLINDRICAL_SURFACE('',#663,0.00351317512297346);
#16=CIRCLE('',#628,0.00289061814751844);
#17=CIRCLE('',#629,0.00351317512297346);
#18=CIRCLE('',#632,0.00260663514193558);
#19=CIRCLE('',#633,0.0035311165353451);
#20=CIRCLE('',#640,0.00351317512297346);
#21=CIRCLE('',#644,0.00289061814751844);
#22=CIRCLE('',#648,0.00260663514193558);
#23=CIRCLE('',#652,0.0035311165353451);
#24=CIRCLE('',#655,0.0035311165353451);
#25=CIRCLE('',#659,0.00289061814751844);
#26=CIRCLE('',#662,0.00351317512297346);
#27=ORIENTED_EDGE('',*,*,#193,.F.);
#28=ORIENTED_EDGE('',*,*,#194,.T.);
#29=ORIENTED_EDGE('',*,*,#195,.T.);
#30=ORIENTED_EDGE('',*,*,#196,.F.);
#31=ORIENTED_EDGE('',*,*,#197,.F.);
#32=ORIENTED_EDGE('',*,*,#198,.T.);
#33=ORIENTED_EDGE('',*,*,#199,.F.);
#34=ORIENTED_EDGE('',*,*,#200,.F.);
#35=ORIENTED_EDGE('',*,*,#201,.F.);
#36=ORIENTED_EDGE('',*,*,#202,.T.);
#37=ORIENTED_EDGE('',*,*,#203,.F.);
#38=ORIENTED_EDGE('',*,*,#204,.T.);
#39=ORIENTED_EDGE('',*,*,#205,.T.);
#40=ORIENTED_EDGE('',*,*,#206,.F.);
#41=ORIENTED_EDGE('',*,*,#207,.T.);
#42=ORIENTED_EDGE('',*,*,#208,.T.);
#43=ORIENTED_EDGE('',*,*,#209,.F.);
#44=ORIENTED_EDGE('',*,*,#210,.T.);
#45=ORIENTED_EDGE('',*,*,#211,.F.);
#46=ORIENTED_EDGE('',*,*,#212,.T.);
#47=ORIENTED_EDGE('',*,*,#213,.F.);
#48=ORIENTED_EDGE('',*,*,#214,.F.);
#49=ORIENTED_EDGE('',*,*,#215,.T.);
#50=ORIENTED_EDGE('',*,*,#216,.T.);
#51=ORIENTED_EDGE('',*,*,#217,.F.);
#52=ORIENTED_EDGE('',*,*,#218,.T.);
#53=ORIENTED_EDGE('',*,*,#219,.T.);
#54=ORIENTED_EDGE('',*,*,#220,.F.);
#55=ORIENTED_EDGE('',*,*,#221,.F.);
#56=ORIENTED_EDGE('',*,*,#222,.T.);
#57=ORIENTED_EDGE('',*,*,#223,.F.);
#58=ORIENTED_EDGE('',*,*,#224,.T.);
#59=ORIENTED_EDGE('',*,*,#225,.F.);
#60=ORIENTED_EDGE('',*,*,#226,.T.);
#61=ORIENTED_EDGE('',*,*,#227,.T.);
#62=ORIENTED_EDGE('',*,*,#228,.T.);
#63=ORIENTED_EDGE('',*,*,#204,.F.);
#64=ORIENTED_EDGE('',*,*,#229,.F.);
#65=ORIENTED_EDGE('',*,*,#230,.F.);
#66=ORIENTED_EDGE('',*,*,#231,.F.);
#67=ORIENTED_EDGE('',*,*,#193,.T.);
#68=ORIENTED_EDGE('',*,*,#232,.T.);
#69=ORIENTED_EDGE('',*,*,#233,.F.);
#70=ORIENTED_EDGE('',*,*,#234,.T.);
#71=ORIENTED_EDGE('',*,*,#235,.F.);
#72=ORIENTED_EDGE('',*,*,#236,.F.);
#73=ORIENTED_EDGE('',*,*,#231,.T.);
#74=ORIENTED_EDGE('',*,*,#237,.T.);
#75=ORIENTED_EDGE('',*,*,#238,.T.);
#76=ORIENTED_EDGE('',*,*,#221,.T.);
#77=ORIENTED_EDGE('',*,*,#239,.F.);
#78=ORIENTED_EDGE('',*,*,#240,.T.);
#79=ORIENTED_EDGE('',*,*,#241,.F.);
#80=ORIENTED_EDGE('',*,*,#194,.F.);
#81=ORIENTED_EDGE('',*,*,#241,.T.);
#82=ORIENTED_EDGE('',*,*,#242,.T.);
#83=ORIENTED_EDGE('',*,*,#243,.T.);
#84=ORIENTED_EDGE('',*,*,#214,.T.);
#85=ORIENTED_EDGE('',*,*,#244,.F.);
#86=ORIENTED_EDGE('',*,*,#245,.T.);
#87=ORIENTED_EDGE('',*,*,#246,.F.);
#88=ORIENTED_EDGE('',*,*,#195,.F.);
#89=ORIENTED_EDGE('',*,*,#247,.F.);
#90=ORIENTED_EDGE('',*,*,#248,.F.);
#91=ORIENTED_EDGE('',*,*,#207,.F.);
#92=ORIENTED_EDGE('',*,*,#249,.F.);
#93=ORIENTED_EDGE('',*,*,#250,.F.);
#94=ORIENTED_EDGE('',*,*,#232,.F.);
#95=ORIENTED_EDGE('',*,*,#196,.T.);
#96=ORIENTED_EDGE('',*,*,#246,.T.);
#97=ORIENTED_EDGE('',*,*,#251,.F.);
#98=ORIENTED_EDGE('',*,*,#252,.T.);
#99=ORIENTED_EDGE('',*,*,#225,.T.);
#100=ORIENTED_EDGE('',*,*,#253,.T.);
#101=ORIENTED_EDGE('',*,*,#198,.F.);
#102=ORIENTED_EDGE('',*,*,#254,.F.);
#103=ORIENTED_EDGE('',*,*,#254,.T.);
#104=ORIENTED_EDGE('',*,*,#197,.T.);
#105=ORIENTED_EDGE('',*,*,#255,.F.);
#106=ORIENTED_EDGE('',*,*,#226,.F.);
#107=ORIENTED_EDGE('',*,*,#255,.T.);
#108=ORIENTED_EDGE('',*,*,#200,.T.);
#109=ORIENTED_EDGE('',*,*,#256,.F.);
#110=ORIENTED_EDGE('',*,*,#227,.F.);
#111=ORIENTED_EDGE('',*,*,#256,.T.);
#112=ORIENTED_EDGE('',*,*,#199,.T.);
#113=ORIENTED_EDGE('',*,*,#253,.F.);
#114=ORIENTED_EDGE('',*,*,#228,.F.);
#115=ORIENTED_EDGE('',*,*,#220,.T.);
#116=ORIENTED_EDGE('',*,*,#257,.F.);
#117=ORIENTED_EDGE('',*,*,#258,.F.);
#118=ORIENTED_EDGE('',*,*,#239,.T.);
#119=ORIENTED_EDGE('',*,*,#259,.F.);
#120=ORIENTED_EDGE('',*,*,#215,.F.);
#121=ORIENTED_EDGE('',*,*,#243,.F.);
#122=ORIENTED_EDGE('',*,*,#260,.T.);
#123=ORIENTED_EDGE('',*,*,#257,.T.);
#124=ORIENTED_EDGE('',*,*,#219,.F.);
#125=ORIENTED_EDGE('',*,*,#240,.F.);
#126=ORIENTED_EDGE('',*,*,#258,.T.);
#127=ORIENTED_EDGE('',*,*,#260,.F.);
#128=ORIENTED_EDGE('',*,*,#242,.F.);
#129=ORIENTED_EDGE('',*,*,#222,.F.);
#130=ORIENTED_EDGE('',*,*,#238,.F.);
#131=ORIENTED_EDGE('',*,*,#261,.T.);
#132=ORIENTED_EDGE('',*,*,#262,.T.);
#133=ORIENTED_EDGE('',*,*,#203,.T.);
#134=ORIENTED_EDGE('',*,*,#263,.T.);
#135=ORIENTED_EDGE('',*,*,#223,.T.);
#136=ORIENTED_EDGE('',*,*,#262,.F.);
#137=ORIENTED_EDGE('',*,*,#264,.F.);
#138=ORIENTED_EDGE('',*,*,#229,.T.);
#139=ORIENTED_EDGE('',*,*,#261,.F.);
#140=ORIENTED_EDGE('',*,*,#237,.F.);
#141=ORIENTED_EDGE('',*,*,#230,.T.);
#142=ORIENTED_EDGE('',*,*,#264,.T.);
#143=ORIENTED_EDGE('',*,*,#206,.T.);
#144=ORIENTED_EDGE('',*,*,#265,.F.);
#145=ORIENTED_EDGE('',*,*,#266,.F.);
#146=ORIENTED_EDGE('',*,*,#249,.T.);
#147=ORIENTED_EDGE('',*,*,#267,.F.);
#148=ORIENTED_EDGE('',*,*,#205,.F.);
#149=ORIENTED_EDGE('',*,*,#234,.F.);
#150=ORIENTED_EDGE('',*,*,#268,.T.);
#151=ORIENTED_EDGE('',*,*,#265,.T.);
#152=ORIENTED_EDGE('',*,*,#250,.T.);
#153=ORIENTED_EDGE('',*,*,#266,.T.);
#154=ORIENTED_EDGE('',*,*,#268,.F.);
#155=ORIENTED_EDGE('',*,*,#233,.T.);
#156=ORIENTED_EDGE('',*,*,#208,.F.);
#157=ORIENTED_EDGE('',*,*,#252,.F.);
#158=ORIENTED_EDGE('',*,*,#269,.T.);
#159=ORIENTED_EDGE('',*,*,#270,.T.);
#160=ORIENTED_EDGE('',*,*,#213,.T.);
#161=ORIENTED_EDGE('',*,*,#271,.T.);
#162=ORIENTED_EDGE('',*,*,#209,.T.);
#163=ORIENTED_EDGE('',*,*,#270,.F.);
#164=ORIENTED_EDGE('',*,*,#272,.F.);
#165=ORIENTED_EDGE('',*,*,#244,.T.);
#166=ORIENTED_EDGE('',*,*,#269,.F.);
#167=ORIENTED_EDGE('',*,*,#251,.T.);
#168=ORIENTED_EDGE('',*,*,#245,.F.);
#169=ORIENTED_EDGE('',*,*,#272,.T.);
#170=ORIENTED_EDGE('',*,*,#211,.T.);
#171=ORIENTED_EDGE('',*,*,#273,.T.);
#172=ORIENTED_EDGE('',*,*,#248,.T.);
#173=ORIENTED_EDGE('',*,*,#273,.F.);
#174=ORIENTED_EDGE('',*,*,#210,.F.);
#175=ORIENTED_EDGE('',*,*,#271,.F.);
#176=ORIENTED_EDGE('',*,*,#212,.F.);
#177=ORIENTED_EDGE('',*,*,#267,.T.);
#178=ORIENTED_EDGE('',*,*,#247,.T.);
#179=ORIENTED_EDGE('',*,*,#201,.T.);
#180=ORIENTED_EDGE('',*,*,#274,.T.);
#181=ORIENTED_EDGE('',*,*,#235,.T.);
#182=ORIENTED_EDGE('',*,*,#274,.F.);
#183=ORIENTED_EDGE('',*,*,#224,.F.);
#184=ORIENTED_EDGE('',*,*,#263,.F.);
#185=ORIENTED_EDGE('',*,*,#202,.F.);
#186=ORIENTED_EDGE('',*,*,#217,.T.);
#187=ORIENTED_EDGE('',*,*,#275,.T.);
#188=ORIENTED_EDGE('',*,*,#236,.T.);
#189=ORIENTED_EDGE('',*,*,#275,.F.);
#190=ORIENTED_EDGE('',*,*,#216,.F.);
#191=ORIENTED_EDGE('',*,*,#259,.T.);
#192=ORIENTED_EDGE('',*,*,#218,.F.);
#193=EDGE_CURVE('',#276,#277,#333,.T.);
#194=EDGE_CURVE('',#276,#278,#334,.T.);
#195=EDGE_CURVE('',#278,#279,#335,.T.);
#196=EDGE_CURVE('',#277,#279,#336,.T.);
#197=EDGE_CURVE('',#280,#281,#337,.T.);
#198=EDGE_CURVE('',#280,#282,#338,.T.);
#199=EDGE_CURVE('',#283,#282,#339,.T.);
#200=EDGE_CURVE('',#281,#283,#340,.T.);
#201=EDGE_CURVE('',#284,#285,#341,.T.);
#202=EDGE_CURVE('',#284,#286,#342,.T.);
#203=EDGE_CURVE('',#287,#286,#343,.T.);
#204=EDGE_CURVE('',#287,#288,#344,.T.);
#205=EDGE_CURVE('',#288,#289,#345,.T.);
#206=EDGE_CURVE('',#290,#289,#346,.T.);
#207=EDGE_CURVE('',#290,#291,#347,.T.);
#208=EDGE_CURVE('',#291,#292,#348,.T.);
#209=EDGE_CURVE('',#293,#292,#349,.T.);
#210=EDGE_CURVE('',#293,#294,#350,.F.);
#211=EDGE_CURVE('',#295,#294,#351,.T.);
#212=EDGE_CURVE('',#295,#296,#352,.T.);
#213=EDGE_CURVE('',#297,#296,#353,.T.);
#214=EDGE_CURVE('',#298,#297,#354,.T.);
#215=EDGE_CURVE('',#298,#299,#355,.T.);
#216=EDGE_CURVE('',#299,#300,#356,.F.);
#217=EDGE_CURVE('',#301,#300,#357,.T.);
#218=EDGE_CURVE('',#301,#302,#358,.T.);
#219=EDGE_CURVE('',#302,#303,#359,.T.);
#220=EDGE_CURVE('',#304,#303,#360,.T.);
#221=EDGE_CURVE('',#305,#304,#361,.T.);
#222=EDGE_CURVE('',#305,#306,#362,.T.);
#223=EDGE_CURVE('',#307,#306,#363,.T.);
#224=EDGE_CURVE('',#307,#285,#364,.F.);
#225=EDGE_CURVE('',#308,#309,#365,.T.);
#226=EDGE_CURVE('',#308,#310,#366,.T.);
#227=EDGE_CURVE('',#310,#311,#367,.T.);
#228=EDGE_CURVE('',#311,#309,#368,.T.);
#229=EDGE_CURVE('',#312,#287,#369,.T.);
#230=EDGE_CURVE('',#313,#312,#370,.T.);
#231=EDGE_CURVE('',#276,#313,#371,.T.);
#232=EDGE_CURVE('',#277,#314,#372,.T.);
#233=EDGE_CURVE('',#315,#314,#373,.T.);
#234=EDGE_CURVE('',#315,#288,#374,.T.);
#235=EDGE_CURVE('',#316,#316,#16,.T.);
#236=EDGE_CURVE('',#317,#317,#17,.T.);
#237=EDGE_CURVE('',#313,#318,#375,.T.);
#238=EDGE_CURVE('',#318,#305,#376,.T.);
#239=EDGE_CURVE('',#319,#304,#377,.T.);
#240=EDGE_CURVE('',#319,#320,#378,.T.);
#241=EDGE_CURVE('',#278,#320,#379,.T.);
#242=EDGE_CURVE('',#320,#321,#380,.T.);
#243=EDGE_CURVE('',#321,#298,#381,.T.);
#244=EDGE_CURVE('',#322,#297,#382,.T.);
#245=EDGE_CURVE('',#322,#323,#383,.T.);
#246=EDGE_CURVE('',#279,#323,#384,.T.);
#247=EDGE_CURVE('',#324,#324,#18,.T.);
#248=EDGE_CURVE('',#325,#325,#19,.T.);
#249=EDGE_CURVE('',#326,#290,#385,.T.);
#250=EDGE_CURVE('',#314,#326,#386,.T.);
#251=EDGE_CURVE('',#327,#323,#387,.T.);
#252=EDGE_CURVE('',#327,#291,#388,.T.);
#253=EDGE_CURVE('',#309,#282,#389,.T.);
#254=EDGE_CURVE('',#308,#280,#390,.T.);
#255=EDGE_CURVE('',#310,#281,#391,.T.);
#256=EDGE_CURVE('',#311,#283,#392,.T.);
#257=EDGE_CURVE('',#328,#303,#393,.T.);
#258=EDGE_CURVE('',#319,#328,#394,.T.);
#259=EDGE_CURVE('',#299,#302,#20,.T.);
#260=EDGE_CURVE('',#321,#328,#395,.T.);
#261=EDGE_CURVE('',#318,#329,#396,.T.);
#262=EDGE_CURVE('',#329,#306,#397,.T.);
#263=EDGE_CURVE('',#286,#307,#21,.T.);
#264=EDGE_CURVE('',#312,#329,#398,.T.);
#265=EDGE_CURVE('',#330,#289,#399,.T.);
#266=EDGE_CURVE('',#326,#330,#400,.T.);
#267=EDGE_CURVE('',#331,#331,#22,.T.);
#268=EDGE_CURVE('',#315,#330,#401,.T.);
#269=EDGE_CURVE('',#327,#332,#402,.T.);
#270=EDGE_CURVE('',#332,#292,#403,.T.);
#271=EDGE_CURVE('',#296,#293,#23,.T.);
#272=EDGE_CURVE('',#322,#332,#404,.T.);
#273=EDGE_CURVE('',#294,#295,#24,.T.);
#274=EDGE_CURVE('',#285,#284,#25,.T.);
#275=EDGE_CURVE('',#300,#301,#26,.T.);
#276=VERTEX_POINT('',#821);
#277=VERTEX_POINT('',#822);
#278=VERTEX_POINT('',#824);
#279=VERTEX_POINT('',#826);
#280=VERTEX_POINT('',#829);
#281=VERTEX_POINT('',#830);
#282=VERTEX_POINT('',#832);
#283=VERTEX_POINT('',#834);
#284=VERTEX_POINT('',#838);
#285=VERTEX_POINT('',#839);
#286=VERTEX_POINT('',#841);
#287=VERTEX_POINT('',#843);
#288=VERTEX_POINT('',#845);
#289=VERTEX_POINT('',#847);
#290=VERTEX_POINT('',#849);
#291=VERTEX_POINT('',#851);
#292=VERTEX_POINT('',#853);
#293=VERTEX_POINT('',#855);
#294=VERTEX_POINT('',#857);
#295=VERTEX_POINT('',#859);
#296=VERTEX_POINT('',#861);
#297=VERTEX_POINT('',#863);
#298=VERTEX_POINT('',#865);
#299=VERTEX_POINT('',#867);
#300=VERTEX_POINT('',#869);
#301=VERTEX_POINT('',#871);
#302=VERTEX_POINT('',#873);
#303=VERTEX_POINT('',#875);
#304=VERTEX_POINT('',#877);
#305=VERTEX_POINT('',#879);
#306=VERTEX_POINT('',#881);
#307=VERTEX_POINT('',#883);
#308=VERTEX_POINT('',#886);
#309=VERTEX_POINT('',#887);
#310=VERTEX_POINT('',#889);
#311=VERTEX_POINT('',#891);
#312=VERTEX_POINT('',#895);
#313=VERTEX_POINT('',#897);
#314=VERTEX_POINT('',#900);
#315=VERTEX_POINT('',#902);
#316=VERTEX_POINT('',#906);
#317=VERTEX_POINT('',#908);
#318=VERTEX_POINT('',#910);
#319=VERTEX_POINT('',#913);
#320=VERTEX_POINT('',#915);
#321=VERTEX_POINT('',#919);
#322=VERTEX_POINT('',#922);
#323=VERTEX_POINT('',#924);
#324=VERTEX_POINT('',#928);
#325=VERTEX_POINT('',#930);
#326=VERTEX_POINT('',#932);
#327=VERTEX_POINT('',#935);
#328=VERTEX_POINT('',#947);
#329=VERTEX_POINT('',#955);
#330=VERTEX_POINT('',#963);
#331=VERTEX_POINT('',#967);
#332=VERTEX_POINT('',#972);
#333=LINE('',#820,#405);
#334=LINE('',#823,#406);
#335=LINE('',#825,#407);
#336=LINE('',#827,#408);
#337=LINE('',#828,#409);
#338=LINE('',#831,#410);
#339=LINE('',#833,#411);
#340=LINE('',#835,#412);
#341=LINE('',#837,#413);
#342=LINE('',#840,#414);
#343=LINE('',#842,#415);
#344=LINE('',#844,#416);
#345=LINE('',#846,#417);
#346=LINE('',#848,#418);
#347=LINE('',#850,#419);
#348=LINE('',#852,#420);
#349=LINE('',#854,#421);
#350=LINE('',#856,#422);
#351=LINE('',#858,#423);
#352=LINE('',#860,#424);
#353=LINE('',#862,#425);
#354=LINE('',#864,#426);
#355=LINE('',#866,#427);
#356=LINE('',#868,#428);
#357=LINE('',#870,#429);
#358=LINE('',#872,#430);
#359=LINE('',#874,#431);
#360=LINE('',#876,#432);
#361=LINE('',#878,#433);
#362=LINE('',#880,#434);
#363=LINE('',#882,#435);
#364=LINE('',#884,#436);
#365=LINE('',#885,#437);
#366=LINE('',#888,#438);
#367=LINE('',#890,#439);
#368=LINE('',#892,#440);
#369=LINE('',#894,#441);
#370=LINE('',#896,#442);
#371=LINE('',#898,#443);
#372=LINE('',#899,#444);
#373=LINE('',#901,#445);
#374=LINE('',#903,#446);
#375=LINE('',#909,#447);
#376=LINE('',#911,#448);
#377=LINE('',#912,#449);
#378=LINE('',#914,#450);
#379=LINE('',#916,#451);
#380=LINE('',#918,#452);
#381=LINE('',#920,#453);
#382=LINE('',#921,#454);
#383=LINE('',#923,#455);
#384=LINE('',#925,#456);
#385=LINE('',#931,#457);
#386=LINE('',#933,#458);
#387=LINE('',#934,#459);
#388=LINE('',#936,#460);
#389=LINE('',#938,#461);
#390=LINE('',#939,#462);
#391=LINE('',#941,#463);
#392=LINE('',#943,#464);
#393=LINE('',#946,#465);
#394=LINE('',#948,#466);
#395=LINE('',#951,#467);
#396=LINE('',#954,#468);
#397=LINE('',#956,#469);
#398=LINE('',#959,#470);
#399=LINE('',#962,#471);
#400=LINE('',#964,#472);
#401=LINE('',#968,#473);
#402=LINE('',#971,#474);
#403=LINE('',#973,#475);
#404=LINE('',#976,#476);
#405=VECTOR('',#668,1.);
#406=VECTOR('',#669,1.);
#407=VECTOR('',#670,1.);
#408=VECTOR('',#671,1.);
#409=VECTOR('',#672,1.);
#410=VECTOR('',#673,1.);
#411=VECTOR('',#674,1.);
#412=VECTOR('',#675,1.);
#413=VECTOR('',#678,1.);
#414=VECTOR('',#679,1.);
#415=VECTOR('',#680,1.);
#416=VECTOR('',#681,1.);
#417=VECTOR('',#682,1.);
#418=VECTOR('',#683,1.);
#419=VECTOR('',#684,1.);
#420=VECTOR('',#685,1.);
#421=VECTOR('',#686,1.);
#422=VECTOR('',#687,1.);
#423=VECTOR('',#688,1.);
#424=VECTOR('',#689,1.);
#425=VECTOR('',#690,1.);
#426=VECTOR('',#691,1.);
#427=VECTOR('',#692,1.);
#428=VECTOR('',#693,1.);
#429=VECTOR('',#694,1.);
#430=VECTOR('',#695,1.);
#431=VECTOR('',#696,1.);
#432=VECTOR('',#697,1.);
#433=VECTOR('',#698,1.);
#434=VECTOR('',#699,1.);
#435=VECTOR('',#700,1.);
#436=VECTOR('',#701,1.);
#437=VECTOR('',#702,1.);
#438=VECTOR('',#703,1.);
#439=VECTOR('',#704,1.);
#440=VECTOR('',#705,1.);
#441=VECTOR('',#708,1.);
#442=VECTOR('',#709,1.);
#443=VECTOR('',#710,1.);
#444=VECTOR('',#711,1.);
#445=VECTOR('',#712,1.);
#446=VECTOR('',#713,1.);
#447=VECTOR('',#720,1.);
#448=VECTOR('',#721,1.);
#449=VECTOR('',#722,1.);
#450=VECTOR('',#723,1.);
#451=VECTOR('',#724,1.);
#452=VECTOR('',#727,1.);
#453=VECTOR('',#728,1.);
#454=VECTOR('',#729,1.);
#455=VECTOR('',#730,1.);
#456=VECTOR('',#731,1.);
#457=VECTOR('',#738,1.);
#458=VECTOR('',#739,1.);
#459=VECTOR('',#740,1.);
#460=VECTOR('',#741,1.);
#461=VECTOR('',#744,1.);
#462=VECTOR('',#745,1.);
#463=VECTOR('',#748,1.);
#464=VECTOR('',#751,1.);
#465=VECTOR('',#756,1.);
#466=VECTOR('',#757,1.);
#467=VECTOR('',#762,1.);
#468=VECTOR('',#767,1.);
#469=VECTOR('',#768,1.);
#470=VECTOR('',#773,1.);
#471=VECTOR('',#778,1.);
#472=VECTOR('',#779,1.);
#473=VECTOR('',#784,1.);
#474=VECTOR('',#789,1.);
#475=VECTOR('',#790,1.);
#476=VECTOR('',#795,1.);
#477=EDGE_LOOP('',(#27,#28,#29,#30));
#478=EDGE_LOOP('',(#31,#32,#33,#34));
#479=EDGE_LOOP('',(#35,#36,#37,#38,#39,#40,#41,#42,#43,#44,#45,#46,#47,
#48,#49,#50,#51,#52,#53,#54,#55,#56,#57,#58));
#480=EDGE_LOOP('',(#59,#60,#61,#62));
#481=EDGE_LOOP('',(#63,#64,#65,#66,#67,#68,#69,#70));
#482=EDGE_LOOP('',(#71));
#483=EDGE_LOOP('',(#72));
#484=EDGE_LOOP('',(#73,#74,#75,#76,#77,#78,#79,#80));
#485=EDGE_LOOP('',(#81,#82,#83,#84,#85,#86,#87,#88));
#486=EDGE_LOOP('',(#89));
#487=EDGE_LOOP('',(#90));
#488=EDGE_LOOP('',(#91,#92,#93,#94,#95,#96,#97,#98));
#489=EDGE_LOOP('',(#99,#100,#101,#102));
#490=EDGE_LOOP('',(#103,#104,#105,#106));
#491=EDGE_LOOP('',(#107,#108,#109,#110));
#492=EDGE_LOOP('',(#111,#112,#113,#114));
#493=EDGE_LOOP('',(#115,#116,#117,#118));
#494=EDGE_LOOP('',(#119,#120,#121,#122,#123,#124));
#495=EDGE_LOOP('',(#125,#126,#127,#128));
#496=EDGE_LOOP('',(#129,#130,#131,#132));
#497=EDGE_LOOP('',(#133,#134,#135,#136,#137,#138));
#498=EDGE_LOOP('',(#139,#140,#141,#142));
#499=EDGE_LOOP('',(#143,#144,#145,#146));
#500=EDGE_LOOP('',(#147));
#501=EDGE_LOOP('',(#148,#149,#150,#151));
#502=EDGE_LOOP('',(#152,#153,#154,#155));
#503=EDGE_LOOP('',(#156,#157,#158,#159));
#504=EDGE_LOOP('',(#160,#161,#162,#163,#164,#165));
#505=EDGE_LOOP('',(#166,#167,#168,#169));
#506=EDGE_LOOP('',(#170,#171));
#507=EDGE_LOOP('',(#172));
#508=EDGE_LOOP('',(#173,#174,#175,#176));
#509=EDGE_LOOP('',(#177));
#510=EDGE_LOOP('',(#178));
#511=EDGE_LOOP('',(#179,#180));
#512=EDGE_LOOP('',(#181));
#513=EDGE_LOOP('',(#182,#183,#184,#185));
#514=EDGE_LOOP('',(#186,#187));
#515=EDGE_LOOP('',(#188));
#516=EDGE_LOOP('',(#189,#190,#191,#192));
#517=FACE_BOUND('',#477,.T.);
#518=FACE_BOUND('',#478,.T.);
#519=FACE_BOUND('',#479,.T.);
#520=FACE_BOUND('',#480,.T.);
#521=FACE_BOUND('',#481,.T.);
#522=FACE_BOUND('',#482,.T.);
#523=FACE_BOUND('',#483,.T.);
#524=FACE_BOUND('',#484,.T.);
#525=FACE_BOUND('',#485,.T.);
#526=FACE_BOUND('',#486,.T.);
#527=FACE_BOUND('',#487,.T.);
#528=FACE_BOUND('',#488,.T.);
#529=FACE_BOUND('',#489,.T.);
#530=FACE_BOUND('',#490,.T.);
#531=FACE_BOUND('',#491,.T.);
#532=FACE_BOUND('',#492,.T.);
#533=FACE_BOUND('',#493,.T.);
#534=FACE_BOUND('',#494,.T.);
#535=FACE_BOUND('',#495,.T.);
#536=FACE_BOUND('',#496,.T.);
#537=FACE_BOUND('',#497,.T.);
#538=FACE_BOUND('',#498,.T.);
#539=FACE_BOUND('',#499,.T.);
#540=FACE_BOUND('',#500,.T.);
#541=FACE_BOUND('',#501,.T.);
#542=FACE_BOUND('',#502,.T.);
#543=FACE_BOUND('',#503,.T.);
#544=FACE_BOUND('',#504,.T.);
#545=FACE_BOUND('',#505,.T.);
#546=FACE_BOUND('',#506,.T.);
#547=FACE_BOUND('',#507,.T.);
#548=FACE_BOUND('',#508,.T.);
#549=FACE_BOUND('',#509,.T.);
#550=FACE_BOUND('',#510,.T.);
#551=FACE_BOUND('',#511,.T.);
#552=FACE_BOUND('',#512,.T.);
#553=FACE_BOUND('',#513,.T.);
#554=FACE_BOUND('',#514,.T.);
#555=FACE_BOUND('',#515,.T.);
#556=FACE_BOUND('',#516,.T.);
#557=PLANE('',#624);
#558=PLANE('',#625);
#559=PLANE('',#626);
#560=PLANE('',#627);
#561=PLANE('',#630);
#562=PLANE('',#631);
#563=PLANE('',#634);
#564=PLANE('',#635);
#565=PLANE('',#636);
#566=PLANE('',#637);
#567=PLANE('',#638);
#568=PLANE('',#639);
#569=PLANE('',#641);
#570=PLANE('',#642);
#571=PLANE('',#643);
#572=PLANE('',#645);
#573=PLANE('',#646);
#574=PLANE('',#647);
#575=PLANE('',#649);
#576=PLANE('',#650);
#577=PLANE('',#651);
#578=PLANE('',#653);
#579=PLANE('',#654);
#580=PLANE('',#658);
#581=PLANE('',#661);
#582=ADVANCED_FACE('',(#517,#518),#557,.T.);
#583=ADVANCED_FACE('',(#519,#520),#558,.F.);
#584=ADVANCED_FACE('',(#521),#559,.T.);
#585=ADVANCED_FACE('',(#522,#523,#524),#560,.F.);
#586=ADVANCED_FACE('',(#525),#561,.F.);
#587=ADVANCED_FACE('',(#526,#527,#528),#562,.T.);
#588=ADVANCED_FACE('',(#529),#563,.T.);
#589=ADVANCED_FACE('',(#530),#564,.F.);
#590=ADVANCED_FACE('',(#531),#565,.F.);
#591=ADVANCED_FACE('',(#532),#566,.F.);
#592=ADVANCED_FACE('',(#533),#567,.F.);
#593=ADVANCED_FACE('',(#534),#568,.T.);
#594=ADVANCED_FACE('',(#535),#569,.T.);
#595=ADVANCED_FACE('',(#536),#570,.T.);
#596=ADVANCED_FACE('',(#537),#571,.F.);
#597=ADVANCED_FACE('',(#538),#572,.T.);
#598=ADVANCED_FACE('',(#539),#573,.F.);
#599=ADVANCED_FACE('',(#540,#541),#574,.T.);
#600=ADVANCED_FACE('',(#542),#575,.T.);
#601=ADVANCED_FACE('',(#543),#576,.T.);
#602=ADVANCED_FACE('',(#544),#577,.F.);
#603=ADVANCED_FACE('',(#545),#578,.T.);
#604=ADVANCED_FACE('',(#546),#579,.T.);
#605=ADVANCED_FACE('',(#547,#548),#12,.F.);
#606=ADVANCED_FACE('',(#549,#550),#13,.F.);
#607=ADVANCED_FACE('',(#551),#580,.T.);
#608=ADVANCED_FACE('',(#552,#553),#14,.F.);
#609=ADVANCED_FACE('',(#554),#581,.T.);
#610=ADVANCED_FACE('',(#555,#556),#15,.F.);
#611=CLOSED_SHELL('',(#582,#583,#584,#585,#586,#587,#588,#589,#590,#591,
#592,#593,#594,#595,#596,#597,#598,#599,#600,#601,#602,#603,#604,#605,#606,
#607,#608,#609,#610));
#612=STYLED_ITEM('',(#613),#620);
#613=PRESENTATION_STYLE_ASSIGNMENT((#614));
#614=SURFACE_STYLE_USAGE(.BOTH.,#615);
#615=SURFACE_SIDE_STYLE('',(#616));
#616=SURFACE_STYLE_FILL_AREA(#617);
#617=FILL_AREA_STYLE('',(#618));
#618=FILL_AREA_STYLE_COLOUR('',#619);
#619=COLOUR_RGB('',0.615686274509804,0.811764705882353,0.929411764705882);
#620=MANIFOLD_SOLID_BREP('Part 1',#611);
#621=SHAPE_DEFINITION_REPRESENTATION(#994,#622);
#622=SHAPE_REPRESENTATION('Part 1',(#623),#989);
#623=AXIS2_PLACEMENT_3D('',#818,#664,#665);
#624=AXIS2_PLACEMENT_3D('',#819,#666,#667);
#625=AXIS2_PLACEMENT_3D('',#836,#676,#677);
#626=AXIS2_PLACEMENT_3D('',#893,#706,#707);
#627=AXIS2_PLACEMENT_3D('',#904,#714,#715);
#628=AXIS2_PLACEMENT_3D('',#905,#716,#717);
#629=AXIS2_PLACEMENT_3D('',#907,#718,#719);
#630=AXIS2_PLACEMENT_3D('',#917,#725,#726);
#631=AXIS2_PLACEMENT_3D('',#926,#732,#733);
#632=AXIS2_PLACEMENT_3D('',#927,#734,#735);
#633=AXIS2_PLACEMENT_3D('',#929,#736,#737);
#634=AXIS2_PLACEMENT_3D('',#937,#742,#743);
#635=AXIS2_PLACEMENT_3D('',#940,#746,#747);
#636=AXIS2_PLACEMENT_3D('',#942,#749,#750);
#637=AXIS2_PLACEMENT_3D('',#944,#752,#753);
#638=AXIS2_PLACEMENT_3D('',#945,#754,#755);
#639=AXIS2_PLACEMENT_3D('',#949,#758,#759);
#640=AXIS2_PLACEMENT_3D('',#950,#760,#761);
#641=AXIS2_PLACEMENT_3D('',#952,#763,#764);
#642=AXIS2_PLACEMENT_3D('',#953,#765,#766);
#643=AXIS2_PLACEMENT_3D('',#957,#769,#770);
#644=AXIS2_PLACEMENT_3D('',#958,#771,#772);
#645=AXIS2_PLACEMENT_3D('',#960,#774,#775);
#646=AXIS2_PLACEMENT_3D('',#961,#776,#777);
#647=AXIS2_PLACEMENT_3D('',#965,#780,#781);
#648=AXIS2_PLACEMENT_3D('',#966,#782,#783);
#649=AXIS2_PLACEMENT_3D('',#969,#785,#786);
#650=AXIS2_PLACEMENT_3D('',#970,#787,#788);
#651=AXIS2_PLACEMENT_3D('',#974,#791,#792);
#652=AXIS2_PLACEMENT_3D('',#975,#793,#794);
#653=AXIS2_PLACEMENT_3D('',#977,#796,#797);
#654=AXIS2_PLACEMENT_3D('',#978,#798,#799);
#655=AXIS2_PLACEMENT_3D('',#979,#800,#801);
#656=AXIS2_PLACEMENT_3D('',#980,#802,#803);
#657=AXIS2_PLACEMENT_3D('',#981,#804,#805);
#658=AXIS2_PLACEMENT_3D('',#982,#806,#807);
#659=AXIS2_PLACEMENT_3D('',#983,#808,#809);
#660=AXIS2_PLACEMENT_3D('',#984,#810,#811);
#661=AXIS2_PLACEMENT_3D('',#985,#812,#813);
#662=AXIS2_PLACEMENT_3D('',#986,#814,#815);
#663=AXIS2_PLACEMENT_3D('',#987,#816,#817);
#664=DIRECTION('',(0.,0.,1.));
#665=DIRECTION('',(1.,0.,0.));
#666=DIRECTION('',(0.,0.,1.));
#667=DIRECTION('',(1.,0.,0.));
#668=DIRECTION('',(1.,0.,0.));
#669=DIRECTION('',(0.,-1.,0.));
#670=DIRECTION('',(1.,0.,0.));
#671=DIRECTION('',(0.,-1.,0.));
#672=DIRECTION('',(1.,0.,0.));
#673=DIRECTION('',(0.,1.,0.));
#674=DIRECTION('',(-1.,0.,0.));
#675=DIRECTION('',(0.,1.,0.));
#676=DIRECTION('',(0.,0.,1.));
#677=DIRECTION('',(1.,0.,0.));
#678=DIRECTION('',(0.,-1.,0.));
#679=DIRECTION('',(-1.,0.,0.));
#680=DIRECTION('',(0.,-1.,0.));
#681=DIRECTION('',(1.,0.,0.));
#682=DIRECTION('',(0.,-1.,0.));
#683=DIRECTION('',(-1.,0.,0.));
#684=DIRECTION('',(0.,-1.,0.));
#685=DIRECTION('',(-1.,0.,0.));
#686=DIRECTION('',(0.,1.,0.));
#687=DIRECTION('',(1.,0.,0.));
#688=DIRECTION('',(0.,1.,0.));
#689=DIRECTION('',(1.,0.,0.));
#690=DIRECTION('',(0.,1.,0.));
#691=DIRECTION('',(1.,0.,0.));
#692=DIRECTION('',(0.,1.,0.));
#693=DIRECTION('',(-1.,0.,0.));
#694=DIRECTION('',(0.,-1.,0.));
#695=DIRECTION('',(-1.,0.,0.));
#696=DIRECTION('',(0.,1.,0.));
#697=DIRECTION('',(1.,0.,0.));
#698=DIRECTION('',(0.,-1.,0.));
#699=DIRECTION('',(1.,0.,0.));
#700=DIRECTION('',(0.,-1.,0.));
#701=DIRECTION('',(-1.,0.,0.));
#702=DIRECTION('',(0.,1.,0.));
#703=DIRECTION('',(1.,0.,0.));
#704=DIRECTION('',(0.,1.,0.));
#705=DIRECTION('',(-1.,0.,0.));
#706=DIRECTION('',(0.,1.,0.));
#707=DIRECTION('',(0.,0.,1.));
#708=DIRECTION('',(0.,0.,1.));
#709=DIRECTION('',(1.,0.,0.));
#710=DIRECTION('',(0.,0.,-1.));
#711=DIRECTION('',(0.,0.,-1.));
#712=DIRECTION('',(1.,0.,0.));
#713=DIRECTION('',(0.,0.,1.));
#714=DIRECTION('',(1.,0.,0.));
#715=DIRECTION('',(0.,0.,-1.));
#716=DIRECTION('',(-1.,0.,0.));
#717=DIRECTION('',(0.,-1.,-7.50152470616904E-17));
#718=DIRECTION('',(-1.,0.,0.));
#719=DIRECTION('',(0.,-1.,-6.17220681881559E-17));
#720=DIRECTION('',(0.,-1.,0.));
#721=DIRECTION('',(0.,0.,1.));
#722=DIRECTION('',(0.,0.,1.));
#723=DIRECTION('',(0.,-1.,0.));
#724=DIRECTION('',(0.,0.,-1.));
#725=DIRECTION('',(0.,1.,0.));
#726=DIRECTION('',(0.,0.,1.));
#727=DIRECTION('',(1.,0.,0.));
#728=DIRECTION('',(0.,0.,1.));
#729=DIRECTION('',(0.,0.,1.));
#730=DIRECTION('',(1.,0.,0.));
#731=DIRECTION('',(0.,0.,-1.));
#732=DIRECTION('',(1.,0.,0.));
#733=DIRECTION('',(0.,0.,-1.));
#734=DIRECTION('',(1.,0.,0.));
#735=DIRECTION('',(0.,1.,0.));
#736=DIRECTION('',(1.,0.,0.));
#737=DIRECTION('',(0.,1.,-6.14084616938049E-17));
#738=DIRECTION('',(0.,0.,1.));
#739=DIRECTION('',(0.,-1.,0.));
#740=DIRECTION('',(0.,-1.,0.));
#741=DIRECTION('',(0.,0.,1.));
#742=DIRECTION('',(1.,0.,0.));
#743=DIRECTION('',(0.,0.,-1.));
#744=DIRECTION('',(0.,0.,1.));
#745=DIRECTION('',(0.,0.,1.));
#746=DIRECTION('',(0.,-1.,0.));
#747=DIRECTION('',(0.,0.,-1.));
#748=DIRECTION('',(0.,0.,1.));
#749=DIRECTION('',(1.,0.,0.));
#750=DIRECTION('',(0.,0.,-1.));
#751=DIRECTION('',(0.,0.,1.));
#752=DIRECTION('',(0.,1.,0.));
#753=DIRECTION('',(0.,0.,1.));
#754=DIRECTION('',(0.,-1.,0.));
#755=DIRECTION('',(0.,0.,-1.));
#756=DIRECTION('',(0.,0.,1.));
#757=DIRECTION('',(1.,0.,0.));
#758=DIRECTION('',(1.,0.,0.));
#759=DIRECTION('',(0.,0.,-1.));
#760=DIRECTION('',(1.,0.,0.));
#761=DIRECTION('',(0.,0.,-1.));
#762=DIRECTION('',(0.,1.,0.));
#763=DIRECTION('',(0.,0.,-1.));
#764=DIRECTION('',(1.,0.,0.));
#765=DIRECTION('',(0.,-1.,0.));
#766=DIRECTION('',(0.,0.,-1.));
#767=DIRECTION('',(1.,0.,0.));
#768=DIRECTION('',(0.,0.,1.));
#769=DIRECTION('',(-1.,0.,0.));
#770=DIRECTION('',(0.,0.,1.));
#771=DIRECTION('',(-1.,0.,0.));
#772=DIRECTION('',(0.,0.,1.));
#773=DIRECTION('',(0.,-1.,0.));
#774=DIRECTION('',(0.,0.,-1.));
#775=DIRECTION('',(1.,0.,0.));
#776=DIRECTION('',(0.,1.,0.));
#777=DIRECTION('',(0.,0.,1.));
#778=DIRECTION('',(0.,0.,1.));
#779=DIRECTION('',(-1.,0.,0.));
#780=DIRECTION('',(-1.,0.,0.));
#781=DIRECTION('',(0.,0.,1.));
#782=DIRECTION('',(-1.,0.,0.));
#783=DIRECTION('',(0.,0.,1.));
#784=DIRECTION('',(0.,-1.,0.));
#785=DIRECTION('',(0.,0.,-1.));
#786=DIRECTION('',(1.,0.,0.));
#787=DIRECTION('',(0.,1.,0.));
#788=DIRECTION('',(0.,0.,1.));
#789=DIRECTION('',(-1.,0.,0.));
#790=DIRECTION('',(0.,0.,1.));
#791=DIRECTION('',(1.,0.,0.));
#792=DIRECTION('',(0.,0.,-1.));
#793=DIRECTION('',(1.,0.,0.));
#794=DIRECTION('',(0.,0.,-1.));
#795=DIRECTION('',(0.,1.,0.));
#796=DIRECTION('',(0.,0.,-1.));
#797=DIRECTION('',(1.,0.,0.));
#798=DIRECTION('',(1.,0.,0.));
#799=DIRECTION('',(0.,1.,0.));
#800=DIRECTION('',(1.,0.,0.));
#801=DIRECTION('',(0.,1.,-6.14084616938049E-17));
#802=DIRECTION('',(1.,0.,0.));
#803=DIRECTION('',(0.,0.,-1.));
#804=DIRECTION('',(1.,0.,0.));
#805=DIRECTION('',(0.,0.,-1.));
#806=DIRECTION('',(-1.,0.,0.));
#807=DIRECTION('',(0.,-1.,0.));
#808=DIRECTION('',(-1.,0.,0.));
#809=DIRECTION('',(0.,-1.,-7.50152470616904E-17));
#810=DIRECTION('',(-1.,0.,0.));
#811=DIRECTION('',(0.,0.,1.));
#812=DIRECTION('',(-1.,0.,0.));
#813=DIRECTION('',(0.,-1.,0.));
#814=DIRECTION('',(-1.,0.,0.));
#815=DIRECTION('',(0.,-1.,-6.17220681881559E-17));
#816=DIRECTION('',(-1.,0.,0.));
#817=DIRECTION('',(0.,0.,1.));
#818=CARTESIAN_POINT('',(0.,0.,0.));
#819=CARTESIAN_POINT('',(0.,0.,0.003));
#820=CARTESIAN_POINT('',(0.,0.0488899856251215,0.003));
#821=CARTESIAN_POINT('',(-0.0323729826779863,0.0488899856251215,0.003));
#822=CARTESIAN_POINT('',(0.0323729826779863,0.0488899856251215,0.003));
#823=CARTESIAN_POINT('',(-0.0323729826779863,0.,0.003));
#824=CARTESIAN_POINT('',(-0.0323729826779863,-0.0488899856251215,0.003));
#825=CARTESIAN_POINT('',(0.,-0.0488899856251215,0.003));
#826=CARTESIAN_POINT('',(0.0323729826779863,-0.0488899856251215,0.003));
#827=CARTESIAN_POINT('',(0.0323729826779863,0.,0.003));
#828=CARTESIAN_POINT('',(-0.00934121503087226,-0.0388254299759865,0.003));
#829=CARTESIAN_POINT('',(-0.0186824300617445,-0.0388254299759865,0.003));
#830=CARTESIAN_POINT('',(0.,-0.0388254299759865,0.003));
#831=CARTESIAN_POINT('',(-0.0186824300617446,0.0330849653109908,0.003));
#832=CARTESIAN_POINT('',(-0.0186824300617446,0.0368639416992664,0.003));
#833=CARTESIAN_POINT('',(-0.00934121503087226,0.0368639416992664,0.003));
#834=CARTESIAN_POINT('',(0.,0.0368639416992664,0.003));
#835=CARTESIAN_POINT('',(0.,-0.000980744138360023,0.003));
#836=CARTESIAN_POINT('',(0.,0.,0.));
#837=CARTESIAN_POINT('',(-0.0263729826779864,0.,0.));
#838=CARTESIAN_POINT('',(-0.0263729826779864,0.0466919702626725,0.));
#839=CARTESIAN_POINT('',(-0.0263729826779864,0.041840757511481,0.));
#840=CARTESIAN_POINT('',(-0.0263729826779864,0.0466919702626725,0.));
#841=CARTESIAN_POINT('',(-0.0293059889227152,0.0466919702626725,0.));
#842=CARTESIAN_POINT('',(-0.0293059889227152,0.0426333129128682,0.));
#843=CARTESIAN_POINT('',(-0.0293059889227152,0.0488899856251215,0.));
#844=CARTESIAN_POINT('',(0.,0.0488899856251215,0.));
#845=CARTESIAN_POINT('',(0.0296781286597252,0.0488899856251215,0.));
#846=CARTESIAN_POINT('',(0.0296781286597252,0.0435636613240706,0.));
#847=CARTESIAN_POINT('',(0.0296781286597252,0.0382373370230198,0.));
#848=CARTESIAN_POINT('',(0.0310255556688558,0.0382373370230198,0.));
#849=CARTESIAN_POINT('',(0.0323729826779863,0.0382373370230198,0.));
#850=CARTESIAN_POINT('',(0.0323729826779863,0.,0.));
#851=CARTESIAN_POINT('',(0.0323729826779863,-0.03302738443017,0.));
#852=CARTESIAN_POINT('',(0.0304673469946634,-0.03302738443017,0.));
#853=CARTESIAN_POINT('',(0.0285617113113403,-0.03302738443017,0.));
#854=CARTESIAN_POINT('',(0.0285617113113403,-0.0409586850276457,0.));
#855=CARTESIAN_POINT('',(0.0285617113113403,-0.0382463610885435,0.));
#856=CARTESIAN_POINT('',(0.0263729826779864,-0.0382463610885435,0.));
#857=CARTESIAN_POINT('',(0.0263729826779864,-0.0382463610885435,0.));
#858=CARTESIAN_POINT('',(0.0263729826779864,0.,0.));
#859=CARTESIAN_POINT('',(0.0263729826779864,-0.0449370140023003,0.));
#860=CARTESIAN_POINT('',(0.0263729826779864,-0.0449370140023003,0.));
#861=CARTESIAN_POINT('',(0.0285617113113403,-0.0449370140023003,0.));
#862=CARTESIAN_POINT('',(0.0285617113113403,-0.0409586850276457,0.));
#863=CARTESIAN_POINT('',(0.0285617113113403,-0.0488899856251215,0.));
#864=CARTESIAN_POINT('',(0.,-0.0488899856251215,0.));
#865=CARTESIAN_POINT('',(-0.0289338491857052,-0.0488899856251215,0.));
#866=CARTESIAN_POINT('',(-0.0289338491857052,-0.0417029645016658,0.));
#867=CARTESIAN_POINT('',(-0.0289338491857052,-0.0446145105459842,0.));
#868=CARTESIAN_POINT('',(-0.0263729826779864,-0.0446145105459842,0.));
#869=CARTESIAN_POINT('',(-0.0263729826779864,-0.0446145105459842,0.));
#870=CARTESIAN_POINT('',(-0.0263729826779864,0.,0.));
#871=CARTESIAN_POINT('',(-0.0263729826779864,-0.0384129841610483,0.));
#872=CARTESIAN_POINT('',(-0.0263729826779864,-0.0384129841610483,0.));
#873=CARTESIAN_POINT('',(-0.0289338491857052,-0.0384129841610483,0.));
#874=CARTESIAN_POINT('',(-0.0289338491857052,-0.0417029645016658,0.));
#875=CARTESIAN_POINT('',(-0.0289338491857052,-0.03451594337821,0.));
#876=CARTESIAN_POINT('',(-0.0306534159318458,-0.03451594337821,0.));
#877=CARTESIAN_POINT('',(-0.0323729826779863,-0.03451594337821,0.));
#878=CARTESIAN_POINT('',(-0.0323729826779863,0.,0.));
#879=CARTESIAN_POINT('',(-0.0323729826779863,0.036376640200615,0.));
#880=CARTESIAN_POINT('',(-0.0308394858003508,0.036376640200615,0.));
#881=CARTESIAN_POINT('',(-0.0293059889227152,0.036376640200615,0.));
#882=CARTESIAN_POINT('',(-0.0293059889227152,0.0426333129128682,0.));
#883=CARTESIAN_POINT('',(-0.0293059889227152,0.041840757511481,0.));
#884=CARTESIAN_POINT('',(-0.0263729826779864,0.041840757511481,0.));
#885=CARTESIAN_POINT('',(-0.0186824300617446,0.,0.));
#886=CARTESIAN_POINT('',(-0.0186824300617445,-0.0388254299759865,0.));
#887=CARTESIAN_POINT('',(-0.0186824300617446,0.0368639416992664,0.));
#888=CARTESIAN_POINT('',(0.,-0.0388254299759865,0.));
#889=CARTESIAN_POINT('',(0.,-0.0388254299759865,0.));
#890=CARTESIAN_POINT('',(0.,0.,0.));
#891=CARTESIAN_POINT('',(0.,0.0368639416992664,0.));
#892=CARTESIAN_POINT('',(0.,0.0368639416992664,0.));
#893=CARTESIAN_POINT('',(0.,0.0488899856251215,0.003));
#894=CARTESIAN_POINT('',(-0.0293059889227152,0.0488899856251215,-0.006));
#895=CARTESIAN_POINT('',(-0.0293059889227152,0.0488899856251215,-0.006));
#896=CARTESIAN_POINT('',(0.,0.0488899856251215,-0.006));
#897=CARTESIAN_POINT('',(-0.0323729826779863,0.0488899856251215,-0.006));
#898=CARTESIAN_POINT('',(-0.0323729826779863,0.0488899856251215,0.003));
#899=CARTESIAN_POINT('',(0.0323729826779863,0.0488899856251215,0.003));
#900=CARTESIAN_POINT('',(0.0323729826779863,0.0488899856251215,-0.006));
#901=CARTESIAN_POINT('',(0.,0.0488899856251215,-0.006));
#902=CARTESIAN_POINT('',(0.0296781286597252,0.0488899856251215,-0.006));
#903=CARTESIAN_POINT('',(0.0296781286597252,0.0488899856251215,-0.006));
#904=CARTESIAN_POINT('',(-0.0323729826779863,0.,0.003));
#905=CARTESIAN_POINT('',(-0.0323729826779863,0.0442663638870767,-0.0015722935430231));
#906=CARTESIAN_POINT('',(-0.0323729826779863,0.0413757457395583,-0.00157229354302311));
#907=CARTESIAN_POINT('',(-0.0323729826779863,-0.0415137473535163,-0.00165156503623553));
#908=CARTESIAN_POINT('',(-0.0323729826779863,-0.0450269224764898,-0.00165156503623553));
#909=CARTESIAN_POINT('',(-0.0323729826779863,0.,-0.006));
#910=CARTESIAN_POINT('',(-0.0323729826779863,0.036376640200615,-0.006));
#911=CARTESIAN_POINT('',(-0.0323729826779863,0.036376640200615,-0.006));
#912=CARTESIAN_POINT('',(-0.0323729826779863,-0.03451594337821,-0.006));
#913=CARTESIAN_POINT('',(-0.0323729826779863,-0.03451594337821,-0.006));
#914=CARTESIAN_POINT('',(-0.0323729826779863,0.,-0.006));
#915=CARTESIAN_POINT('',(-0.0323729826779863,-0.0488899856251215,-0.006));
#916=CARTESIAN_POINT('',(-0.0323729826779863,-0.0488899856251215,0.003));
#917=CARTESIAN_POINT('',(0.,-0.0488899856251215,0.003));
#918=CARTESIAN_POINT('',(0.,-0.0488899856251215,-0.006));
#919=CARTESIAN_POINT('',(-0.0289338491857052,-0.0488899856251215,-0.006));
#920=CARTESIAN_POINT('',(-0.0289338491857052,-0.0488899856251215,-0.006));
#921=CARTESIAN_POINT('',(0.0285617113113403,-0.0488899856251215,-0.006));
#922=CARTESIAN_POINT('',(0.0285617113113403,-0.0488899856251215,-0.006));
#923=CARTESIAN_POINT('',(0.,-0.0488899856251215,-0.006));
#924=CARTESIAN_POINT('',(0.0323729826779863,-0.0488899856251215,-0.006));
#925=CARTESIAN_POINT('',(0.0323729826779863,-0.0488899856251215,0.003));
#926=CARTESIAN_POINT('',(0.0323729826779863,0.,0.003));
#927=CARTESIAN_POINT('',(0.0323729826779863,0.044657811464779,-0.00264513300684796));
#928=CARTESIAN_POINT('',(0.0323729826779863,0.0472644466067145,-0.00264513300684796));
#929=CARTESIAN_POINT('',(0.0323729826779863,-0.0415916875454219,-0.00113029858139209));
#930=CARTESIAN_POINT('',(0.0323729826779863,-0.0380605710100768,-0.00113029858139209));
#931=CARTESIAN_POINT('',(0.0323729826779863,0.0382373370230198,-0.006));
#932=CARTESIAN_POINT('',(0.0323729826779863,0.0382373370230198,-0.006));
#933=CARTESIAN_POINT('',(0.0323729826779863,0.,-0.006));
#934=CARTESIAN_POINT('',(0.0323729826779863,0.,-0.006));
#935=CARTESIAN_POINT('',(0.0323729826779863,-0.03302738443017,-0.006));
#936=CARTESIAN_POINT('',(0.0323729826779863,-0.03302738443017,-0.006));
#937=CARTESIAN_POINT('',(-0.0186824300617446,0.0330849653109908,-0.003));
#938=CARTESIAN_POINT('',(-0.0186824300617446,0.0368639416992664,-0.003));
#939=CARTESIAN_POINT('',(-0.0186824300617445,-0.0388254299759865,-0.003));
#940=CARTESIAN_POINT('',(-0.00934121503087226,-0.0388254299759865,-0.003));
#941=CARTESIAN_POINT('',(0.,-0.0388254299759865,-0.003));
#942=CARTESIAN_POINT('',(0.,-0.000980744138360023,-0.003));
#943=CARTESIAN_POINT('',(0.,0.0368639416992664,-0.003));
#944=CARTESIAN_POINT('',(-0.00934121503087226,0.0368639416992664,-0.003));
#945=CARTESIAN_POINT('',(-0.0306534159318458,-0.03451594337821,-0.006));
#946=CARTESIAN_POINT('',(-0.0289338491857052,-0.03451594337821,-0.006));
#947=CARTESIAN_POINT('',(-0.0289338491857052,-0.03451594337821,-0.006));
#948=CARTESIAN_POINT('',(-0.0306534159318458,-0.03451594337821,-0.006));
#949=CARTESIAN_POINT('',(-0.0289338491857052,-0.0417029645016658,-0.006));
#950=CARTESIAN_POINT('',(-0.0289338491857052,-0.0415137473535163,-0.00165156503623553));
#951=CARTESIAN_POINT('',(-0.0289338491857052,-0.0417029645016658,-0.006));
#952=CARTESIAN_POINT('',(0.,0.,-0.006));
#953=CARTESIAN_POINT('',(-0.0308394858003508,0.036376640200615,-0.006));
#954=CARTESIAN_POINT('',(-0.0308394858003508,0.036376640200615,-0.006));
#955=CARTESIAN_POINT('',(-0.0293059889227152,0.036376640200615,-0.006));
#956=CARTESIAN_POINT('',(-0.0293059889227152,0.036376640200615,-0.006));
#957=CARTESIAN_POINT('',(-0.0293059889227152,0.0426333129128682,-0.006));
#958=CARTESIAN_POINT('',(-0.0293059889227152,0.0442663638870767,-0.0015722935430231));
#959=CARTESIAN_POINT('',(-0.0293059889227152,0.0426333129128682,-0.006));
#960=CARTESIAN_POINT('',(0.,0.,-0.006));
#961=CARTESIAN_POINT('',(0.0310255556688558,0.0382373370230198,-0.006));
#962=CARTESIAN_POINT('',(0.0296781286597252,0.0382373370230198,-0.006));
#963=CARTESIAN_POINT('',(0.0296781286597252,0.0382373370230198,-0.006));
#964=CARTESIAN_POINT('',(0.0310255556688558,0.0382373370230198,-0.006));
#965=CARTESIAN_POINT('',(0.0296781286597252,0.0435636613240706,-0.006));
#966=CARTESIAN_POINT('',(0.0296781286597252,0.044657811464779,-0.00264513300684796));
#967=CARTESIAN_POINT('',(0.0296781286597252,0.044657811464779,-3.84978649123754E-5));
#968=CARTESIAN_POINT('',(0.0296781286597252,0.0435636613240706,-0.006));
#969=CARTESIAN_POINT('',(0.,0.,-0.006));
#970=CARTESIAN_POINT('',(0.0304673469946634,-0.03302738443017,-0.006));
#971=CARTESIAN_POINT('',(0.0304673469946634,-0.03302738443017,-0.006));
#972=CARTESIAN_POINT('',(0.0285617113113403,-0.03302738443017,-0.006));
#973=CARTESIAN_POINT('',(0.0285617113113403,-0.03302738443017,-0.006));
#974=CARTESIAN_POINT('',(0.0285617113113403,-0.0409586850276457,-0.006));
#975=CARTESIAN_POINT('',(0.0285617113113403,-0.0415916875454219,-0.00113029858139209));
#976=CARTESIAN_POINT('',(0.0285617113113403,-0.0409586850276457,-0.006));
#977=CARTESIAN_POINT('',(0.,0.,-0.006));
#978=CARTESIAN_POINT('',(0.0263729826779864,0.,-0.0015));
#979=CARTESIAN_POINT('',(0.0263729826779864,-0.0415916875454219,-0.00113029858139209));
#980=CARTESIAN_POINT('',(0.0263729826779864,-0.0415916875454219,-0.00113029858139209));
#981=CARTESIAN_POINT('',(0.0263729826779864,0.044657811464779,-0.00264513300684796));
#982=CARTESIAN_POINT('',(-0.0263729826779864,0.,-0.0015));
#983=CARTESIAN_POINT('',(-0.0263729826779864,0.0442663638870767,-0.0015722935430231));
#984=CARTESIAN_POINT('',(-0.0263729826779864,0.0442663638870767,-0.0015722935430231));
#985=CARTESIAN_POINT('',(-0.0263729826779864,0.,-0.0015));
#986=CARTESIAN_POINT('',(-0.0263729826779864,-0.0415137473535163,-0.00165156503623553));
#987=CARTESIAN_POINT('',(-0.0263729826779864,-0.0415137473535163,-0.00165156503623553));
#988=MECHANICAL_DESIGN_GEOMETRIC_PRESENTATION_REPRESENTATION('',(#612),
#989);
#989=(
GEOMETRIC_REPRESENTATION_CONTEXT(3)
GLOBAL_UNCERTAINTY_ASSIGNED_CONTEXT((#990))
GLOBAL_UNIT_ASSIGNED_CONTEXT((#993,#992,#991))
REPRESENTATION_CONTEXT('Part 1','TOP_LEVEL_ASSEMBLY_PART')
);
#990=UNCERTAINTY_MEASURE_WITH_UNIT(LENGTH_MEASURE(1.E-8),#993,
'DISTANCE_ACCURACY_VALUE','Maximum Tolerance applied to model');
#991=(
NAMED_UNIT(*)
SI_UNIT($,.STERADIAN.)
SOLID_ANGLE_UNIT()
);
#992=(
NAMED_UNIT(*)
PLANE_ANGLE_UNIT()
SI_UNIT($,.RADIAN.)
);
#993=(
LENGTH_UNIT()
NAMED_UNIT(*)
SI_UNIT($,.METRE.)
);
#994=PRODUCT_DEFINITION_SHAPE('','',#995);
#995=PRODUCT_DEFINITION('','',#997,#996);
#996=PRODUCT_DEFINITION_CONTEXT('',#1003,'design');
#997=PRODUCT_DEFINITION_FORMATION_WITH_SPECIFIED_SOURCE('','',#999,
 .NOT_KNOWN.);
#998=PRODUCT_RELATED_PRODUCT_CATEGORY('','',(#999));
#999=PRODUCT('Part 1','Part 1','Part 1',(#1001));
#1000=PRODUCT_CATEGORY('','');
#1001=PRODUCT_CONTEXT('',#1003,'mechanical');
#1002=APPLICATION_PROTOCOL_DEFINITION('international standard',
'ap242_managed_model_based_3d_engineering',2020,#1003);
#1003=APPLICATION_CONTEXT('managed model based 3d engineering');
ENDSEC;
END-ISO-10303-21;
