ISO-10303-21;
HEADER;
/* Generated by software containing ST-Developer
 * from STEP Tools, Inc. (www.steptools.com) 
 */
/* OPTION: using custom renumber hook */

FILE_DESCRIPTION(
/* description */ ('STEP AP242 Edition 2',
'CAx-IF Rec.Pracs.---Representation and Presentation of Product Manufa
cturing Information (PMI)---4.0---2014-10-13',
'CAx-IF Rec.Pracs.---3D Tessellated Geometry---0.4---2014-09-14','2;1',
'CAx-IF Rec.Pracs.---User Defined Attributes---1.5---2016-08-15'),
/* implementation_level */ '2;1');

FILE_NAME(
/* name */ 'Part Studio 1 - Part 2',
/* time_stamp */ '2026-09-09T14:56:44Z',
/* author */ (''),
/* organization */ (''),
/* preprocessor_version */ 'ST-DEVELOPER v20',
/* originating_system */ 'ONSHAPE BY PTC INC, 1.220',
/* authorisation */ '  ');

FILE_SCHEMA (('AP242_MANAGED_MODEL_BASED_3D_ENGINEERING_MIM_LF { 1 0 10303 442 3 1 4 }'));
ENDSEC;

DATA;
#10=SHAPE_REPRESENTATION_RELATIONSHIP('','',#601,#11);
#11=ADVANCED_BREP_SHAPE_REPRESENTATION('',(#599),#1057);
#12=SPHERICAL_SURFACE('',#618,0.003);
#13=SPHERICAL_SURFACE('',#622,0.003);
#14=SPHERICAL_SURFACE('',#637,0.003);
#15=SPHERICAL_SURFACE('',#640,0.003);
#16=B_SPLINE_CURVE_WITH_KNOTS('',3,(#918,#919,#920,#921,#922,#923,#924),
 .UNSPECIFIED.,.F.,.F.,(4,1,1,1,4),(0.,0.00121310402642789,0.00242620805285579,
0.00363931207928368,0.00485241610571157),.UNSPECIFIED.);
#17=B_SPLINE_CURVE_WITH_KNOTS('',3,(#929,#930,#931,#932,#933,#934,#935,
#936),.UNSPECIFIED.,.F.,.F.,(4,1,1,1,1,4),(1.4304896245382E-17,0.00123741676606349,
0.00247483353212696,0.00371225029819043,0.00433095868122217,0.00494966706425391),
 .UNSPECIFIED.);
#18=B_SPLINE_CURVE_WITH_KNOTS('',3,(#948,#949,#950,#951,#952,#953,#954),
 .UNSPECIFIED.,.F.,.F.,(4,1,1,1,4),(6.93889390390723E-18,0.00121137771712585,
0.00242275543425168,0.00363413315137752,0.00484551086850336),
 .UNSPECIFIED.);
#19=B_SPLINE_CURVE_WITH_KNOTS('',3,(#955,#956,#957,#958,#959,#960,#961),
 .UNSPECIFIED.,.F.,.F.,(4,1,1,1,4),(0.,0.00121477959097026,0.00242955918194052,
0.00364433877291078,0.00485911836388103),.UNSPECIFIED.);
#20=B_SPLINE_CURVE_WITH_KNOTS('',3,(#969,#970,#971,#972,#973,#974,#975,
#976),.UNSPECIFIED.,.F.,.F.,(4,1,1,1,1,4),(0.,0.0012371309658251,0.00247426193165021,
0.00371139289747531,0.00432995838038786,0.00494852386330041),
 .UNSPECIFIED.);
#21=B_SPLINE_CURVE_WITH_KNOTS('',3,(#978,#979,#980,#981,#982,#983,#984,
#985),.UNSPECIFIED.,.F.,.F.,(4,1,1,1,1,4),(0.,0.000619083261755964,0.00123816652351193,
0.00247633304702385,0.00371449957053578,0.00495266609404771),
 .UNSPECIFIED.);
#22=B_SPLINE_CURVE_WITH_KNOTS('',3,(#988,#989,#990,#991,#992,#993,#994,
#995),.UNSPECIFIED.,.F.,.F.,(4,1,1,1,1,4),(0.,0.000618946872238362,0.00123789374447672,
0.00247578748895345,0.00371368123343017,0.0049515749779069),
 .UNSPECIFIED.);
#23=B_SPLINE_CURVE_WITH_KNOTS('',3,(#1000,#1001,#1002,#1003,#1004,#1005,
#1006),.UNSPECIFIED.,.F.,.F.,(4,1,1,1,4),(0.,0.00121310616233128,0.00242621232466256,
0.00363931848699383,0.00485242464932511),.UNSPECIFIED.);
#24=CYLINDRICAL_SURFACE('',#615,0.003);
#25=CYLINDRICAL_SURFACE('',#626,0.003);
#26=CYLINDRICAL_SURFACE('',#628,0.003);
#27=CYLINDRICAL_SURFACE('',#630,0.003);
#28=CYLINDRICAL_SURFACE('',#632,0.003);
#29=CYLINDRICAL_SURFACE('',#634,0.003);
#30=CYLINDRICAL_SURFACE('',#643,0.003);
#31=CYLINDRICAL_SURFACE('',#645,0.003);
#32=CYLINDRICAL_SURFACE('',#656,0.00283541574357199);
#33=CYLINDRICAL_SURFACE('',#657,0.002835012375397);
#34=CYLINDRICAL_SURFACE('',#658,0.00279996096347162);
#35=CYLINDRICAL_SURFACE('',#659,0.00279735475447244);
#36=LINE('',#839,#82);
#37=LINE('',#843,#83);
#38=LINE('',#847,#84);
#39=LINE('',#851,#85);
#40=LINE('',#852,#86);
#41=LINE('',#855,#87);
#42=LINE('',#857,#88);
#43=LINE('',#859,#89);
#44=LINE('',#861,#90);
#45=LINE('',#866,#91);
#46=LINE('',#870,#92);
#47=LINE('',#872,#93);
#48=LINE('',#873,#94);
#49=LINE('',#876,#95);
#50=LINE('',#878,#96);
#51=LINE('',#880,#97);
#52=LINE('',#882,#98);
#53=LINE('',#885,#99);
#54=LINE('',#887,#100);
#55=LINE('',#889,#101);
#56=LINE('',#891,#102);
#57=LINE('',#894,#103);
#58=LINE('',#896,#104);
#59=LINE('',#898,#105);
#60=LINE('',#900,#106);
#61=LINE('',#903,#107);
#62=LINE('',#905,#108);
#63=LINE('',#907,#109);
#64=LINE('',#909,#110);
#65=LINE('',#912,#111);
#66=LINE('',#914,#112);
#67=LINE('',#916,#113);
#68=LINE('',#1022,#114);
#69=LINE('',#1027,#115);
#70=LINE('',#1029,#116);
#71=LINE('',#1031,#117);
#72=LINE('',#1035,#118);
#73=LINE('',#1036,#119);
#74=LINE('',#1038,#120);
#75=LINE('',#1040,#121);
#76=LINE('',#1042,#122);
#77=LINE('',#1043,#123);
#78=LINE('',#1049,#124);
#79=LINE('',#1050,#125);
#80=LINE('',#1052,#126);
#81=LINE('',#1054,#127);
#82=VECTOR('',#670,1.);
#83=VECTOR('',#673,1.);
#84=VECTOR('',#676,1.);
#85=VECTOR('',#679,1.);
#86=VECTOR('',#680,1.);
#87=VECTOR('',#681,1.);
#88=VECTOR('',#682,1.);
#89=VECTOR('',#683,1.);
#90=VECTOR('',#686,1.);
#91=VECTOR('',#689,1.);
#92=VECTOR('',#692,1.);
#93=VECTOR('',#693,1.);
#94=VECTOR('',#694,1.);
#95=VECTOR('',#695,1.);
#96=VECTOR('',#696,1.);
#97=VECTOR('',#697,1.);
#98=VECTOR('',#700,1.);
#99=VECTOR('',#701,1.);
#100=VECTOR('',#702,1.);
#101=VECTOR('',#703,1.);
#102=VECTOR('',#706,1.);
#103=VECTOR('',#707,1.);
#104=VECTOR('',#708,1.);
#105=VECTOR('',#709,1.);
#106=VECTOR('',#712,1.);
#107=VECTOR('',#713,1.);
#108=VECTOR('',#714,1.);
#109=VECTOR('',#715,1.);
#110=VECTOR('',#718,1.);
#111=VECTOR('',#719,1.);
#112=VECTOR('',#720,1.);
#113=VECTOR('',#721,1.);
#114=VECTOR('',#792,1.);
#115=VECTOR('',#795,1.);
#116=VECTOR('',#796,1.);
#117=VECTOR('',#797,1.);
#118=VECTOR('',#802,1.);
#119=VECTOR('',#803,1.);
#120=VECTOR('',#806,1.);
#121=VECTOR('',#809,1.);
#122=VECTOR('',#812,1.);
#123=VECTOR('',#813,1.);
#124=VECTOR('',#824,1.);
#125=VECTOR('',#825,1.);
#126=VECTOR('',#828,1.);
#127=VECTOR('',#831,1.);
#128=ORIENTED_EDGE('',*,*,#296,.F.);
#129=ORIENTED_EDGE('',*,*,#297,.T.);
#130=ORIENTED_EDGE('',*,*,#298,.F.);
#131=ORIENTED_EDGE('',*,*,#299,.T.);
#132=ORIENTED_EDGE('',*,*,#300,.F.);
#133=ORIENTED_EDGE('',*,*,#301,.T.);
#134=ORIENTED_EDGE('',*,*,#302,.F.);
#135=ORIENTED_EDGE('',*,*,#303,.T.);
#136=ORIENTED_EDGE('',*,*,#304,.F.);
#137=ORIENTED_EDGE('',*,*,#305,.T.);
#138=ORIENTED_EDGE('',*,*,#306,.T.);
#139=ORIENTED_EDGE('',*,*,#307,.F.);
#140=ORIENTED_EDGE('',*,*,#308,.F.);
#141=ORIENTED_EDGE('',*,*,#309,.T.);
#142=ORIENTED_EDGE('',*,*,#310,.T.);
#143=ORIENTED_EDGE('',*,*,#311,.T.);
#144=ORIENTED_EDGE('',*,*,#312,.T.);
#145=ORIENTED_EDGE('',*,*,#313,.F.);
#146=ORIENTED_EDGE('',*,*,#314,.F.);
#147=ORIENTED_EDGE('',*,*,#315,.T.);
#148=ORIENTED_EDGE('',*,*,#316,.T.);
#149=ORIENTED_EDGE('',*,*,#317,.F.);
#150=ORIENTED_EDGE('',*,*,#318,.F.);
#151=ORIENTED_EDGE('',*,*,#319,.T.);
#152=ORIENTED_EDGE('',*,*,#320,.T.);
#153=ORIENTED_EDGE('',*,*,#321,.T.);
#154=ORIENTED_EDGE('',*,*,#322,.T.);
#155=ORIENTED_EDGE('',*,*,#323,.T.);
#156=ORIENTED_EDGE('',*,*,#324,.T.);
#157=ORIENTED_EDGE('',*,*,#325,.T.);
#158=ORIENTED_EDGE('',*,*,#326,.T.);
#159=ORIENTED_EDGE('',*,*,#327,.T.);
#160=ORIENTED_EDGE('',*,*,#328,.T.);
#161=ORIENTED_EDGE('',*,*,#329,.T.);
#162=ORIENTED_EDGE('',*,*,#330,.F.);
#163=ORIENTED_EDGE('',*,*,#331,.T.);
#164=ORIENTED_EDGE('',*,*,#332,.T.);
#165=ORIENTED_EDGE('',*,*,#333,.T.);
#166=ORIENTED_EDGE('',*,*,#334,.F.);
#167=ORIENTED_EDGE('',*,*,#335,.F.);
#168=ORIENTED_EDGE('',*,*,#329,.F.);
#169=ORIENTED_EDGE('',*,*,#336,.F.);
#170=ORIENTED_EDGE('',*,*,#337,.F.);
#171=ORIENTED_EDGE('',*,*,#297,.F.);
#172=ORIENTED_EDGE('',*,*,#338,.F.);
#173=ORIENTED_EDGE('',*,*,#339,.F.);
#174=ORIENTED_EDGE('',*,*,#340,.F.);
#175=ORIENTED_EDGE('',*,*,#335,.T.);
#176=ORIENTED_EDGE('',*,*,#341,.F.);
#177=ORIENTED_EDGE('',*,*,#336,.T.);
#178=ORIENTED_EDGE('',*,*,#342,.F.);
#179=ORIENTED_EDGE('',*,*,#343,.F.);
#180=ORIENTED_EDGE('',*,*,#344,.F.);
#181=ORIENTED_EDGE('',*,*,#303,.F.);
#182=ORIENTED_EDGE('',*,*,#345,.F.);
#183=ORIENTED_EDGE('',*,*,#346,.F.);
#184=ORIENTED_EDGE('',*,*,#325,.F.);
#185=ORIENTED_EDGE('',*,*,#339,.T.);
#186=ORIENTED_EDGE('',*,*,#347,.F.);
#187=ORIENTED_EDGE('',*,*,#326,.F.);
#188=ORIENTED_EDGE('',*,*,#340,.T.);
#189=ORIENTED_EDGE('',*,*,#324,.F.);
#190=ORIENTED_EDGE('',*,*,#348,.F.);
#191=ORIENTED_EDGE('',*,*,#333,.F.);
#192=ORIENTED_EDGE('',*,*,#342,.T.);
#193=ORIENTED_EDGE('',*,*,#328,.F.);
#194=ORIENTED_EDGE('',*,*,#349,.F.);
#195=ORIENTED_EDGE('',*,*,#299,.F.);
#196=ORIENTED_EDGE('',*,*,#350,.F.);
#197=ORIENTED_EDGE('',*,*,#343,.T.);
#198=ORIENTED_EDGE('',*,*,#332,.F.);
#199=ORIENTED_EDGE('',*,*,#351,.F.);
#200=ORIENTED_EDGE('',*,*,#352,.F.);
#201=ORIENTED_EDGE('',*,*,#353,.F.);
#202=ORIENTED_EDGE('',*,*,#320,.F.);
#203=ORIENTED_EDGE('',*,*,#354,.F.);
#204=ORIENTED_EDGE('',*,*,#355,.F.);
#205=ORIENTED_EDGE('',*,*,#301,.F.);
#206=ORIENTED_EDGE('',*,*,#356,.F.);
#207=ORIENTED_EDGE('',*,*,#354,.T.);
#208=ORIENTED_EDGE('',*,*,#357,.F.);
#209=ORIENTED_EDGE('',*,*,#346,.T.);
#210=ORIENTED_EDGE('',*,*,#358,.F.);
#211=ORIENTED_EDGE('',*,*,#351,.T.);
#212=ORIENTED_EDGE('',*,*,#359,.F.);
#213=ORIENTED_EDGE('',*,*,#353,.T.);
#214=ORIENTED_EDGE('',*,*,#360,.F.);
#215=ORIENTED_EDGE('',*,*,#322,.F.);
#216=ORIENTED_EDGE('',*,*,#357,.T.);
#217=ORIENTED_EDGE('',*,*,#319,.F.);
#218=ORIENTED_EDGE('',*,*,#361,.F.);
#219=ORIENTED_EDGE('',*,*,#321,.F.);
#220=ORIENTED_EDGE('',*,*,#359,.T.);
#221=ORIENTED_EDGE('',*,*,#331,.F.);
#222=ORIENTED_EDGE('',*,*,#362,.T.);
#223=ORIENTED_EDGE('',*,*,#363,.T.);
#224=ORIENTED_EDGE('',*,*,#364,.F.);
#225=ORIENTED_EDGE('',*,*,#365,.T.);
#226=ORIENTED_EDGE('',*,*,#366,.F.);
#227=ORIENTED_EDGE('',*,*,#367,.T.);
#228=ORIENTED_EDGE('',*,*,#368,.T.);
#229=ORIENTED_EDGE('',*,*,#369,.T.);
#230=ORIENTED_EDGE('',*,*,#347,.T.);
#231=ORIENTED_EDGE('',*,*,#323,.F.);
#232=ORIENTED_EDGE('',*,*,#360,.T.);
#233=ORIENTED_EDGE('',*,*,#318,.T.);
#234=ORIENTED_EDGE('',*,*,#361,.T.);
#235=ORIENTED_EDGE('',*,*,#330,.T.);
#236=ORIENTED_EDGE('',*,*,#348,.T.);
#237=ORIENTED_EDGE('',*,*,#327,.F.);
#238=ORIENTED_EDGE('',*,*,#366,.T.);
#239=ORIENTED_EDGE('',*,*,#370,.T.);
#240=ORIENTED_EDGE('',*,*,#308,.T.);
#241=ORIENTED_EDGE('',*,*,#371,.T.);
#242=ORIENTED_EDGE('',*,*,#371,.F.);
#243=ORIENTED_EDGE('',*,*,#313,.T.);
#244=ORIENTED_EDGE('',*,*,#372,.T.);
#245=ORIENTED_EDGE('',*,*,#367,.F.);
#246=ORIENTED_EDGE('',*,*,#373,.F.);
#247=ORIENTED_EDGE('',*,*,#368,.F.);
#248=ORIENTED_EDGE('',*,*,#372,.F.);
#249=ORIENTED_EDGE('',*,*,#312,.F.);
#250=ORIENTED_EDGE('',*,*,#310,.F.);
#251=ORIENTED_EDGE('',*,*,#374,.T.);
#252=ORIENTED_EDGE('',*,*,#364,.T.);
#253=ORIENTED_EDGE('',*,*,#375,.T.);
#254=ORIENTED_EDGE('',*,*,#337,.T.);
#255=ORIENTED_EDGE('',*,*,#341,.T.);
#256=ORIENTED_EDGE('',*,*,#350,.T.);
#257=ORIENTED_EDGE('',*,*,#298,.T.);
#258=ORIENTED_EDGE('',*,*,#373,.T.);
#259=ORIENTED_EDGE('',*,*,#311,.F.);
#260=ORIENTED_EDGE('',*,*,#375,.F.);
#261=ORIENTED_EDGE('',*,*,#369,.F.);
#262=ORIENTED_EDGE('',*,*,#349,.T.);
#263=ORIENTED_EDGE('',*,*,#358,.T.);
#264=ORIENTED_EDGE('',*,*,#352,.T.);
#265=ORIENTED_EDGE('',*,*,#300,.T.);
#266=ORIENTED_EDGE('',*,*,#374,.F.);
#267=ORIENTED_EDGE('',*,*,#309,.F.);
#268=ORIENTED_EDGE('',*,*,#370,.F.);
#269=ORIENTED_EDGE('',*,*,#365,.F.);
#270=ORIENTED_EDGE('',*,*,#345,.T.);
#271=ORIENTED_EDGE('',*,*,#302,.T.);
#272=ORIENTED_EDGE('',*,*,#355,.T.);
#273=ORIENTED_EDGE('',*,*,#356,.T.);
#274=ORIENTED_EDGE('',*,*,#363,.F.);
#275=ORIENTED_EDGE('',*,*,#334,.T.);
#276=ORIENTED_EDGE('',*,*,#296,.T.);
#277=ORIENTED_EDGE('',*,*,#344,.T.);
#278=ORIENTED_EDGE('',*,*,#338,.T.);
#279=ORIENTED_EDGE('',*,*,#362,.F.);
#280=ORIENTED_EDGE('',*,*,#314,.T.);
#281=ORIENTED_EDGE('',*,*,#376,.T.);
#282=ORIENTED_EDGE('',*,*,#305,.F.);
#283=ORIENTED_EDGE('',*,*,#377,.F.);
#284=ORIENTED_EDGE('',*,*,#377,.T.);
#285=ORIENTED_EDGE('',*,*,#304,.T.);
#286=ORIENTED_EDGE('',*,*,#378,.F.);
#287=ORIENTED_EDGE('',*,*,#315,.F.);
#288=ORIENTED_EDGE('',*,*,#378,.T.);
#289=ORIENTED_EDGE('',*,*,#307,.T.);
#290=ORIENTED_EDGE('',*,*,#379,.F.);
#291=ORIENTED_EDGE('',*,*,#316,.F.);
#292=ORIENTED_EDGE('',*,*,#317,.T.);
#293=ORIENTED_EDGE('',*,*,#379,.T.);
#294=ORIENTED_EDGE('',*,*,#306,.F.);
#295=ORIENTED_EDGE('',*,*,#376,.F.);
#296=EDGE_CURVE('',#380,#381,#434,.T.);
#297=EDGE_CURVE('',#380,#382,#36,.T.);
#298=EDGE_CURVE('',#383,#382,#435,.T.);
#299=EDGE_CURVE('',#383,#384,#37,.F.);
#300=EDGE_CURVE('',#385,#384,#436,.T.);
#301=EDGE_CURVE('',#385,#386,#38,.F.);
#302=EDGE_CURVE('',#387,#386,#437,.T.);
#303=EDGE_CURVE('',#387,#381,#39,.T.);
#304=EDGE_CURVE('',#388,#389,#40,.T.);
#305=EDGE_CURVE('',#388,#390,#41,.T.);
#306=EDGE_CURVE('',#390,#391,#42,.T.);
#307=EDGE_CURVE('',#389,#391,#43,.T.);
#308=EDGE_CURVE('',#392,#393,#44,.T.);
#309=EDGE_CURVE('',#392,#394,#438,.T.);
#310=EDGE_CURVE('',#394,#395,#45,.T.);
#311=EDGE_CURVE('',#395,#396,#439,.T.);
#312=EDGE_CURVE('',#396,#397,#46,.T.);
#313=EDGE_CURVE('',#393,#397,#47,.T.);
#314=EDGE_CURVE('',#398,#399,#48,.T.);
#315=EDGE_CURVE('',#398,#400,#49,.T.);
#316=EDGE_CURVE('',#400,#401,#50,.T.);
#317=EDGE_CURVE('',#399,#401,#51,.T.);
#318=EDGE_CURVE('',#402,#403,#52,.T.);
#319=EDGE_CURVE('',#402,#404,#53,.F.);
#320=EDGE_CURVE('',#404,#405,#54,.T.);
#321=EDGE_CURVE('',#405,#403,#55,.T.);
#322=EDGE_CURVE('',#406,#407,#56,.T.);
#323=EDGE_CURVE('',#407,#408,#57,.T.);
#324=EDGE_CURVE('',#408,#409,#58,.F.);
#325=EDGE_CURVE('',#409,#406,#59,.F.);
#326=EDGE_CURVE('',#410,#411,#60,.T.);
#327=EDGE_CURVE('',#411,#412,#61,.T.);
#328=EDGE_CURVE('',#412,#413,#62,.F.);
#329=EDGE_CURVE('',#413,#410,#63,.F.);
#330=EDGE_CURVE('',#414,#415,#64,.T.);
#331=EDGE_CURVE('',#414,#416,#65,.F.);
#332=EDGE_CURVE('',#416,#417,#66,.T.);
#333=EDGE_CURVE('',#417,#415,#67,.T.);
#334=EDGE_CURVE('',#418,#380,#16,.T.);
#335=EDGE_CURVE('',#410,#418,#440,.T.);
#336=EDGE_CURVE('',#419,#413,#441,.T.);
#337=EDGE_CURVE('',#382,#419,#17,.T.);
#338=EDGE_CURVE('',#420,#418,#442,.F.);
#339=EDGE_CURVE('',#409,#420,#443,.F.);
#340=EDGE_CURVE('',#410,#409,#444,.F.);
#341=EDGE_CURVE('',#419,#421,#445,.F.);
#342=EDGE_CURVE('',#417,#413,#446,.F.);
#343=EDGE_CURVE('',#421,#417,#447,.F.);
#344=EDGE_CURVE('',#381,#420,#18,.T.);
#345=EDGE_CURVE('',#422,#387,#19,.T.);
#346=EDGE_CURVE('',#406,#422,#448,.T.);
#347=EDGE_CURVE('',#411,#408,#449,.F.);
#348=EDGE_CURVE('',#415,#412,#450,.F.);
#349=EDGE_CURVE('',#384,#423,#20,.T.);
#350=EDGE_CURVE('',#421,#383,#21,.T.);
#351=EDGE_CURVE('',#423,#416,#451,.T.);
#352=EDGE_CURVE('',#424,#385,#22,.T.);
#353=EDGE_CURVE('',#405,#424,#452,.T.);
#354=EDGE_CURVE('',#425,#404,#453,.T.);
#355=EDGE_CURVE('',#386,#425,#23,.T.);
#356=EDGE_CURVE('',#425,#422,#454,.F.);
#357=EDGE_CURVE('',#406,#404,#455,.F.);
#358=EDGE_CURVE('',#423,#424,#456,.F.);
#359=EDGE_CURVE('',#405,#416,#457,.F.);
#360=EDGE_CURVE('',#407,#402,#458,.F.);
#361=EDGE_CURVE('',#403,#414,#459,.F.);
#362=EDGE_CURVE('',#426,#426,#460,.T.);
#363=EDGE_CURVE('',#427,#427,#461,.T.);
#364=EDGE_CURVE('',#428,#429,#68,.T.);
#365=EDGE_CURVE('',#428,#430,#462,.T.);
#366=EDGE_CURVE('',#431,#430,#69,.T.);
#367=EDGE_CURVE('',#431,#432,#70,.T.);
#368=EDGE_CURVE('',#432,#433,#71,.T.);
#369=EDGE_CURVE('',#433,#429,#463,.T.);
#370=EDGE_CURVE('',#430,#392,#72,.T.);
#371=EDGE_CURVE('',#393,#431,#73,.T.);
#372=EDGE_CURVE('',#397,#432,#74,.T.);
#373=EDGE_CURVE('',#433,#396,#75,.T.);
#374=EDGE_CURVE('',#394,#428,#76,.F.);
#375=EDGE_CURVE('',#429,#395,#77,.T.);
#376=EDGE_CURVE('',#399,#390,#78,.T.);
#377=EDGE_CURVE('',#398,#388,#79,.T.);
#378=EDGE_CURVE('',#400,#389,#80,.T.);
#379=EDGE_CURVE('',#401,#391,#81,.T.);
#380=VERTEX_POINT('',#837);
#381=VERTEX_POINT('',#838);
#382=VERTEX_POINT('',#840);
#383=VERTEX_POINT('',#842);
#384=VERTEX_POINT('',#844);
#385=VERTEX_POINT('',#846);
#386=VERTEX_POINT('',#848);
#387=VERTEX_POINT('',#850);
#388=VERTEX_POINT('',#853);
#389=VERTEX_POINT('',#854);
#390=VERTEX_POINT('',#856);
#391=VERTEX_POINT('',#858);
#392=VERTEX_POINT('',#862);
#393=VERTEX_POINT('',#863);
#394=VERTEX_POINT('',#865);
#395=VERTEX_POINT('',#867);
#396=VERTEX_POINT('',#869);
#397=VERTEX_POINT('',#871);
#398=VERTEX_POINT('',#874);
#399=VERTEX_POINT('',#875);
#400=VERTEX_POINT('',#877);
#401=VERTEX_POINT('',#879);
#402=VERTEX_POINT('',#883);
#403=VERTEX_POINT('',#884);
#404=VERTEX_POINT('',#886);
#405=VERTEX_POINT('',#888);
#406=VERTEX_POINT('',#892);
#407=VERTEX_POINT('',#893);
#408=VERTEX_POINT('',#895);
#409=VERTEX_POINT('',#897);
#410=VERTEX_POINT('',#901);
#411=VERTEX_POINT('',#902);
#412=VERTEX_POINT('',#904);
#413=VERTEX_POINT('',#906);
#414=VERTEX_POINT('',#910);
#415=VERTEX_POINT('',#911);
#416=VERTEX_POINT('',#913);
#417=VERTEX_POINT('',#915);
#418=VERTEX_POINT('',#925);
#419=VERTEX_POINT('',#928);
#420=VERTEX_POINT('',#939);
#421=VERTEX_POINT('',#944);
#422=VERTEX_POINT('',#962);
#423=VERTEX_POINT('',#977);
#424=VERTEX_POINT('',#996);
#425=VERTEX_POINT('',#999);
#426=VERTEX_POINT('',#1019);
#427=VERTEX_POINT('',#1021);
#428=VERTEX_POINT('',#1023);
#429=VERTEX_POINT('',#1024);
#430=VERTEX_POINT('',#1026);
#431=VERTEX_POINT('',#1028);
#432=VERTEX_POINT('',#1030);
#433=VERTEX_POINT('',#1032);
#434=CIRCLE('',#604,0.00279735475447244);
#435=CIRCLE('',#605,0.00283541574357199);
#436=CIRCLE('',#606,0.002835012375397);
#437=CIRCLE('',#607,0.00279996096347162);
#438=CIRCLE('',#609,0.002835012375397);
#439=CIRCLE('',#610,0.00283541574357199);
#440=CIRCLE('',#616,0.003);
#441=CIRCLE('',#617,0.003);
#442=CIRCLE('',#619,0.00279735475447244);
#443=CIRCLE('',#620,0.003);
#444=CIRCLE('',#621,0.003);
#445=CIRCLE('',#623,0.00283541574357199);
#446=CIRCLE('',#624,0.003);
#447=CIRCLE('',#625,0.003);
#448=CIRCLE('',#627,0.003);
#449=CIRCLE('',#629,0.003);
#450=CIRCLE('',#631,0.003);
#451=CIRCLE('',#633,0.003);
#452=CIRCLE('',#635,0.003);
#453=CIRCLE('',#636,0.003);
#454=CIRCLE('',#638,0.00279996096347162);
#455=CIRCLE('',#639,0.003);
#456=CIRCLE('',#641,0.002835012375397);
#457=CIRCLE('',#642,0.003);
#458=CIRCLE('',#644,0.003);
#459=CIRCLE('',#646,0.003);
#460=CIRCLE('',#648,0.00279735475447244);
#461=CIRCLE('',#649,0.00279996096347162);
#462=CIRCLE('',#650,0.002835012375397);
#463=CIRCLE('',#651,0.00283541574357199);
#464=EDGE_LOOP('',(#128,#129,#130,#131,#132,#133,#134,#135));
#465=EDGE_LOOP('',(#136,#137,#138,#139));
#466=EDGE_LOOP('',(#140,#141,#142,#143,#144,#145));
#467=EDGE_LOOP('',(#146,#147,#148,#149));
#468=EDGE_LOOP('',(#150,#151,#152,#153));
#469=EDGE_LOOP('',(#154,#155,#156,#157));
#470=EDGE_LOOP('',(#158,#159,#160,#161));
#471=EDGE_LOOP('',(#162,#163,#164,#165));
#472=EDGE_LOOP('',(#166,#167,#168,#169,#170,#171));
#473=EDGE_LOOP('',(#172,#173,#174,#175));
#474=EDGE_LOOP('',(#176,#177,#178,#179));
#475=EDGE_LOOP('',(#180,#181,#182,#183,#184,#185));
#476=EDGE_LOOP('',(#186,#187,#188,#189));
#477=EDGE_LOOP('',(#190,#191,#192,#193));
#478=EDGE_LOOP('',(#194,#195,#196,#197,#198,#199));
#479=EDGE_LOOP('',(#200,#201,#202,#203,#204,#205));
#480=EDGE_LOOP('',(#206,#207,#208,#209));
#481=EDGE_LOOP('',(#210,#211,#212,#213));
#482=EDGE_LOOP('',(#214,#215,#216,#217));
#483=EDGE_LOOP('',(#218,#219,#220,#221));
#484=EDGE_LOOP('',(#222));
#485=EDGE_LOOP('',(#223));
#486=EDGE_LOOP('',(#224,#225,#226,#227,#228,#229));
#487=EDGE_LOOP('',(#230,#231,#232,#233,#234,#235,#236,#237));
#488=EDGE_LOOP('',(#238,#239,#240,#241));
#489=EDGE_LOOP('',(#242,#243,#244,#245));
#490=EDGE_LOOP('',(#246,#247,#248,#249));
#491=EDGE_LOOP('',(#250,#251,#252,#253));
#492=EDGE_LOOP('',(#254,#255,#256,#257));
#493=EDGE_LOOP('',(#258,#259,#260,#261));
#494=EDGE_LOOP('',(#262,#263,#264,#265));
#495=EDGE_LOOP('',(#266,#267,#268,#269));
#496=EDGE_LOOP('',(#270,#271,#272,#273));
#497=EDGE_LOOP('',(#274));
#498=EDGE_LOOP('',(#275,#276,#277,#278));
#499=EDGE_LOOP('',(#279));
#500=EDGE_LOOP('',(#280,#281,#282,#283));
#501=EDGE_LOOP('',(#284,#285,#286,#287));
#502=EDGE_LOOP('',(#288,#289,#290,#291));
#503=EDGE_LOOP('',(#292,#293,#294,#295));
#504=FACE_BOUND('',#464,.T.);
#505=FACE_BOUND('',#465,.T.);
#506=FACE_BOUND('',#466,.T.);
#507=FACE_BOUND('',#467,.T.);
#508=FACE_BOUND('',#468,.T.);
#509=FACE_BOUND('',#469,.T.);
#510=FACE_BOUND('',#470,.T.);
#511=FACE_BOUND('',#471,.T.);
#512=FACE_BOUND('',#472,.T.);
#513=FACE_BOUND('',#473,.T.);
#514=FACE_BOUND('',#474,.T.);
#515=FACE_BOUND('',#475,.T.);
#516=FACE_BOUND('',#476,.T.);
#517=FACE_BOUND('',#477,.T.);
#518=FACE_BOUND('',#478,.T.);
#519=FACE_BOUND('',#479,.T.);
#520=FACE_BOUND('',#480,.T.);
#521=FACE_BOUND('',#481,.T.);
#522=FACE_BOUND('',#482,.T.);
#523=FACE_BOUND('',#483,.T.);
#524=FACE_BOUND('',#484,.T.);
#525=FACE_BOUND('',#485,.T.);
#526=FACE_BOUND('',#486,.T.);
#527=FACE_BOUND('',#487,.T.);
#528=FACE_BOUND('',#488,.T.);
#529=FACE_BOUND('',#489,.T.);
#530=FACE_BOUND('',#490,.T.);
#531=FACE_BOUND('',#491,.T.);
#532=FACE_BOUND('',#492,.T.);
#533=FACE_BOUND('',#493,.T.);
#534=FACE_BOUND('',#494,.T.);
#535=FACE_BOUND('',#495,.T.);
#536=FACE_BOUND('',#496,.T.);
#537=FACE_BOUND('',#497,.T.);
#538=FACE_BOUND('',#498,.T.);
#539=FACE_BOUND('',#499,.T.);
#540=FACE_BOUND('',#500,.T.);
#541=FACE_BOUND('',#501,.T.);
#542=FACE_BOUND('',#502,.T.);
#543=FACE_BOUND('',#503,.T.);
#544=PLANE('',#603);
#545=PLANE('',#608);
#546=PLANE('',#611);
#547=PLANE('',#612);
#548=PLANE('',#613);
#549=PLANE('',#614);
#550=PLANE('',#647);
#551=PLANE('',#652);
#552=PLANE('',#653);
#553=PLANE('',#654);
#554=PLANE('',#655);
#555=PLANE('',#660);
#556=PLANE('',#661);
#557=PLANE('',#662);
#558=PLANE('',#663);
#559=ADVANCED_FACE('',(#504,#505),#544,.T.);
#560=ADVANCED_FACE('',(#506,#507),#545,.F.);
#561=ADVANCED_FACE('',(#508),#546,.T.);
#562=ADVANCED_FACE('',(#509),#547,.F.);
#563=ADVANCED_FACE('',(#510),#548,.F.);
#564=ADVANCED_FACE('',(#511),#549,.T.);
#565=ADVANCED_FACE('',(#512),#24,.T.);
#566=ADVANCED_FACE('',(#513),#12,.T.);
#567=ADVANCED_FACE('',(#514),#13,.T.);
#568=ADVANCED_FACE('',(#515),#25,.T.);
#569=ADVANCED_FACE('',(#516),#26,.T.);
#570=ADVANCED_FACE('',(#517),#27,.T.);
#571=ADVANCED_FACE('',(#518),#28,.T.);
#572=ADVANCED_FACE('',(#519),#29,.T.);
#573=ADVANCED_FACE('',(#520),#14,.T.);
#574=ADVANCED_FACE('',(#521),#15,.T.);
#575=ADVANCED_FACE('',(#522),#30,.T.);
#576=ADVANCED_FACE('',(#523),#31,.T.);
#577=ADVANCED_FACE('',(#524,#525,#526,#527),#550,.F.);
#578=ADVANCED_FACE('',(#528),#551,.F.);
#579=ADVANCED_FACE('',(#529),#552,.T.);
#580=ADVANCED_FACE('',(#530),#553,.T.);
#581=ADVANCED_FACE('',(#531),#554,.F.);
#582=ADVANCED_FACE('',(#532,#533),#32,.F.);
#583=ADVANCED_FACE('',(#534,#535),#33,.F.);
#584=ADVANCED_FACE('',(#536,#537),#34,.F.);
#585=ADVANCED_FACE('',(#538,#539),#35,.F.);
#586=ADVANCED_FACE('',(#540),#555,.T.);
#587=ADVANCED_FACE('',(#541),#556,.F.);
#588=ADVANCED_FACE('',(#542),#557,.F.);
#589=ADVANCED_FACE('',(#543),#558,.T.);
#590=CLOSED_SHELL('',(#559,#560,#561,#562,#563,#564,#565,#566,#567,#568,
#569,#570,#571,#572,#573,#574,#575,#576,#577,#578,#579,#580,#581,#582,#583,
#584,#585,#586,#587,#588,#589));
#591=STYLED_ITEM('',(#592),#599);
#592=PRESENTATION_STYLE_ASSIGNMENT((#593));
#593=SURFACE_STYLE_USAGE(.BOTH.,#594);
#594=SURFACE_SIDE_STYLE('',(#595));
#595=SURFACE_STYLE_FILL_AREA(#596);
#596=FILL_AREA_STYLE('',(#597));
#597=FILL_AREA_STYLE_COLOUR('',#598);
#598=COLOUR_RGB('',0.615686274509804,0.811764705882353,0.929411764705882);
#599=MANIFOLD_SOLID_BREP('Part 2',#590);
#600=SHAPE_DEFINITION_REPRESENTATION(#1062,#601);
#601=SHAPE_REPRESENTATION('Part 2',(#602),#1057);
#602=AXIS2_PLACEMENT_3D('',#834,#664,#665);
#603=AXIS2_PLACEMENT_3D('',#835,#666,#667);
#604=AXIS2_PLACEMENT_3D('',#836,#668,#669);
#605=AXIS2_PLACEMENT_3D('',#841,#671,#672);
#606=AXIS2_PLACEMENT_3D('',#845,#674,#675);
#607=AXIS2_PLACEMENT_3D('',#849,#677,#678);
#608=AXIS2_PLACEMENT_3D('',#860,#684,#685);
#609=AXIS2_PLACEMENT_3D('',#864,#687,#688);
#610=AXIS2_PLACEMENT_3D('',#868,#690,#691);
#611=AXIS2_PLACEMENT_3D('',#881,#698,#699);
#612=AXIS2_PLACEMENT_3D('',#890,#704,#705);
#613=AXIS2_PLACEMENT_3D('',#899,#710,#711);
#614=AXIS2_PLACEMENT_3D('',#908,#716,#717);
#615=AXIS2_PLACEMENT_3D('',#917,#722,#723);
#616=AXIS2_PLACEMENT_3D('',#926,#724,#725);
#617=AXIS2_PLACEMENT_3D('',#927,#726,#727);
#618=AXIS2_PLACEMENT_3D('',#937,#728,#729);
#619=AXIS2_PLACEMENT_3D('',#938,#730,#731);
#620=AXIS2_PLACEMENT_3D('',#940,#732,#733);
#621=AXIS2_PLACEMENT_3D('',#941,#734,#735);
#622=AXIS2_PLACEMENT_3D('',#942,#736,#737);
#623=AXIS2_PLACEMENT_3D('',#943,#738,#739);
#624=AXIS2_PLACEMENT_3D('',#945,#740,#741);
#625=AXIS2_PLACEMENT_3D('',#946,#742,#743);
#626=AXIS2_PLACEMENT_3D('',#947,#744,#745);
#627=AXIS2_PLACEMENT_3D('',#963,#746,#747);
#628=AXIS2_PLACEMENT_3D('',#964,#748,#749);
#629=AXIS2_PLACEMENT_3D('',#965,#750,#751);
#630=AXIS2_PLACEMENT_3D('',#966,#752,#753);
#631=AXIS2_PLACEMENT_3D('',#967,#754,#755);
#632=AXIS2_PLACEMENT_3D('',#968,#756,#757);
#633=AXIS2_PLACEMENT_3D('',#986,#758,#759);
#634=AXIS2_PLACEMENT_3D('',#987,#760,#761);
#635=AXIS2_PLACEMENT_3D('',#997,#762,#763);
#636=AXIS2_PLACEMENT_3D('',#998,#764,#765);
#637=AXIS2_PLACEMENT_3D('',#1007,#766,#767);
#638=AXIS2_PLACEMENT_3D('',#1008,#768,#769);
#639=AXIS2_PLACEMENT_3D('',#1009,#770,#771);
#640=AXIS2_PLACEMENT_3D('',#1010,#772,#773);
#641=AXIS2_PLACEMENT_3D('',#1011,#774,#775);
#642=AXIS2_PLACEMENT_3D('',#1012,#776,#777);
#643=AXIS2_PLACEMENT_3D('',#1013,#778,#779);
#644=AXIS2_PLACEMENT_3D('',#1014,#780,#781);
#645=AXIS2_PLACEMENT_3D('',#1015,#782,#783);
#646=AXIS2_PLACEMENT_3D('',#1016,#784,#785);
#647=AXIS2_PLACEMENT_3D('',#1017,#786,#787);
#648=AXIS2_PLACEMENT_3D('',#1018,#788,#789);
#649=AXIS2_PLACEMENT_3D('',#1020,#790,#791);
#650=AXIS2_PLACEMENT_3D('',#1025,#793,#794);
#651=AXIS2_PLACEMENT_3D('',#1033,#798,#799);
#652=AXIS2_PLACEMENT_3D('',#1034,#800,#801);
#653=AXIS2_PLACEMENT_3D('',#1037,#804,#805);
#654=AXIS2_PLACEMENT_3D('',#1039,#807,#808);
#655=AXIS2_PLACEMENT_3D('',#1041,#810,#811);
#656=AXIS2_PLACEMENT_3D('',#1044,#814,#815);
#657=AXIS2_PLACEMENT_3D('',#1045,#816,#817);
#658=AXIS2_PLACEMENT_3D('',#1046,#818,#819);
#659=AXIS2_PLACEMENT_3D('',#1047,#820,#821);
#660=AXIS2_PLACEMENT_3D('',#1048,#822,#823);
#661=AXIS2_PLACEMENT_3D('',#1051,#826,#827);
#662=AXIS2_PLACEMENT_3D('',#1053,#829,#830);
#663=AXIS2_PLACEMENT_3D('',#1055,#832,#833);
#664=DIRECTION('',(0.,0.,1.));
#665=DIRECTION('',(1.,0.,0.));
#666=DIRECTION('',(0.,0.,1.));
#667=DIRECTION('',(1.,0.,0.));
#668=DIRECTION('',(0.,0.,1.));
#669=DIRECTION('',(1.,0.,0.));
#670=DIRECTION('',(1.,0.,0.));
#671=DIRECTION('',(0.,0.,1.));
#672=DIRECTION('',(1.,0.,0.));
#673=DIRECTION('',(0.,-1.,0.));
#674=DIRECTION('',(0.,0.,1.));
#675=DIRECTION('',(1.,0.,0.));
#676=DIRECTION('',(1.,0.,0.));
#677=DIRECTION('',(0.,0.,1.));
#678=DIRECTION('',(1.,0.,0.));
#679=DIRECTION('',(0.,-1.,0.));
#680=DIRECTION('',(-1.,0.,0.));
#681=DIRECTION('',(0.,-1.,0.));
#682=DIRECTION('',(-1.,0.,0.));
#683=DIRECTION('',(0.,-1.,0.));
#684=DIRECTION('',(0.,0.,1.));
#685=DIRECTION('',(1.,0.,0.));
#686=DIRECTION('',(-1.,0.,0.));
#687=DIRECTION('',(0.,0.,1.));
#688=DIRECTION('',(1.,0.,0.));
#689=DIRECTION('',(0.,-1.,0.));
#690=DIRECTION('',(0.,0.,1.));
#691=DIRECTION('',(1.,0.,0.));
#692=DIRECTION('',(-1.,0.,0.));
#693=DIRECTION('',(0.,-1.,0.));
#694=DIRECTION('',(0.,-1.,0.));
#695=DIRECTION('',(-1.,0.,0.));
#696=DIRECTION('',(0.,-1.,0.));
#697=DIRECTION('',(-1.,0.,0.));
#698=DIRECTION('',(0.,1.,0.));
#699=DIRECTION('',(0.,0.,1.));
#700=DIRECTION('',(1.,0.,0.));
#701=DIRECTION('',(0.,0.,-1.));
#702=DIRECTION('',(1.,0.,0.));
#703=DIRECTION('',(0.,0.,-1.));
#704=DIRECTION('',(1.,0.,0.));
#705=DIRECTION('',(0.,0.,-1.));
#706=DIRECTION('',(0.,0.,-1.));
#707=DIRECTION('',(0.,-1.,0.));
#708=DIRECTION('',(0.,0.,-1.));
#709=DIRECTION('',(0.,-1.,0.));
#710=DIRECTION('',(0.,1.,0.));
#711=DIRECTION('',(0.,0.,1.));
#712=DIRECTION('',(0.,0.,-1.));
#713=DIRECTION('',(1.,0.,0.));
#714=DIRECTION('',(0.,0.,-1.));
#715=DIRECTION('',(1.,0.,0.));
#716=DIRECTION('',(1.,0.,0.));
#717=DIRECTION('',(0.,0.,-1.));
#718=DIRECTION('',(0.,-1.,0.));
#719=DIRECTION('',(0.,0.,-1.));
#720=DIRECTION('',(0.,-1.,0.));
#721=DIRECTION('',(0.,0.,-1.));
#722=DIRECTION('',(-1.,0.,0.));
#723=DIRECTION('',(0.,0.,1.));
#724=DIRECTION('',(-1.,0.,0.));
#725=DIRECTION('',(0.,0.,1.));
#726=DIRECTION('',(1.,0.,0.));
#727=DIRECTION('',(0.,0.,-1.));
#728=DIRECTION('',(0.,0.,1.));
#729=DIRECTION('',(1.,0.,0.));
#730=DIRECTION('',(0.,0.,-1.));
#731=DIRECTION('',(-1.,0.,0.));
#732=DIRECTION('',(0.,-1.,0.));
#733=DIRECTION('',(0.,0.,-1.));
#734=DIRECTION('',(0.,0.,1.));
#735=DIRECTION('',(1.,0.,0.));
#736=DIRECTION('',(0.,-1.,0.));
#737=DIRECTION('',(0.,0.,-1.));
#738=DIRECTION('',(0.,0.,-1.));
#739=DIRECTION('',(-1.,0.,0.));
#740=DIRECTION('',(0.,0.,1.));
#741=DIRECTION('',(1.,0.,0.));
#742=DIRECTION('',(0.,-1.,-2.31296463463575E-15));
#743=DIRECTION('',(0.,2.31296463463575E-15,-1.));
#744=DIRECTION('',(0.,1.,0.));
#745=DIRECTION('',(0.,0.,1.));
#746=DIRECTION('',(0.,1.,-2.31296463463575E-15));
#747=DIRECTION('',(0.,2.31296463463575E-15,1.));
#748=DIRECTION('',(0.,0.,-1.));
#749=DIRECTION('',(-1.,0.,0.));
#750=DIRECTION('',(0.,0.,1.));
#751=DIRECTION('',(1.,0.,0.));
#752=DIRECTION('',(0.,0.,1.));
#753=DIRECTION('',(1.,0.,0.));
#754=DIRECTION('',(0.,0.,1.));
#755=DIRECTION('',(1.,0.,0.));
#756=DIRECTION('',(0.,-1.,0.));
#757=DIRECTION('',(0.,0.,-1.));
#758=DIRECTION('',(0.,1.,0.));
#759=DIRECTION('',(0.,0.,1.));
#760=DIRECTION('',(1.,0.,0.));
#761=DIRECTION('',(0.,0.,-1.));
#762=DIRECTION('',(1.,0.,0.));
#763=DIRECTION('',(0.,0.,-1.));
#764=DIRECTION('',(-1.,0.,0.));
#765=DIRECTION('',(0.,0.,1.));
#766=DIRECTION('',(0.,0.,1.));
#767=DIRECTION('',(1.,0.,0.));
#768=DIRECTION('',(0.,0.,-1.));
#769=DIRECTION('',(-1.,0.,0.));
#770=DIRECTION('',(0.,0.,1.));
#771=DIRECTION('',(1.,0.,0.));
#772=DIRECTION('',(0.,0.,1.));
#773=DIRECTION('',(1.,0.,0.));
#774=DIRECTION('',(0.,0.,-1.));
#775=DIRECTION('',(-1.,0.,0.));
#776=DIRECTION('',(0.,0.,1.));
#777=DIRECTION('',(1.,0.,0.));
#778=DIRECTION('',(0.,0.,1.));
#779=DIRECTION('',(1.,0.,0.));
#780=DIRECTION('',(0.,0.,1.));
#781=DIRECTION('',(1.,0.,0.));
#782=DIRECTION('',(0.,0.,-1.));
#783=DIRECTION('',(-1.,0.,0.));
#784=DIRECTION('',(0.,0.,1.));
#785=DIRECTION('',(1.,0.,0.));
#786=DIRECTION('',(0.,0.,1.));
#787=DIRECTION('',(1.,0.,0.));
#788=DIRECTION('',(0.,0.,1.));
#789=DIRECTION('',(1.,0.,0.));
#790=DIRECTION('',(0.,0.,1.));
#791=DIRECTION('',(1.,0.,0.));
#792=DIRECTION('',(0.,-1.,0.));
#793=DIRECTION('',(0.,0.,1.));
#794=DIRECTION('',(1.,0.,0.));
#795=DIRECTION('',(1.,0.,0.));
#796=DIRECTION('',(0.,-1.,0.));
#797=DIRECTION('',(1.,0.,0.));
#798=DIRECTION('',(0.,0.,1.));
#799=DIRECTION('',(1.,0.,0.));
#800=DIRECTION('',(0.,1.,0.));
#801=DIRECTION('',(0.,0.,1.));
#802=DIRECTION('',(0.,0.,1.));
#803=DIRECTION('',(0.,0.,-1.));
#804=DIRECTION('',(1.,0.,0.));
#805=DIRECTION('',(0.,0.,-1.));
#806=DIRECTION('',(0.,0.,-1.));
#807=DIRECTION('',(0.,1.,0.));
#808=DIRECTION('',(0.,0.,1.));
#809=DIRECTION('',(0.,0.,1.));
#810=DIRECTION('',(1.,0.,0.));
#811=DIRECTION('',(0.,0.,-1.));
#812=DIRECTION('',(0.,0.,1.));
#813=DIRECTION('',(0.,0.,1.));
#814=DIRECTION('',(0.,0.,1.));
#815=DIRECTION('',(1.,0.,0.));
#816=DIRECTION('',(0.,0.,1.));
#817=DIRECTION('',(1.,0.,0.));
#818=DIRECTION('',(0.,0.,1.));
#819=DIRECTION('',(1.,0.,0.));
#820=DIRECTION('',(0.,0.,1.));
#821=DIRECTION('',(1.,0.,0.));
#822=DIRECTION('',(-1.,0.,0.));
#823=DIRECTION('',(0.,0.,1.));
#824=DIRECTION('',(0.,0.,1.));
#825=DIRECTION('',(0.,0.,1.));
#826=DIRECTION('',(0.,1.,0.));
#827=DIRECTION('',(0.,0.,1.));
#828=DIRECTION('',(0.,0.,1.));
#829=DIRECTION('',(-1.,0.,0.));
#830=DIRECTION('',(0.,0.,1.));
#831=DIRECTION('',(0.,0.,1.));
#832=DIRECTION('',(0.,1.,0.));
#833=DIRECTION('',(0.,0.,1.));
#834=CARTESIAN_POINT('',(0.,0.,0.));
#835=CARTESIAN_POINT('',(0.,0.,0.01905));
#836=CARTESIAN_POINT('',(-0.0565075222519403,-0.0348659362537915,0.01905));
#837=CARTESIAN_POINT('',(-0.0537101674974679,-0.0348659362537915,0.01905));
#838=CARTESIAN_POINT('',(-0.0565075222519403,-0.032068581499319,0.01905));
#839=CARTESIAN_POINT('',(0.0595075222519403,-0.0348659362537915,0.01905));
#840=CARTESIAN_POINT('',(0.0536721065083683,-0.0348659362537915,0.01905));
#841=CARTESIAN_POINT('',(0.0565075222519403,-0.0348659362537915,0.01905));
#842=CARTESIAN_POINT('',(0.0565075222519403,-0.0320305205102195,0.01905));
#843=CARTESIAN_POINT('',(0.0565075222519403,0.,0.01905));
#844=CARTESIAN_POINT('',(0.0565075222519403,0.0320309238783945,0.01905));
#845=CARTESIAN_POINT('',(0.0565075222519403,0.0348659362537915,0.01905));
#846=CARTESIAN_POINT('',(0.0536725098765433,0.0348659362537915,0.01905));
#847=CARTESIAN_POINT('',(0.,0.0348659362537915,0.01905));
#848=CARTESIAN_POINT('',(-0.0537075612884687,0.0348659362537915,0.01905));
#849=CARTESIAN_POINT('',(-0.0565075222519403,0.0348659362537915,0.01905));
#850=CARTESIAN_POINT('',(-0.0565075222519403,0.0320659752903198,0.01905));
#851=CARTESIAN_POINT('',(-0.0565075222519403,-0.0378659362537914,0.01905));
#852=CARTESIAN_POINT('',(-0.0294598760083318,0.0261659361422062,0.01905));
#853=CARTESIAN_POINT('',(-0.0216193739324808,0.0261659361422062,0.01905));
#854=CARTESIAN_POINT('',(-0.0373003780841828,0.0261659361422062,0.01905));
#855=CARTESIAN_POINT('',(-0.0216193739324808,-0.00143819954246283,0.01905));
#856=CARTESIAN_POINT('',(-0.0216193739324808,-0.0290423352271319,0.01905));
#857=CARTESIAN_POINT('',(-0.0294598760083318,-0.0290423352271319,0.01905));
#858=CARTESIAN_POINT('',(-0.0373003780841828,-0.0290423352271319,0.01905));
#859=CARTESIAN_POINT('',(-0.0373003780841828,-0.00143819954246283,0.01905));
#860=CARTESIAN_POINT('',(0.,0.,0.01405));
#861=CARTESIAN_POINT('',(0.,0.0328659362537915,0.01405));
#862=CARTESIAN_POINT('',(0.0544982200923202,0.0328659362537915,0.01405));
#863=CARTESIAN_POINT('',(-0.0545075222519403,0.0328659362537915,0.01405));
#864=CARTESIAN_POINT('',(0.0565075222519403,0.0348659362537915,0.01405));
#865=CARTESIAN_POINT('',(0.0545075222519403,0.0328566340941713,0.01405));
#866=CARTESIAN_POINT('',(0.0545075222519403,0.,0.01405));
#867=CARTESIAN_POINT('',(0.0545075222519403,-0.0328560650044583,0.01405));
#868=CARTESIAN_POINT('',(0.0565075222519403,-0.0348659362537915,0.01405));
#869=CARTESIAN_POINT('',(0.0544976510026072,-0.0328659362537915,0.01405));
#870=CARTESIAN_POINT('',(0.,-0.0328659362537915,0.01405));
#871=CARTESIAN_POINT('',(-0.0545075222519403,-0.0328659362537915,0.01405));
#872=CARTESIAN_POINT('',(-0.0545075222519403,0.,0.01405));
#873=CARTESIAN_POINT('',(-0.0216193739324808,0.,0.01405));
#874=CARTESIAN_POINT('',(-0.0216193739324808,0.0261659361422062,0.01405));
#875=CARTESIAN_POINT('',(-0.0216193739324808,-0.0290423352271319,0.01405));
#876=CARTESIAN_POINT('',(0.,0.0261659361422062,0.01405));
#877=CARTESIAN_POINT('',(-0.0373003780841828,0.0261659361422062,0.01405));
#878=CARTESIAN_POINT('',(-0.0373003780841828,0.,0.01405));
#879=CARTESIAN_POINT('',(-0.0373003780841828,-0.0290423352271319,0.01405));
#880=CARTESIAN_POINT('',(0.,-0.0290423352271319,0.01405));
#881=CARTESIAN_POINT('',(0.,0.0378659362537914,0.01905));
#882=CARTESIAN_POINT('',(0.,0.0378659362537914,0.));
#883=CARTESIAN_POINT('',(-0.0565075222519403,0.0378659362537914,0.));
#884=CARTESIAN_POINT('',(0.0565075222519403,0.0378659362537914,0.));
#885=CARTESIAN_POINT('',(-0.0565075222519403,0.0378659362537914,0.01905));
#886=CARTESIAN_POINT('',(-0.0565075222519403,0.0378659362537914,0.01605));
#887=CARTESIAN_POINT('',(0.,0.0378659362537914,0.01605));
#888=CARTESIAN_POINT('',(0.0565075222519403,0.0378659362537914,0.01605));
#889=CARTESIAN_POINT('',(0.0565075222519403,0.0378659362537914,0.01905));
#890=CARTESIAN_POINT('',(-0.0595075222519403,0.,0.01905));
#891=CARTESIAN_POINT('',(-0.0595075222519403,0.0348659362537915,-0.01905));
#892=CARTESIAN_POINT('',(-0.0595075222519403,0.0348659362537915,0.01605));
#893=CARTESIAN_POINT('',(-0.0595075222519403,0.0348659362537915,0.));
#894=CARTESIAN_POINT('',(-0.0595075222519403,0.,0.));
#895=CARTESIAN_POINT('',(-0.0595075222519403,-0.0348659362537915,0.));
#896=CARTESIAN_POINT('',(-0.0595075222519403,-0.0348659362537915,0.01905));
#897=CARTESIAN_POINT('',(-0.0595075222519403,-0.0348659362537915,0.01605));
#898=CARTESIAN_POINT('',(-0.0595075222519403,0.0378659362537914,0.01605));
#899=CARTESIAN_POINT('',(0.,-0.0378659362537914,0.01905));
#900=CARTESIAN_POINT('',(-0.0565075222519403,-0.0378659362537914,0.01905));
#901=CARTESIAN_POINT('',(-0.0565075222519403,-0.0378659362537914,0.01605));
#902=CARTESIAN_POINT('',(-0.0565075222519403,-0.0378659362537914,0.));
#903=CARTESIAN_POINT('',(0.,-0.0378659362537914,0.));
#904=CARTESIAN_POINT('',(0.0565075222519403,-0.0378659362537914,0.));
#905=CARTESIAN_POINT('',(0.0565075222519403,-0.0378659362537914,0.01905));
#906=CARTESIAN_POINT('',(0.0565075222519403,-0.0378659362537914,0.01605));
#907=CARTESIAN_POINT('',(-0.0595075222519403,-0.0378659362537914,0.01605));
#908=CARTESIAN_POINT('',(0.0595075222519403,0.,0.01905));
#909=CARTESIAN_POINT('',(0.0595075222519403,0.,0.));
#910=CARTESIAN_POINT('',(0.0595075222519403,0.0348659362537915,0.));
#911=CARTESIAN_POINT('',(0.0595075222519403,-0.0348659362537915,0.));
#912=CARTESIAN_POINT('',(0.0595075222519403,0.0348659362537915,0.01905));
#913=CARTESIAN_POINT('',(0.0595075222519403,0.0348659362537915,0.01605));
#914=CARTESIAN_POINT('',(0.0595075222519403,0.,0.01605));
#915=CARTESIAN_POINT('',(0.0595075222519403,-0.0348659362537915,0.01605));
#916=CARTESIAN_POINT('',(0.0595075222519403,-0.0348659362537915,-0.01905));
#917=CARTESIAN_POINT('',(0.,-0.0348659362537915,0.01605));
#918=CARTESIAN_POINT('',(-0.0565075222519403,-0.0376632910082639,0.0171338848544151));
#919=CARTESIAN_POINT('',(-0.0560943855963867,-0.0376632910082639,0.0171338848544151));
#920=CARTESIAN_POINT('',(-0.0553802035383615,-0.0374900458296034,0.0175805606517616));
#921=CARTESIAN_POINT('',(-0.0545543832225886,-0.0369521510096144,0.0182749975753308));
#922=CARTESIAN_POINT('',(-0.0538972360112234,-0.0360748471754844,0.0188746084339976));
#923=CARTESIAN_POINT('',(-0.0537101674974679,-0.0352765250238993,0.01905));
#924=CARTESIAN_POINT('',(-0.0537101674974679,-0.0348659362537915,0.01905));
#925=CARTESIAN_POINT('',(-0.0565075222519403,-0.0376632910082639,0.0171338848544151));
#926=CARTESIAN_POINT('',(-0.0565075222519403,-0.0348659362537915,0.01605));
#927=CARTESIAN_POINT('',(0.0565075222519403,-0.0348659362537915,0.01605));
#928=CARTESIAN_POINT('',(0.0565075222519403,-0.0377013519973634,0.017030008959706));
#929=CARTESIAN_POINT('',(0.0536721065083684,-0.0348659362537915,0.01905));
#930=CARTESIAN_POINT('',(0.0536721065083684,-0.0352855741398211,0.01905));
#931=CARTESIAN_POINT('',(0.0538649327165588,-0.0360985139292714,0.0188666275655173));
#932=CARTESIAN_POINT('',(0.0545330219163545,-0.0369862467173355,0.0182478562733455));
#933=CARTESIAN_POINT('',(0.055236261149814,-0.0374392387089309,0.0176335511550093));
#934=CARTESIAN_POINT('',(0.0559006403154384,-0.0376541505361465,0.0171723150040935));
#935=CARTESIAN_POINT('',(0.0562965715135157,-0.0377013519973636,0.0170300089597072));
#936=CARTESIAN_POINT('',(0.0565075222519408,-0.0377013519973635,0.0170300089597074));
#937=CARTESIAN_POINT('',(-0.0565075222519403,-0.0348659362537915,0.01605));
#938=CARTESIAN_POINT('',(-0.0565075222519403,-0.0348659362537915,0.0171338848544151));
#939=CARTESIAN_POINT('',(-0.0593048770064128,-0.0348659362537915,0.0171338848544151));
#940=CARTESIAN_POINT('',(-0.0565075222519403,-0.0348659362537915,0.01605));
#941=CARTESIAN_POINT('',(-0.0565075222519403,-0.0348659362537915,0.01605));
#942=CARTESIAN_POINT('',(0.0565075222519403,-0.0348659362537915,0.01605));
#943=CARTESIAN_POINT('',(0.0565075222519403,-0.0348659362537915,0.017030008959706));
#944=CARTESIAN_POINT('',(0.0593429379955123,-0.0348659362537915,0.017030008959706));
#945=CARTESIAN_POINT('',(0.0565075222519403,-0.0348659362537915,0.01605));
#946=CARTESIAN_POINT('',(0.0565075222519403,-0.0348659362537915,0.01605));
#947=CARTESIAN_POINT('',(-0.0565075222519403,0.,0.01605));
#948=CARTESIAN_POINT('',(-0.0565075222519403,-0.0320685814993191,0.01905));
#949=CARTESIAN_POINT('',(-0.0569183097644834,-0.0320685814993191,0.01905));
#950=CARTESIAN_POINT('',(-0.0577146009135086,-0.0322552165859863,0.0188749901567035));
#951=CARTESIAN_POINT('',(-0.0585916226017243,-0.032910584159977,0.0182770939238696));
#952=CARTESIAN_POINT('',(-0.059131285604816,-0.0337366994068425,0.0175815573558394));
#953=CARTESIAN_POINT('',(-0.0593048770064128,-0.0344534929081515,0.0171338848544153));
#954=CARTESIAN_POINT('',(-0.0593048770064128,-0.0348659362537916,0.0171338848544153));
#955=CARTESIAN_POINT('',(-0.0593074832154119,0.0348659362537915,0.0171271344405575));
#956=CARTESIAN_POINT('',(-0.0593074832154119,0.0344521894606755,0.0171271344405575));
#957=CARTESIAN_POINT('',(-0.0591341359794549,0.0337379893254448,0.0175767992558367));
#958=CARTESIAN_POINT('',(-0.058596169223511,0.0329114904716029,0.0182728664389532));
#959=CARTESIAN_POINT('',(-0.0577180693538673,0.0322534054752969,0.0188741389714892));
#960=CARTESIAN_POINT('',(-0.0569186955520267,0.0320659752903198,0.01905));
#961=CARTESIAN_POINT('',(-0.0565075222519403,0.0320659752903198,0.01905));
#962=CARTESIAN_POINT('',(-0.0593074832154119,0.0348659362537915,0.0171271344405575));
#963=CARTESIAN_POINT('',(-0.0565075222519403,0.0348659362537915,0.01605));
#964=CARTESIAN_POINT('',(-0.0565075222519403,-0.0348659362537915,0.01905));
#965=CARTESIAN_POINT('',(-0.0565075222519403,-0.0348659362537915,0.));
#966=CARTESIAN_POINT('',(0.0565075222519403,-0.0348659362537915,0.01905));
#967=CARTESIAN_POINT('',(0.0565075222519403,-0.0348659362537915,0.));
#968=CARTESIAN_POINT('',(0.0565075222519403,0.,0.01605));
#969=CARTESIAN_POINT('',(0.0565075222519403,0.0320309238783945,0.01905));
#970=CARTESIAN_POINT('',(0.0569270630022056,0.0320309238783945,0.01905));
#971=CARTESIAN_POINT('',(0.057739822153627,0.0322236859357943,0.0188667124916646));
#972=CARTESIAN_POINT('',(0.0586274324681347,0.0328916110800872,0.0182482066858953));
#973=CARTESIAN_POINT('',(0.0590804170747989,0.0335947556801274,0.0176341761761014));
#974=CARTESIAN_POINT('',(0.0592953419367307,0.0342591219397977,0.017173267482416));
#975=CARTESIAN_POINT('',(0.0593425346273374,0.0346550390896424,0.0170311752296854));
#976=CARTESIAN_POINT('',(0.0593425346273374,0.034865936253792,0.0170311752296855));
#977=CARTESIAN_POINT('',(0.0593425346273373,0.0348659362537915,0.0170311752296842));
#978=CARTESIAN_POINT('',(0.0593429379955123,-0.0348659362537915,0.0170300089597061));
#979=CARTESIAN_POINT('',(0.0593429379955123,-0.0346547468925162,0.0170300089597061));
#980=CARTESIAN_POINT('',(0.0592955941727757,-0.0342585132612548,0.0171726687906999));
#981=CARTESIAN_POINT('',(0.0590810305733377,-0.0335954840559653,0.017633008148409));
#982=CARTESIAN_POINT('',(0.058629291146872,-0.0328930600327597,0.0182463524707169));
#983=CARTESIAN_POINT('',(0.0577412209071763,-0.032223537105889,0.0188664454735843));
#984=CARTESIAN_POINT('',(0.0569269163940747,-0.0320305205102195,0.01905));
#985=CARTESIAN_POINT('',(0.0565075222519403,-0.0320305205102195,0.01905));
#986=CARTESIAN_POINT('',(0.0565075222519403,0.0348659362537915,0.01605));
#987=CARTESIAN_POINT('',(0.,0.0348659362537915,0.01605));
#988=CARTESIAN_POINT('',(0.0565075222519403,0.0377009486291884,0.0170311752296842));
#989=CARTESIAN_POINT('',(0.0562963839634264,0.0377009486291884,0.0170311752296842));
#990=CARTESIAN_POINT('',(0.0559001838897486,0.0376536162906416,0.0171736135805644));
#991=CARTESIAN_POINT('',(0.0552371575327524,0.0374390419051434,0.0176336255511015));
#992=CARTESIAN_POINT('',(0.0545348304296511,0.036987312631024,0.0182466956336471));
#993=CARTESIAN_POINT('',(0.0538654645044279,0.0360993654041965,0.0188665280658619));
#994=CARTESIAN_POINT('',(0.0536725098765433,0.0352852337391418,0.01905));
#995=CARTESIAN_POINT('',(0.0536725098765433,0.0348659362537915,0.01905));
#996=CARTESIAN_POINT('',(0.0565075222519403,0.0377009486291884,0.0170311752296842));
#997=CARTESIAN_POINT('',(0.0565075222519403,0.0348659362537915,0.01605));
#998=CARTESIAN_POINT('',(-0.0565075222519403,0.0348659362537915,0.01605));
#999=CARTESIAN_POINT('',(-0.0565075222519403,0.0376658972172631,0.0171271344405575));
#1000=CARTESIAN_POINT('',(-0.0537075612884687,0.0348659362537915,0.01905));
#1001=CARTESIAN_POINT('',(-0.0537075612884687,0.0352773112685711,0.01905));
#1002=CARTESIAN_POINT('',(-0.0538945740155332,0.0360746956929327,0.018874507093655));
#1003=CARTESIAN_POINT('',(-0.0545508958833417,0.0369525069712945,0.0182749326974858));
#1004=CARTESIAN_POINT('',(-0.0553777456603239,0.0374922337929617,0.0175777415723035));
#1005=CARTESIAN_POINT('',(-0.0560944655017971,0.0376658972172631,0.0171271344405577));
#1006=CARTESIAN_POINT('',(-0.0565075222519404,0.0376658972172631,0.0171271344405577));
#1007=CARTESIAN_POINT('',(-0.0565075222519403,0.0348659362537915,0.01605));
#1008=CARTESIAN_POINT('',(-0.0565075222519403,0.0348659362537915,0.0171271344405575));
#1009=CARTESIAN_POINT('',(-0.0565075222519403,0.0348659362537915,0.01605));
#1010=CARTESIAN_POINT('',(0.0565075222519403,0.0348659362537915,0.01605));
#1011=CARTESIAN_POINT('',(0.0565075222519403,0.0348659362537915,0.0170311752296842));
#1012=CARTESIAN_POINT('',(0.0565075222519403,0.0348659362537915,0.01605));
#1013=CARTESIAN_POINT('',(-0.0565075222519403,0.0348659362537915,0.01905));
#1014=CARTESIAN_POINT('',(-0.0565075222519403,0.0348659362537915,0.));
#1015=CARTESIAN_POINT('',(0.0565075222519403,0.0348659362537915,0.01905));
#1016=CARTESIAN_POINT('',(0.0565075222519403,0.0348659362537915,0.));
#1017=CARTESIAN_POINT('',(0.,0.,0.));
#1018=CARTESIAN_POINT('',(-0.0565075222519403,-0.0348659362537915,0.));
#1019=CARTESIAN_POINT('',(-0.0537101674974679,-0.0348659362537915,0.));
#1020=CARTESIAN_POINT('',(-0.0565075222519403,0.0348659362537915,0.));
#1021=CARTESIAN_POINT('',(-0.0537075612884687,0.0348659362537915,0.));
#1022=CARTESIAN_POINT('',(0.0545075222519403,0.,0.));
#1023=CARTESIAN_POINT('',(0.0545075222519403,0.0328566340941713,0.));
#1024=CARTESIAN_POINT('',(0.0545075222519403,-0.0328560650044583,0.));
#1025=CARTESIAN_POINT('',(0.0565075222519403,0.0348659362537915,0.));
#1026=CARTESIAN_POINT('',(0.0544982200923202,0.0328659362537915,0.));
#1027=CARTESIAN_POINT('',(0.,0.0328659362537915,0.));
#1028=CARTESIAN_POINT('',(-0.0545075222519403,0.0328659362537915,0.));
#1029=CARTESIAN_POINT('',(-0.0545075222519403,0.,0.));
#1030=CARTESIAN_POINT('',(-0.0545075222519403,-0.0328659362537915,0.));
#1031=CARTESIAN_POINT('',(0.,-0.0328659362537915,0.));
#1032=CARTESIAN_POINT('',(0.0544976510026072,-0.0328659362537915,0.));
#1033=CARTESIAN_POINT('',(0.0565075222519403,-0.0348659362537915,0.));
#1034=CARTESIAN_POINT('',(0.,0.0328659362537915,0.01905));
#1035=CARTESIAN_POINT('',(0.0544982200923202,0.0328659362537915,-0.00635));
#1036=CARTESIAN_POINT('',(-0.0545075222519403,0.0328659362537915,0.01905));
#1037=CARTESIAN_POINT('',(-0.0545075222519403,0.,0.01905));
#1038=CARTESIAN_POINT('',(-0.0545075222519403,-0.0328659362537915,0.01905));
#1039=CARTESIAN_POINT('',(0.,-0.0328659362537915,0.01905));
#1040=CARTESIAN_POINT('',(0.0544976510026072,-0.0328659362537915,-0.00635));
#1041=CARTESIAN_POINT('',(0.0545075222519403,0.,0.01905));
#1042=CARTESIAN_POINT('',(0.0545075222519403,0.0328566340941713,-0.00635));
#1043=CARTESIAN_POINT('',(0.0545075222519403,-0.0328560650044583,-0.00635));
#1044=CARTESIAN_POINT('',(0.0565075222519403,-0.0348659362537915,-0.00635));
#1045=CARTESIAN_POINT('',(0.0565075222519403,0.0348659362537915,-0.00635));
#1046=CARTESIAN_POINT('',(-0.0565075222519403,0.0348659362537915,-0.00635));
#1047=CARTESIAN_POINT('',(-0.0565075222519403,-0.0348659362537915,-0.00635));
#1048=CARTESIAN_POINT('',(-0.0216193739324808,-0.00143819954246283,-0.00635));
#1049=CARTESIAN_POINT('',(-0.0216193739324808,-0.0290423352271319,-0.00635));
#1050=CARTESIAN_POINT('',(-0.0216193739324808,0.0261659361422062,-0.00635));
#1051=CARTESIAN_POINT('',(-0.0294598760083318,0.0261659361422062,-0.00635));
#1052=CARTESIAN_POINT('',(-0.0373003780841828,0.0261659361422062,-0.00635));
#1053=CARTESIAN_POINT('',(-0.0373003780841828,-0.00143819954246283,-0.00635));
#1054=CARTESIAN_POINT('',(-0.0373003780841828,-0.0290423352271319,-0.00635));
#1055=CARTESIAN_POINT('',(-0.0294598760083318,-0.0290423352271319,-0.00635));
#1056=MECHANICAL_DESIGN_GEOMETRIC_PRESENTATION_REPRESENTATION('',(#591),
#1057);
#1057=(
GEOMETRIC_REPRESENTATION_CONTEXT(3)
GLOBAL_UNCERTAINTY_ASSIGNED_CONTEXT((#1058))
GLOBAL_UNIT_ASSIGNED_CONTEXT((#1061,#1060,#1059))
REPRESENTATION_CONTEXT('Part 2','TOP_LEVEL_ASSEMBLY_PART')
);
#1058=UNCERTAINTY_MEASURE_WITH_UNIT(LENGTH_MEASURE(2.E-5),#1061,
'DISTANCE_ACCURACY_VALUE','Maximum Tolerance applied to model');
#1059=(
NAMED_UNIT(*)
SI_UNIT($,.STERADIAN.)
SOLID_ANGLE_UNIT()
);
#1060=(
NAMED_UNIT(*)
PLANE_ANGLE_UNIT()
SI_UNIT($,.RADIAN.)
);
#1061=(
LENGTH_UNIT()
NAMED_UNIT(*)
SI_UNIT($,.METRE.)
);
#1062=PRODUCT_DEFINITION_SHAPE('','',#1063);
#1063=PRODUCT_DEFINITION('','',#1065,#1064);
#1064=PRODUCT_DEFINITION_CONTEXT('',#1071,'design');
#1065=PRODUCT_DEFINITION_FORMATION_WITH_SPECIFIED_SOURCE('','',#1067,
 .NOT_KNOWN.);
#1066=PRODUCT_RELATED_PRODUCT_CATEGORY('','',(#1067));
#1067=PRODUCT('Part 2','Part 2','Part 2',(#1069));
#1068=PRODUCT_CATEGORY('','');
#1069=PRODUCT_CONTEXT('',#1071,'mechanical');
#1070=APPLICATION_PROTOCOL_DEFINITION('international standard',
'ap242_managed_model_based_3d_engineering',2020,#1071);
#1071=APPLICATION_CONTEXT('managed model based 3d engineering');
ENDSEC;
END-ISO-10303-21;
